<svg width="21" height="19" viewBox="0 0 21 19" fill="none" xmlns="http://www.w3.org/2000/svg">
<path d="M1.8125 0.566895H19.8125C20.0777 0.566895 20.3321 0.672251 20.5196 0.859788C20.7071 1.04732 20.8125 1.30168 20.8125 1.56689V17.5669C20.8125 17.8321 20.7071 18.0865 20.5196 18.274C20.3321 18.4615 20.0777 18.5669 19.8125 18.5669H1.8125C1.54728 18.5669 1.29293 18.4615 1.10539 18.274C0.917857 18.0865 0.8125 17.8321 0.8125 17.5669V1.56689C0.8125 1.30168 0.917857 1.04732 1.10539 0.859788C1.29293 0.672251 1.54728 0.566895 1.8125 0.566895ZM18.8125 8.56689H2.8125V16.5669H18.8125V8.56689ZM18.8125 6.56689V2.56689H2.8125V6.56689H18.8125ZM12.8125 12.5669H16.8125V14.5669H12.8125V12.5669Z" fill="#0D458A"/>
<rect x="12.7812" y="12.4927" width="4.03843" height="2.08175" fill="#3AA64C"/>
</svg>
