<svg width="14" height="14" viewBox="0 0 14 14" fill="none" xmlns="http://www.w3.org/2000/svg">
<path d="M3.51888 9.78288H11.1022V6.008C11.1022 3.90471 9.40463 2.19954 7.31055 2.19954C5.21646 2.19954 3.51888 3.90471 3.51888 6.008V9.78288ZM7.31055 1.11621C10.0026 1.11621 12.1855 3.30617 12.1855 6.008V10.8662H2.43555V6.008C2.43555 3.30617 4.61846 1.11621 7.31055 1.11621ZM5.95638 11.4079H8.66471C8.66471 11.767 8.52204 12.1115 8.26809 12.3654C8.01413 12.6194 7.66969 12.762 7.31055 12.762C6.9514 12.762 6.60696 12.6194 6.35301 12.3654C6.09905 12.1115 5.95638 11.767 5.95638 11.4079Z" fill="white"/>
</svg>
