<svg width="15" height="14" viewBox="0 0 15 14" fill="none" xmlns="http://www.w3.org/2000/svg">
<path d="M10.8231 2.84873H14.2974V4.23843H12.9077V13.2715C12.9077 13.4557 12.8345 13.6325 12.7042 13.7628C12.5738 13.8931 12.3971 13.9663 12.2128 13.9663H2.48494C2.30065 13.9663 2.12391 13.8931 1.9936 13.7628C1.8633 13.6325 1.79009 13.4557 1.79009 13.2715V4.23843H0.400391V2.84873H3.87463V0.764185C3.87463 0.579899 3.94784 0.403162 4.07815 0.272852C4.20846 0.142543 4.3852 0.0693359 4.56948 0.0693359H10.1283C10.3126 0.0693359 10.4893 0.142543 10.6196 0.272852C10.7499 0.403162 10.8231 0.579899 10.8231 0.764185V2.84873ZM11.518 4.23843H3.17979V12.5766H11.518V4.23843ZM8.33139 8.40752L9.55989 9.63601L8.57737 10.6185L7.34888 9.39004L6.12039 10.6185L5.13787 9.63601L6.36636 8.40752L5.13787 7.17903L6.12039 6.19651L7.34888 7.425L8.57737 6.19651L9.55989 7.17903L8.33139 8.40752ZM5.26433 1.45903V2.84873H9.43342V1.45903H5.26433Z" fill="#F34018"/>
</svg>
