<svg width="14" height="13" viewBox="0 0 14 13" fill="none" xmlns="http://www.w3.org/2000/svg">
<g clip-path="url(#clip0_14118_65254)">
<path d="M9.96204 10.4529C9.02668 11.0112 7.94151 11.3069 6.83386 11.3053C3.96628 11.3053 1.58052 9.36318 1.08008 6.80042C1.30878 5.63453 1.93186 4.56947 2.85636 3.76416L1.19229 2.19947L1.94482 1.49121L12.4744 11.4019L11.7218 12.1096L9.96151 10.4529H9.96204ZM3.60836 4.47292C2.88562 5.09138 2.38215 5.90385 2.16606 6.80042C2.33214 7.48439 2.66558 8.12242 3.13983 8.66373C3.61407 9.20503 4.21604 9.63467 4.89779 9.91843C5.57955 10.2022 6.32228 10.3323 7.06685 10.2983C7.81142 10.2642 8.53728 10.0671 9.18665 9.72257L8.10811 8.70748C7.64898 8.97968 7.1052 9.09695 6.56595 9.04005C6.0267 8.98316 5.52401 8.75548 5.14031 8.39435C4.75662 8.03323 4.51471 7.5601 4.45426 7.05258C4.39381 6.54505 4.51841 6.03325 4.80762 5.60113L3.60836 4.47292ZM7.31995 7.96568L5.59578 6.34293C5.50115 6.56964 5.47888 6.81742 5.5317 7.05587C5.58452 7.29432 5.71013 7.51308 5.89313 7.68532C6.07613 7.85755 6.30857 7.97578 6.56192 8.02549C6.81527 8.0752 7.07854 8.05424 7.31942 7.96518L7.31995 7.96568ZM11.5176 9.0989L10.7566 8.38313C11.1121 7.90626 11.3652 7.36863 11.5017 6.80042C11.3571 6.20465 11.0854 5.64275 10.703 5.14889C10.3205 4.65504 9.83536 4.23953 9.27699 3.92763C8.71862 3.61574 8.09869 3.41396 7.45489 3.33458C6.81109 3.25519 6.15686 3.29985 5.53196 3.46584L4.69275 2.67599C5.35593 2.43072 6.07868 2.29558 6.83386 2.29558C9.70145 2.29558 12.0872 4.23767 12.5876 6.80042C12.4247 7.63417 12.0584 8.42096 11.5176 9.0989V9.0989ZM6.68655 4.552C7.02506 4.53232 7.36415 4.58057 7.68135 4.69357C7.99854 4.80656 8.2866 4.98172 8.52641 5.20743C8.76623 5.43315 8.95234 5.70426 9.0724 6.00279C9.19246 6.30133 9.24373 6.62048 9.22281 6.93907L6.68602 4.552H6.68655Z" fill="#EAAC0C"/>
</g>
<defs>
<clipPath id="clip0_14118_65254">
<rect width="12.7637" height="12.0129" fill="white" transform="translate(0.455078 0.793945)"/>
</clipPath>
</defs>
</svg>
