<svg width="91" height="89" viewBox="0 0 91 89" fill="none" xmlns="http://www.w3.org/2000/svg">
<g clip-path="url(#clip0_14118_72783)">
<path fill-rule="evenodd" clip-rule="evenodd" d="M45.2314 88.9435L45.3189 69.5325H45.3192C46.0238 70.0832 46.6483 70.7275 47.2379 71.3358C48.7697 72.9163 50.0663 74.2539 51.9218 73.0769C53.2075 72.2613 53.1943 71.2242 53.1741 69.6431C53.1716 69.4472 53.169 69.2429 53.1688 69.0297C53.1657 66.3606 53.1446 63.6165 53.1234 60.8489C53.0753 54.5811 53.0263 48.1937 53.1829 42.2884C54.669 42.2884 56.612 42.2692 58.7161 42.2485C63.3703 42.2026 68.8124 42.1489 71.84 42.2776C72.8953 42.3225 73.2828 42.7395 73.8253 43.371C74.3711 44.006 74.3666 44.4848 74.3571 45.4955C74.3565 45.5605 74.3559 45.6277 74.3554 45.6972C74.3165 51.0847 74.328 56.4807 74.3395 61.8743C74.345 64.45 74.3505 67.0251 74.3505 69.5986C74.3505 69.9525 74.36 70.7322 74.3729 71.7776C74.4306 76.4719 74.554 86.5239 74.1717 87.441C73.6676 88.6504 72.8069 88.9006 71.5152 88.9435H69.6954C64.1741 88.942 58.6526 88.9425 53.1312 88.943C51.0077 88.9432 48.8841 88.9434 46.7605 88.9435H46.3783H45.996H45.6137H45.2314ZM16.2168 64.5886C16.2782 60.8891 16.3418 57.0664 16.1299 53.6673C16.6632 52.9358 35.2186 42.6497 36.3328 42.209L37.3147 42.288L37.3171 68.8397C37.3168 69.1085 37.312 69.3627 37.3075 69.6038C37.2786 71.1432 37.2598 72.1482 38.4849 72.9967C40.1685 74.1629 41.4842 73.004 42.3131 72.2186C42.4609 72.0786 42.6735 71.8955 42.9139 71.6884C43.6902 71.0196 44.7567 70.1008 44.8681 69.5771L45.3185 69.5322L45.231 88.9431H20.8153H19.1061C17.1985 88.892 16.1325 88.4612 16.1573 85.532C16.1875 81.9554 16.1783 78.3705 16.1691 74.7879C16.1646 73.0571 16.1602 71.3268 16.1602 69.5982C16.1602 67.9911 16.1883 66.3031 16.2168 64.5886Z" fill="url(#paint0_linear_14118_72783)"/>
<path fill-rule="evenodd" clip-rule="evenodd" d="M41.3199 15.1674L37.3028 17.6328C36.2005 18.2149 34.1875 19.6462 33.0355 19.9088C33.0355 18.9918 33.2162 17.528 32.883 16.8742L32.8715 20.3012C31.7501 20.7249 30.1162 21.8115 29.0043 22.4168C27.9921 22.9678 26.0094 24.2755 25.0829 24.4932L17.1418 29.0123C16.459 29.5953 10.5358 32.9706 9.56538 33.2611L1.52642 37.8418C0.731567 38.3565 0.358246 38.9445 0.254883 39.5616V40.3419C0.345831 40.9514 0.627915 41.5708 0.966877 42.1609C1.3812 42.8824 1.69533 43.2822 2.13477 44.0534L8.09519 53.967C10.8756 58.6285 13.1926 54.391 16.1295 53.6675C16.6628 52.9357 35.218 42.6498 36.3324 42.2091L45.0617 37.1674L64.0295 26.5077C64.5882 26.1627 65.0877 25.9741 65.6602 25.6365C69.4786 23.384 69.2522 22.733 66.5114 18.2798L64.6407 15.1778C64.3612 14.7219 64.0791 14.2832 63.7627 13.7604C62.6947 11.9951 60.5327 7.0657 58.7204 6.54767C56.9378 6.0381 53.9048 8.17969 51.7884 9.41789C50.6047 10.1104 49.7645 10.592 48.5258 11.1849C48.1101 11.8184 46.1748 12.8053 45.2612 13.1607L45.3216 13.2776C44.5983 13.5681 44.0281 13.9368 43.2728 14.3653C42.7984 14.6344 41.8728 15.3983 41.3196 15.1677L41.3199 15.1674Z" fill="url(#paint1_linear_14118_72783)"/>
<path fill-rule="evenodd" clip-rule="evenodd" d="M9.56609 33.2614C10.5365 32.971 16.4597 29.5954 17.1425 29.0127C15.3007 29.1589 15.1038 29.7315 13.1038 28.9675C9.28978 27.5111 8.80588 22.3161 12.0023 20.205C15.8505 17.6633 18.0941 20.3794 21.9899 22.5549L25.0836 24.4935C26.0101 24.2759 27.9928 22.9682 29.005 22.4171C30.1169 21.8119 31.7508 20.7253 32.8722 20.3015L32.8837 16.8746C32.7775 15.6242 32.9369 14.3276 32.8321 13.0914C32.671 11.1931 32.2849 9.07299 34.6938 7.30546C37.6777 5.11616 41.3177 6.34448 42.6793 9.34231C43.1288 10.3318 43.2172 11.55 42.8976 12.6713C42.6354 13.5913 42.0848 14.7096 41.3206 15.1675C41.8738 15.3981 42.7994 14.6342 43.2738 14.3651C44.0291 13.9366 44.5993 13.5679 45.3226 13.2774L45.2622 13.1605C46.1758 12.8054 48.1111 11.8182 48.5268 11.1847C48.6827 8.29551 46.9192 5.09865 45.266 3.97789C44.1319 2.40205 41.3864 1.05148 38.6019 0.943359H37.7872C32.1259 1.12037 28.1747 4.73165 27.3197 9.95803C27.1647 10.9069 27.4015 15.22 27.4041 17.0708C27.4058 18.2147 27.6047 18.4482 27.6047 19.5297C26.8563 19.3592 24.3037 17.7057 23.4194 17.1738C20.2191 15.2488 17.5837 13.3039 13.4133 13.9984C6.24893 15.1915 1.83954 22.9761 6.13287 29.904C7.51297 32.1308 8.07049 31.9002 9.56609 33.2614Z" fill="#FED743"/>
<path fill-rule="evenodd" clip-rule="evenodd" d="M44.8682 69.5771L45.3186 69.5322C47.8542 71.5135 49.3515 74.7067 51.9211 73.0766C53.3662 72.16 53.1704 70.9638 53.1681 69.0294C53.1577 60.3154 52.9562 50.8008 53.1823 42.2881H45.294C44.9733 45.7322 45.2432 60.7491 45.2444 66.3743C45.2447 68.0775 45.5213 68.8527 44.8682 69.5774V69.5771Z" fill="#FDB44B"/>
<path fill-rule="evenodd" clip-rule="evenodd" d="M44.8688 69.5774C45.5219 68.8527 45.2456 68.0775 45.245 66.3743C45.2436 60.7491 44.9739 45.7325 45.2947 42.2881H37.3152L37.3175 68.8397C37.3155 70.8249 37.0684 72.0154 38.4854 72.9967C40.1693 74.1629 41.4847 73.0041 42.3136 72.2187C42.9384 71.6267 44.723 70.2634 44.8685 69.5771L44.8688 69.5774Z" fill="#FED743"/>
<path fill-rule="evenodd" clip-rule="evenodd" d="M79.5878 29.5818V32.0472C77.1755 32.0472 74.3506 31.4668 74.3506 34.892C74.3506 35.7977 75.2404 36.7931 76.0255 37.0472C76.8174 37.3035 79.086 36.7855 79.4983 37.4449C79.7789 37.8935 78.8137 42.4782 82.3032 42.4782C85.5424 42.4782 85.0187 38.8714 85.0187 37.168C87.5493 37.168 90.2558 37.7764 90.2558 34.3232C90.2558 31.5659 86.678 32.0472 85.0187 32.0472V29.2024C85.0187 26.1794 79.5878 25.7805 79.5878 29.5818Z" fill="#FDB44B"/>
<path fill-rule="evenodd" clip-rule="evenodd" d="M74.1562 18.9607C74.1562 22.6892 79.5872 22.7536 79.5872 18.9607C79.5872 15.7656 74.1562 15.719 74.1562 18.9607Z" fill="#FDB44B"/>
<path fill-rule="evenodd" clip-rule="evenodd" d="M63.6826 34.3229C63.6826 38.5838 69.1135 37.6313 69.1135 34.7023C69.1135 31.1187 63.6826 31.3245 63.6826 34.3229Z" fill="#FDB44B"/>
</g>
<defs>
<linearGradient id="paint0_linear_14118_72783" x1="45.2843" y1="42.1973" x2="45.2843" y2="88.9435" gradientUnits="userSpaceOnUse">
<stop stop-color="#3AA64C"/>
<stop offset="1" stop-color="#0D458A"/>
</linearGradient>
<linearGradient id="paint1_linear_14118_72783" x1="51.5357" y1="22.4032" x2="8.57845" y2="6.14185" gradientUnits="userSpaceOnUse">
<stop stop-color="#3AA64C"/>
<stop offset="1" stop-color="#0D458A"/>
</linearGradient>
<clipPath id="clip0_14118_72783">
<rect width="90" height="88" fill="white" transform="translate(0.255859 0.943359)"/>
</clipPath>
</defs>
</svg>
