<svg width="11" height="14" viewBox="0 0 11 14" fill="none" xmlns="http://www.w3.org/2000/svg">
<path d="M5.53906 0.385742L10.3323 1.45091C10.5989 1.51041 10.7891 1.74666 10.7891 2.02024V7.84599C10.7891 9.01616 10.204 10.1093 9.2304 10.758L5.53906 13.2191L1.84773 10.758C0.873562 10.1087 0.289062 9.01616 0.289062 7.84658V2.02024C0.289062 1.74666 0.479229 1.51041 0.745812 1.45091L5.53906 0.385742ZM5.53906 1.58099L1.45573 2.48808V7.84599C1.45573 8.62591 1.8454 9.35449 2.49465 9.78733L5.53906 11.8173L8.58348 9.78733C9.23273 9.35449 9.6224 8.62649 9.6224 7.84658V2.48808L5.53906 1.58158V1.58099ZM8.13606 4.59858L8.96148 5.42341L5.24915 9.13574L2.77406 6.66066L3.5989 5.83583L5.24856 7.48549L8.13606 4.59799V4.59858Z" fill="url(#paint0_linear_14118_68007)"/>
<defs>
<linearGradient id="paint0_linear_14118_68007" x1="5.53906" y1="0.385742" x2="5.53906" y2="13.2191" gradientUnits="userSpaceOnUse">
<stop stop-color="#3AA64C"/>
<stop offset="1" stop-color="#34E36F"/>
</linearGradient>
</defs>
</svg>
