<svg width="14" height="14" viewBox="0 0 14 14" fill="none" xmlns="http://www.w3.org/2000/svg">
<path d="M6.58659 12.0208C3.59496 12.0208 1.16992 9.59579 1.16992 6.60417C1.16992 3.61254 3.59496 1.1875 6.58659 1.1875C9.57821 1.1875 12.0033 3.61254 12.0033 6.60417C12.0033 9.59579 9.57821 12.0208 6.58659 12.0208ZM6.58659 10.9375C7.73586 10.9375 8.83806 10.481 9.65072 9.6683C10.4634 8.85564 10.9199 7.75344 10.9199 6.60417C10.9199 5.4549 10.4634 4.35269 9.65072 3.54004C8.83806 2.72738 7.73586 2.27083 6.58659 2.27083C5.43732 2.27083 4.33512 2.72738 3.52246 3.54004C2.7098 4.35269 2.25326 5.4549 2.25326 6.60417C2.25326 7.75344 2.7098 8.85564 3.52246 9.6683C4.33512 10.481 5.43732 10.9375 6.58659 10.9375ZM6.04492 8.22917H7.12826V9.3125H6.04492V8.22917ZM7.12826 7.33812V7.6875H6.04492V6.875C6.04492 6.73134 6.10199 6.59357 6.20357 6.49198C6.30516 6.3904 6.44293 6.33333 6.58659 6.33333C6.74047 6.33332 6.89117 6.28962 7.02118 6.2073C7.15119 6.12499 7.25515 6.00745 7.32097 5.86836C7.38678 5.72927 7.41175 5.57435 7.39296 5.42162C7.37417 5.2689 7.3124 5.12465 7.21483 5.00566C7.11727 4.88667 6.98792 4.79783 6.84183 4.74948C6.69575 4.70113 6.53894 4.69526 6.38965 4.73255C6.24036 4.76984 6.10473 4.84875 5.99854 4.96011C5.89234 5.07147 5.81996 5.21069 5.7898 5.36158L4.72705 5.14871C4.79293 4.81942 4.94507 4.51353 5.16792 4.26232C5.39077 4.0111 5.67633 3.82357 5.99541 3.71888C6.31449 3.6142 6.65564 3.59612 6.984 3.6665C7.31236 3.73688 7.61614 3.89319 7.86428 4.11945C8.11243 4.34571 8.29605 4.6338 8.39636 4.95428C8.49667 5.27477 8.51008 5.61614 8.43522 5.9435C8.36036 6.27086 8.19992 6.57248 7.97029 6.81751C7.74066 7.06254 7.45008 7.2422 7.12826 7.33812Z" fill="#A4B7CF"/>
</svg>
