<svg width="21" height="21" viewBox="0 0 21 21" fill="none" xmlns="http://www.w3.org/2000/svg">
<path d="M15.9123 3.89115C15.6749 3.89115 15.4429 3.96153 15.2456 4.09339C15.0482 4.22525 14.8944 4.41266 14.8036 4.63193C14.7128 4.8512 14.689 5.09248 14.7353 5.32526C14.7816 5.55804 14.8959 5.77186 15.0637 5.93968C15.2316 6.1075 15.4454 6.22179 15.6782 6.26809C15.9109 6.3144 16.1522 6.29063 16.3715 6.19981C16.5908 6.10898 16.7782 5.95518 16.91 5.75784C17.0419 5.5605 17.1123 5.32849 17.1123 5.09115C17.1123 4.77289 16.9858 4.46767 16.7608 4.24262C16.5358 4.01758 16.2305 3.89115 15.9123 3.89115ZM20.5123 6.31115C20.4928 5.48145 20.3374 4.66055 20.0523 3.88115C19.798 3.21428 19.4023 2.61043 18.8923 2.11115C18.3971 1.59858 17.7918 1.20533 17.1223 0.961152C16.3449 0.667313 15.5231 0.508362 14.6923 0.491152C13.6323 0.431152 13.2923 0.431152 10.5723 0.431152C7.85227 0.431152 7.51227 0.431152 6.45227 0.491152C5.62142 0.508362 4.79961 0.667313 4.02227 0.961152C3.35394 1.2078 2.7492 1.60071 2.25227 2.11115C1.73969 2.60633 1.34644 3.21159 1.10227 3.88115C0.808426 4.6585 0.649476 5.4803 0.632266 6.31115C0.572266 7.37115 0.572266 7.71115 0.572266 10.4312C0.572266 13.1512 0.572266 13.4912 0.632266 14.5512C0.649476 15.382 0.808426 16.2038 1.10227 16.9812C1.34644 17.6507 1.73969 18.256 2.25227 18.7512C2.7492 19.2616 3.35394 19.6545 4.02227 19.9012C4.79961 20.195 5.62142 20.3539 6.45227 20.3712C7.51227 20.4312 7.85227 20.4312 10.5723 20.4312C13.2923 20.4312 13.6323 20.4312 14.6923 20.3712C15.5231 20.3539 16.3449 20.195 17.1223 19.9012C17.7918 19.657 18.3971 19.2637 18.8923 18.7512C19.4045 18.2537 19.8006 17.6493 20.0523 16.9812C20.3374 16.2017 20.4928 15.3809 20.5123 14.5512C20.5123 13.4912 20.5723 13.1512 20.5723 10.4312C20.5723 7.71115 20.5723 7.37115 20.5123 6.31115ZM18.7123 14.4312C18.705 15.0659 18.59 15.6949 18.3723 16.2912C18.2126 16.7263 17.9561 17.1196 17.6223 17.4412C17.2979 17.7717 16.9055 18.0276 16.4723 18.1912C15.876 18.4089 15.247 18.5239 14.6123 18.5312C13.6123 18.5812 13.2423 18.5912 10.6123 18.5912C7.98227 18.5912 7.61227 18.5912 6.61227 18.5312C5.95316 18.5435 5.29686 18.442 4.67227 18.2312C4.25805 18.0592 3.88362 17.8039 3.57227 17.4812C3.24035 17.1599 2.98711 16.7663 2.83227 16.3312C2.58812 15.7263 2.45271 15.0831 2.43227 14.4312C2.43227 13.4312 2.37227 13.0612 2.37227 10.4312C2.37227 7.80115 2.37227 7.43115 2.43227 6.43115C2.43675 5.78221 2.55522 5.1391 2.78227 4.53115C2.95831 4.10906 3.22853 3.73281 3.57227 3.43115C3.87608 3.08732 4.25155 2.81425 4.67227 2.63115C5.28182 2.4112 5.92426 2.29623 6.57227 2.29115C7.57227 2.29115 7.94227 2.23115 10.5723 2.23115C13.2023 2.23115 13.5723 2.23115 14.5723 2.29115C15.207 2.29843 15.836 2.4134 16.4323 2.63115C16.8867 2.7998 17.2946 3.074 17.6223 3.43115C17.95 3.73833 18.206 4.11388 18.3723 4.53115C18.5945 5.14009 18.7096 5.78293 18.7123 6.43115C18.7623 7.43115 18.7723 7.80115 18.7723 10.4312C18.7723 13.0612 18.7623 13.4312 18.7123 14.4312ZM10.5723 5.30115C9.55808 5.30313 8.56723 5.60568 7.72492 6.17057C6.88261 6.73546 6.22664 7.53735 5.8399 8.47491C5.45316 9.41246 5.35299 10.4436 5.55206 11.4381C5.75113 12.4325 6.2405 13.3457 6.95834 14.0621C7.67618 14.7786 8.59028 15.2662 9.58512 15.4633C10.58 15.6604 11.6109 15.5583 12.5477 15.1697C13.4845 14.7811 14.2851 14.1236 14.8484 13.2802C15.4116 12.4368 15.7123 11.4453 15.7123 10.4312C15.7136 9.75626 15.5815 9.08776 15.3235 8.46411C15.0655 7.84046 14.6868 7.27396 14.2091 6.7972C13.7314 6.32044 13.1642 5.94283 12.5401 5.68608C11.9159 5.42933 11.2472 5.29851 10.5723 5.30115ZM10.5723 13.7612C9.91365 13.7612 9.26983 13.5659 8.72222 13.1999C8.1746 12.834 7.74779 12.314 7.49575 11.7055C7.24371 11.097 7.17776 10.4275 7.30625 9.7815C7.43474 9.13554 7.75189 8.5422 8.2176 8.07649C8.68331 7.61078 9.27666 7.29363 9.92262 7.16514C10.5686 7.03665 11.2381 7.10259 11.8466 7.35463C12.4551 7.60667 12.9752 8.03349 13.3411 8.5811C13.707 9.12872 13.9023 9.77254 13.9023 10.4312C13.9023 10.8685 13.8161 11.3015 13.6488 11.7055C13.4814 12.1095 13.2362 12.4766 12.9269 12.7858C12.6177 13.095 12.2506 13.3403 11.8466 13.5077C11.4426 13.675 11.0096 13.7612 10.5723 13.7612Z" fill="black"/>
</svg>
