<svg width="25" height="25" viewBox="0 0 25 25" fill="none" xmlns="http://www.w3.org/2000/svg">
<path d="M12.7285 2.11035C15.4455 2.11035 15.7845 2.12035 16.8505 2.17035C17.9155 2.22035 18.6405 2.38735 19.2785 2.63535C19.9385 2.88935 20.4945 3.23335 21.0505 3.78835C21.559 4.28825 21.9525 4.89294 22.2035 5.56035C22.4505 6.19735 22.6185 6.92335 22.6685 7.98835C22.7155 9.05435 22.7285 9.39335 22.7285 12.1104C22.7285 14.8274 22.7185 15.1664 22.6685 16.2324C22.6185 17.2974 22.4505 18.0224 22.2035 18.6604C21.9532 19.3281 21.5596 19.933 21.0505 20.4324C20.5505 20.9407 19.9458 21.3341 19.2785 21.5854C18.6415 21.8324 17.9155 22.0004 16.8505 22.0504C15.7845 22.0974 15.4455 22.1104 12.7285 22.1104C10.0115 22.1104 9.67252 22.1004 8.60652 22.0504C7.54152 22.0004 6.81652 21.8324 6.17852 21.5854C5.51084 21.3348 4.90604 20.9413 4.40652 20.4324C3.89792 19.9325 3.50445 19.3278 3.25352 18.6604C3.00552 18.0234 2.83852 17.2974 2.78852 16.2324C2.74152 15.1664 2.72852 14.8274 2.72852 12.1104C2.72852 9.39335 2.73852 9.05435 2.78852 7.98835C2.83852 6.92235 3.00552 6.19835 3.25352 5.56035C3.50375 4.89253 3.89732 4.28767 4.40652 3.78835C4.90619 3.27958 5.51094 2.88608 6.17852 2.63535C6.81652 2.38735 7.54052 2.22035 8.60652 2.17035C9.67252 2.12335 10.0115 2.11035 12.7285 2.11035ZM12.7285 7.11035C11.4024 7.11035 10.1307 7.63714 9.19298 8.57482C8.2553 9.5125 7.72852 10.7843 7.72852 12.1104C7.72852 13.4364 8.2553 14.7082 9.19298 15.6459C10.1307 16.5836 11.4024 17.1104 12.7285 17.1104C14.0546 17.1104 15.3264 16.5836 16.264 15.6459C17.2017 14.7082 17.7285 13.4364 17.7285 12.1104C17.7285 10.7843 17.2017 9.5125 16.264 8.57482C15.3264 7.63714 14.0546 7.11035 12.7285 7.11035ZM19.2285 6.86035C19.2285 6.52883 19.0968 6.21089 18.8624 5.97647C18.628 5.74205 18.31 5.61035 17.9785 5.61035C17.647 5.61035 17.3291 5.74205 17.0946 5.97647C16.8602 6.21089 16.7285 6.52883 16.7285 6.86035C16.7285 7.19187 16.8602 7.50981 17.0946 7.74424C17.3291 7.97866 17.647 8.11035 17.9785 8.11035C18.31 8.11035 18.628 7.97866 18.8624 7.74424C19.0968 7.50981 19.2285 7.19187 19.2285 6.86035ZM12.7285 9.11035C13.5242 9.11035 14.2872 9.42642 14.8498 9.98903C15.4124 10.5516 15.7285 11.3147 15.7285 12.1104C15.7285 12.906 15.4124 13.6691 14.8498 14.2317C14.2872 14.7943 13.5242 15.1104 12.7285 15.1104C11.9329 15.1104 11.1698 14.7943 10.6072 14.2317C10.0446 13.6691 9.72852 12.906 9.72852 12.1104C9.72852 11.3147 10.0446 10.5516 10.6072 9.98903C11.1698 9.42642 11.9329 9.11035 12.7285 9.11035Z" fill="#173963"/>
</svg>
