<svg width="31" height="29" viewBox="0 0 31 29" fill="none" xmlns="http://www.w3.org/2000/svg">
<path fill-rule="evenodd" clip-rule="evenodd" d="M6.54794 0.976672C5.87311 1.31422 5.11137 1.51141 4.36644 1.92838C3.98739 2.14064 3.74931 2.31386 3.42504 2.54666C3.11611 2.76849 2.8583 3.04305 2.54207 3.21491C2.38286 3.4477 2.27988 3.49495 2.08269 3.72979C-0.409202 6.69037 0.039221 9.01146 0.039221 12.7026C0.039221 13.3599 0.0399513 14.0165 0.039221 14.6738C0.039221 15.0285 -0.00970971 16.2308 0.239333 16.5197C0.264165 17.6988 1.32241 19.3112 1.91179 20.0527C3.66386 22.2581 6.3208 23.3118 9.25089 23.3104C11.0534 23.3097 12.8558 23.3118 14.6575 23.3104C16.4498 23.3091 15.7684 23.0845 18.0368 25.2111C18.9621 26.0786 19.8144 26.8776 20.7405 27.7458C21.1056 28.0882 21.6833 28.7735 22.2084 28.9057C22.2705 28.9214 22.3311 28.9338 22.391 28.9427H22.9483C23.4778 28.8543 23.8634 28.5195 24.0452 28.169C24.3571 27.5658 24.1701 24.2067 24.1701 23.2166C25.3175 22.7004 26.6014 22.8805 28.5528 20.6607C29.1181 20.0178 29.5023 19.3577 29.8163 18.4656C30.1464 17.5283 30.1756 16.9483 30.1778 15.9062V15.4742V15.4105V9.4654C30.123 8.27747 30.004 7.21005 29.7666 6.51715C28.5718 3.02799 25.1612 0.678833 21.1662 0.687049C19.4251 0.690473 8.70314 0.593931 7.63248 0.765788C7.19136 0.83631 6.94085 0.932851 6.54721 0.977355L6.54794 0.976672ZM7.92753 17.3954C7.86911 16.2767 8.73382 15.3496 9.2487 14.4794C9.98707 13.2298 13.6804 7.08612 14.0484 6.78075C14.4494 6.44799 15.1673 6.3405 15.7625 6.59452C16.4279 6.87866 17.9572 9.70847 18.3559 10.3617C18.6181 10.7916 21.156 15.2263 21.6191 15.5098C21.7001 16.0706 22.3078 16.4095 22.2092 17.2092C22.1303 17.8508 21.6461 18.2917 21.0399 18.3999C20.3592 18.5217 12.8222 18.4348 11.4536 18.4348C9.63651 18.4348 8.54466 18.7641 7.92753 17.3954Z" fill="url(#paint0_linear_14118_67975)"/>
<path fill-rule="evenodd" clip-rule="evenodd" d="M7.9286 17.3945C8.54573 18.7632 9.6383 18.4338 11.4546 18.4338C12.8233 18.4338 20.3603 18.5208 21.041 18.3989C21.6471 18.2901 22.1314 17.8491 22.2102 17.2083C22.3088 16.4085 21.7012 16.0696 21.6201 15.5089C21.1578 15.2254 18.6199 10.7907 18.357 10.3607C17.9575 9.70753 16.4282 6.87772 15.7636 6.59358C15.1676 6.33956 14.4497 6.44705 14.0495 6.77981C13.6807 7.08587 9.98813 13.2295 9.24977 14.4784C8.73488 15.3493 7.87017 16.2757 7.9286 17.3945Z" fill="#4EDAA4"/>
<defs>
<linearGradient id="paint0_linear_14118_67975" x1="15.0928" y1="0.663086" x2="15.0928" y2="28.9427" gradientUnits="userSpaceOnUse">
<stop stop-color="#0D458A"/>
<stop offset="1" stop-color="#3AA64C"/>
</linearGradient>
</defs>
</svg>
