<svg width="21" height="21" viewBox="0 0 21 21" fill="none" xmlns="http://www.w3.org/2000/svg">
<path d="M19.3514 0.43117H2.41141C2.22098 0.428525 2.03191 0.463418 1.85497 0.533854C1.67804 0.60429 1.51671 0.708891 1.3802 0.841682C1.2437 0.974473 1.13469 1.13285 1.0594 1.30778C0.984109 1.4827 0.944015 1.67075 0.941406 1.86117V19.0012C0.944015 19.1916 0.984109 19.3796 1.0594 19.5546C1.13469 19.7295 1.2437 19.8879 1.3802 20.0207C1.51671 20.1534 1.67804 20.258 1.85497 20.3285C2.03191 20.3989 2.22098 20.4338 2.41141 20.4312H19.3514C19.5418 20.4338 19.7309 20.3989 19.9078 20.3285C20.0848 20.258 20.2461 20.1534 20.3826 20.0207C20.5191 19.8879 20.6281 19.7295 20.7034 19.5546C20.7787 19.3796 20.8188 19.1916 20.8214 19.0012V1.86117C20.8188 1.67075 20.7787 1.4827 20.7034 1.30778C20.6281 1.13285 20.5191 0.974473 20.3826 0.841682C20.2461 0.708891 20.0848 0.60429 19.9078 0.533854C19.7309 0.463418 19.5418 0.428525 19.3514 0.43117ZM6.97141 17.1712H3.97141V8.17117H6.97141V17.1712ZM5.47141 6.91117C5.05767 6.91117 4.66088 6.74681 4.36832 6.45426C4.07576 6.1617 3.91141 5.76491 3.91141 5.35117C3.91141 4.93743 4.07576 4.54064 4.36832 4.24808C4.66088 3.95553 5.05767 3.79117 5.47141 3.79117C5.6911 3.76625 5.91358 3.78802 6.12428 3.85505C6.33498 3.92208 6.52915 4.03286 6.69406 4.18013C6.85898 4.3274 6.99093 4.50785 7.08128 4.70965C7.17162 4.91146 7.21832 5.13007 7.21832 5.35117C7.21832 5.57227 7.17162 5.79088 7.08128 5.99269C6.99093 6.19449 6.85898 6.37494 6.69406 6.52221C6.52915 6.66948 6.33498 6.78026 6.12428 6.84729C5.91358 6.91432 5.6911 6.93608 5.47141 6.91117ZM17.7914 17.1712H14.7914V12.3412C14.7914 11.1312 14.3614 10.3412 13.2714 10.3412C12.9341 10.3436 12.6056 10.4494 12.3302 10.6443C12.0549 10.8392 11.8459 11.1138 11.7314 11.4312C11.6532 11.6662 11.6192 11.9137 11.6314 12.1612V17.1612H8.63141C8.63141 17.1612 8.63141 8.98117 8.63141 8.16117H11.6314V9.43117C11.9039 8.95828 12.3003 8.56869 12.7778 8.30437C13.2554 8.04005 13.796 7.91102 14.3414 7.93117C16.3414 7.93117 17.7914 9.22117 17.7914 11.9912V17.1712Z" fill="black"/>
</svg>
