<svg width="25" height="25" viewBox="0 0 25 25" fill="none" xmlns="http://www.w3.org/2000/svg">
<path d="M19.0079 18.4494H16.3429V14.2724C16.3429 13.2764 16.3229 11.9944 14.9529 11.9944C13.5639 11.9944 13.3519 13.0784 13.3519 14.1994V18.4494H10.6859V9.86035H13.2459V11.0304H13.2809C13.6389 10.3564 14.5089 9.64335 15.8089 9.64335C18.5089 9.64335 19.0089 11.4214 19.0089 13.7344V18.4494H19.0079ZM7.67585 8.68535C7.47241 8.68562 7.27091 8.64572 7.08291 8.56796C6.89492 8.49019 6.72412 8.37609 6.58031 8.23219C6.4365 8.08828 6.3225 7.91741 6.24486 7.72936C6.16722 7.54132 6.12746 7.3398 6.12785 7.13635C6.12805 6.83019 6.21903 6.53096 6.38929 6.2765C6.55955 6.02204 6.80145 5.82379 7.08438 5.7068C7.36732 5.58982 7.67859 5.55937 7.97883 5.61929C8.27908 5.67922 8.55481 5.82683 8.77116 6.04346C8.98751 6.26009 9.13477 6.53601 9.1943 6.83633C9.25384 7.13665 9.22298 7.44789 9.10563 7.73067C8.98829 8.01345 8.78972 8.25509 8.53504 8.42502C8.28036 8.59495 7.98102 8.68555 7.67485 8.68535H7.67585ZM9.01185 18.4494H6.33885V9.86035H9.01285V18.4494H9.01185ZM20.3429 3.11035H5.00185C4.26585 3.11035 3.67285 3.69035 3.67285 4.40735V19.8134C3.67285 20.5303 4.26685 21.1104 5.00085 21.1104H20.3389C21.0729 21.1104 21.6729 20.5303 21.6729 19.8134V4.40735C21.6729 3.69035 21.0729 3.11035 20.3389 3.11035H20.3419H20.3429Z" fill="#173963"/>
</svg>
