<svg width="30" height="39" viewBox="0 0 30 39" fill="none" xmlns="http://www.w3.org/2000/svg">
<path fill-rule="evenodd" clip-rule="evenodd" d="M5.64336 9.90387C4.72526 10.3852 4.9964 11.5927 5.00425 12.7995C5.01163 13.936 5.07007 15.2006 5.00975 16.3213C4.9345 17.6146 4.95771 19.5485 5.03798 20.8361C5.08029 21.5149 5.17047 22.1823 5.29286 22.8333C5.41852 23.5013 5.65557 24.0951 5.75094 24.7197C5.95106 25.0791 6.16049 25.757 6.35493 26.1705C6.58624 26.6623 6.81549 27.1127 7.09715 27.5805C7.69455 28.5731 8.72845 29.7033 8.88155 30.054C9.17197 30.2082 10.0008 31.0707 10.4678 31.4381C11.0366 31.8858 11.5888 32.271 12.2695 32.6639C12.9363 33.0489 13.5832 33.3379 14.2737 33.6882C15.2386 34.1779 15.5561 33.8641 16.4223 33.4303C21.6656 30.8043 22.1832 28.4672 22.9405 27.9044C23.1 27.4425 23.4857 26.8489 23.7203 26.3694C23.9704 25.8583 24.1593 25.4088 24.3525 24.8504C24.7463 23.7121 25.0237 22.5727 25.1146 21.2999L25.1614 16.3213C25.0995 15.1704 25.1599 13.8692 25.1675 12.7019C25.1752 11.5285 25.433 10.3633 24.5269 9.9052C23.1003 9.59998 21.9632 10.1284 19.0805 9.337C17.0465 8.77858 15.7004 7.49826 15.0418 7.5208C14.1449 7.55157 12.8651 9.45631 8.49201 9.78916C7.54828 9.86102 6.55668 9.71342 5.64342 9.90393L5.64336 9.90387Z" fill="#DAFFED"/>
<path fill-rule="evenodd" clip-rule="evenodd" d="M11.7328 20.8802C11.6708 22.1171 10.8311 23.8203 11.8749 24.469C12.9189 25.1178 14.2572 23.5193 15.0535 23.4727C15.8025 23.4288 17.1884 25.0591 18.2453 24.5051C19.3838 23.9083 18.5033 22.0467 18.4494 20.8817C18.7163 20.7017 19.9725 19.5011 20.1932 19.2202C20.5834 18.7228 20.8017 17.5879 19.0936 17.3383C16.9162 17.0202 17.2328 17.2704 16.7418 16.2704C16.3636 15.5001 16.0924 14.3995 15.137 14.3689C14.1246 14.3364 13.8807 15.3814 13.5047 16.1399C12.9245 17.3103 13.3498 17.0322 11.1454 17.3312C9.52016 17.5516 9.5172 18.5684 9.94578 19.1653C10.1301 19.4221 11.4813 20.7077 11.7327 20.8803L11.7328 20.8802Z" fill="#4EDAA4"/>
<path fill-rule="evenodd" clip-rule="evenodd" d="M1.06632 24.6788C1.15003 25.1124 1.34362 25.691 1.49261 26.1511C1.66468 26.6826 1.848 27.1179 2.02824 27.5697C2.21856 28.0465 3.02412 29.7738 3.31364 29.9978C3.56126 30.6061 4.63941 32.0039 5.04957 32.4629L5.72995 33.2482C6.37292 33.9162 7.91895 35.2832 8.75346 35.7942L12.3355 37.7816C13.0027 38.1152 13.5619 38.3844 14.2231 38.7276C15.4394 39.3588 16.2309 38.5861 18.1655 37.6188C18.7924 37.3053 19.4306 37.03 20.0416 36.6613C22.5794 35.1302 24.2212 33.7151 25.9406 31.4213C26.7427 30.3512 27.5008 29.0884 28.0342 27.8024C28.8261 26.5923 29.6492 22.3715 29.6985 20.7182C29.7991 17.3433 29.6953 12.567 29.6953 8.98977L29.6892 6.45396C29.6834 6.42368 29.6772 6.3986 29.6697 6.37103L29.5662 6.15623C29.4703 4.94094 27.2261 5.27681 25.5915 5.27681C23.2593 5.27681 20.923 5.56523 19.0244 4.41794L17.933 3.65288C17.3721 3.16052 16.8828 2.61716 16.4843 1.97491C16.149 1.43451 16.0521 0.869322 15.2907 0.782227H14.8779C14.0146 0.887213 13.9952 1.69876 13.2517 2.61039C13.1496 2.73562 13.0797 2.80809 12.98 2.92492C12.5139 3.47125 11.8836 3.97243 11.2718 4.34342C9.23801 5.57648 7.19468 5.27687 4.6816 5.27687C3.38502 5.27687 1.33087 5.02834 0.786291 5.68805C0.554802 5.9685 0.609139 5.88545 0.675019 6.15629C0.382787 6.27862 0.465954 6.11108 0.479251 7.23069C0.521257 10.7638 0.267404 20.2016 0.689586 22.6552L1.06632 24.6791V24.6788ZM8.88365 30.0547C8.73055 29.704 7.69671 28.5738 7.09924 27.5812C6.81759 27.1133 6.58834 26.6631 6.35703 26.1711C6.16259 25.7577 5.95316 25.0798 5.75304 24.7204C5.65766 24.0958 5.42061 23.502 5.29496 22.8339C5.17256 22.183 5.08239 21.5156 5.04008 20.8368C4.95981 19.5492 4.9366 17.6153 5.01185 16.3219C5.07211 15.2012 5.01366 13.9367 5.00635 12.8002C4.99849 11.5933 4.72741 10.3858 5.64545 9.90454C6.55866 9.71403 7.55026 9.86163 8.49404 9.78977C12.8672 9.45692 14.147 7.55218 15.0439 7.52141C15.7024 7.49887 17.0485 8.77919 19.0825 9.33761C21.9652 10.129 23.1024 9.60058 24.5289 9.90581C25.435 10.364 25.1772 11.5291 25.1696 12.7025C25.1619 13.8698 25.1015 15.1711 25.1634 16.3219L25.1167 21.3005C25.0257 22.5733 24.7483 23.7127 24.3545 24.851C24.1613 25.4094 23.9725 25.8589 23.7224 26.37C23.4877 26.8495 23.1019 27.4431 22.9425 27.905C22.1852 28.4678 21.6676 30.805 16.4243 33.4309C15.558 33.8647 15.2405 34.1785 14.2757 33.6888C13.5852 33.3385 12.9383 33.0496 12.2715 32.6646C11.5909 32.2716 11.0386 31.8864 10.4698 31.4387C10.0028 31.0713 9.17401 30.2088 8.88359 30.0546L8.88365 30.0547Z" fill="url(#paint0_linear_14118_68008)"/>
<defs>
<linearGradient id="paint0_linear_14118_68008" x1="15.0919" y1="0.782227" x2="15.0919" y2="38.9567" gradientUnits="userSpaceOnUse">
<stop stop-color="#0D458A"/>
<stop offset="1" stop-color="#3AA64C"/>
</linearGradient>
</defs>
</svg>
