<svg width="14" height="14" viewBox="0 0 14 14" fill="none" xmlns="http://www.w3.org/2000/svg">
<path d="M6.99967 13.515C3.31767 13.515 0.333008 10.5303 0.333008 6.84831C0.333008 3.16631 3.31767 0.181641 6.99967 0.181641C10.6817 0.181641 13.6663 3.16631 13.6663 6.84831C13.6663 10.5303 10.6817 13.515 6.99967 13.515ZM6.99967 12.1816C8.41416 12.1816 9.77072 11.6197 10.7709 10.6195C11.7711 9.61935 12.333 8.2628 12.333 6.84831C12.333 5.43382 11.7711 4.07727 10.7709 3.07707C9.77072 2.07688 8.41416 1.51497 6.99967 1.51497C5.58519 1.51497 4.22863 2.07688 3.22844 3.07707C2.22824 4.07727 1.66634 5.43382 1.66634 6.84831C1.66634 8.2628 2.22824 9.61935 3.22844 10.6195C4.22863 11.6197 5.58519 12.1816 6.99967 12.1816ZM6.33501 9.51497L3.50634 6.68631L4.44901 5.74364L6.33501 7.62964L10.1057 3.85831L11.049 4.80097L6.33501 9.51497Z" fill="#3AA64C"/>
</svg>
