<svg width="17" height="17" viewBox="0 0 17 17" fill="none" xmlns="http://www.w3.org/2000/svg">
<path d="M8.73307 16.5311C4.3607 16.5311 0.816406 12.9868 0.816406 8.61442C0.816406 4.24205 4.3607 0.697754 8.73307 0.697754C13.1054 0.697754 16.6497 4.24205 16.6497 8.61442C16.6497 12.9868 13.1054 16.5311 8.73307 16.5311ZM8.73307 14.9478C10.4128 14.9478 12.0237 14.2805 13.2114 13.0928C14.3991 11.905 15.0664 10.2941 15.0664 8.61442C15.0664 6.93472 14.3991 5.32381 13.2114 4.13608C12.0237 2.94835 10.4128 2.28109 8.73307 2.28109C7.05337 2.28109 5.44246 2.94835 4.25473 4.13608C3.067 5.32381 2.39974 6.93472 2.39974 8.61442C2.39974 10.2941 3.067 11.905 4.25473 13.0928C5.44246 14.2805 7.05337 14.9478 8.73307 14.9478ZM7.94378 11.7811L4.58474 8.42205L5.70416 7.30263L7.94378 9.54225L12.4214 5.0638L13.5417 6.18321L7.94378 11.7811Z" fill="#3AA64C"/>
</svg>
