<svg width="71" height="32" viewBox="0 0 71 32" fill="none" xmlns="http://www.w3.org/2000/svg">
<path d="M1.33203 3.37824L2.37156 1.80981L3.4111 3.37824L4.45063 16.0566L5.25916 18.5399L6.29868 15.2723L7.22271 18.5399V19.5856L8.49325 18.5399L9.30177 17.625L9.99479 21.154L11.1498 17.625L12.6514 19.5856L13.9219 16.8408L15.6544 18.5399V20.3698L17.5025 27.6893V25.8594L18.08 27.0357L19.4661 22.3304H20.5056L21.0831 25.0752V27.6893L22.7001 23.2453L24.7792 25.8594L25.1835 24.5524M25.5877 23.2453L25.1835 24.5524M25.1835 24.5524L27.7823 23.8988H29.0528L29.7458 23.2453L31.2474 24.5524L32.1714 25.8594V27.6893L32.8644 29.5191L33.7885 30.3033L34.366 28.4735V24.5524V23.8988L35.4055 25.0752L35.983 24.5524L37.0225 25.0752V23.2453L38.4086 25.0752L39.1016 25.8594L39.7946 25.0752L41.4117 25.8594V23.2453L42.6822 22.3304H43.2597L43.8372 20.3698L44.8768 23.2453L45.6853 25.8594V23.2453L46.8403 22.3304V21.154L48.3419 23.8988L49.6124 24.5524V25.8594L50.6519 28.4735V29.5191L51.807 30.3033V28.4735L52.3845 25.0752L53.655 27.0357V25.8594L54.348 25.0752V25.8594L55.2721 24.5524L56.4271 23.2453H57.8131L58.6216 23.8988L59.1992 25.8594V24.5524L60.1232 25.0752L61.5092 25.8594V23.2453V20.3698L62.4333 21.154L63.1263 19.5856H63.8193L65.2053 20.3698H66.8224H67.8619H68.7859V18.5399L69.5945 16.8408V15.2723V13.4425" stroke="#34E36F"/>
</svg>
