<svg width="53" height="55" viewBox="0 0 53 55" fill="none" xmlns="http://www.w3.org/2000/svg">
<path fill-rule="evenodd" clip-rule="evenodd" d="M25.8112 45.3963C25.5961 44.3789 25.3073 43.6249 25.1643 42.482C25.015 41.2883 25.0981 40.3121 25.1822 39.1902C25.2747 37.7999 26.1693 34.9925 26.8667 34.2191C27.1363 33.4428 28.3916 31.9026 28.8402 31.4779C29.5984 30.76 30.4696 29.996 31.3651 29.5126C32.0216 28.4638 36.2304 27.6318 36.2704 27.5271C36.2838 27.492 36.3231 27.5014 36.3463 27.4838C36.3104 25.9466 36.5955 23.0755 36.1448 21.9836C35.4547 20.3115 34.0137 20.6389 31.8048 20.6269L27.2696 20.626H9.33994L7.05094 20.6334C7.05094 27.8734 7.06874 35.1156 7.05033 42.3552C7.04577 44.1489 7.52352 45.3218 9.34341 45.3814C14.5401 45.5517 20.5569 45.1394 25.8112 45.3963Z" fill="#0D458A"/>
<path fill-rule="evenodd" clip-rule="evenodd" d="M28.5126 49.9483C28.2873 49.5878 28.0123 49.312 27.7415 48.9486C27.4849 48.6043 27.2667 48.2792 27.0203 47.8772C26.5111 47.0463 26.2722 46.2382 25.8112 45.396C20.557 45.1391 14.5401 45.5513 9.34337 45.3811C7.52349 45.3215 7.04574 44.1485 7.05029 42.3549C7.0687 35.1152 7.0509 27.873 7.0509 20.6331L4.80477 20.6278C3.57136 20.6289 2.08585 20.4699 1.324 20.9441C0.369045 21.5385 0.267664 22.2577 0.269567 23.792L0.268955 47.1014C0.264471 47.8751 0.251832 48.1934 0.548091 48.7207C1.42525 50.2818 3.11657 49.9483 5.12128 49.9483C12.9185 49.9483 20.7156 49.9483 28.5127 49.9483H28.5126Z" fill="#0D458A"/>
<path fill-rule="evenodd" clip-rule="evenodd" d="M4.80464 20.6278L7.05077 20.6331L9.33978 20.6257C9.33978 18.5874 9.34032 16.5491 9.33971 14.5108C9.3391 11.993 9.83098 10.2102 11.0863 8.55813C11.3154 8.25651 11.5487 7.94333 11.7903 7.68016C16.6241 2.41525 27.2751 4.73857 27.2694 14.4053C27.2682 16.4788 27.2694 18.5522 27.2694 20.6256L31.8045 20.6265C31.8045 13.4622 32.7158 10.4013 28.4745 4.97361C28.1402 4.54573 27.8584 4.23208 27.4492 3.88948C27.0339 3.54178 26.7141 3.2848 26.2752 2.95409C25.8067 2.60089 25.5054 2.43455 24.9951 2.12484C23.2414 1.06041 21.1898 0.483795 19.0952 0.37793H17.6794C15.0401 0.509819 12.4232 1.37909 10.3337 2.95409C7.15392 5.35079 5.48373 8.25447 4.8768 12.2629C4.58884 14.1646 4.80444 18.3598 4.80444 20.6278L4.80464 20.6278Z" fill="url(#paint0_linear_14118_55922)"/>
<path fill-rule="evenodd" clip-rule="evenodd" d="M25.1822 39.1901C25.0981 40.3119 25.015 41.2881 25.1643 42.4819C25.3073 43.6248 25.5961 44.3787 25.8112 45.3961C26.2722 46.2383 26.5111 47.0464 27.0203 47.8773C27.2667 48.2793 27.485 48.6044 27.7415 48.9487C28.0123 49.3121 28.2873 49.5879 28.5126 49.9485C29.6579 51.3653 31.8365 52.697 33.4938 53.4273C34.4926 53.8675 35.5678 54.1043 36.8483 54.2917C37.117 54.331 37.5695 54.3626 38.0781 54.3782H39.3941C39.9821 54.3582 40.5045 54.3077 40.7697 54.2139C42.5987 53.9001 44.0248 53.3625 45.3242 52.5852C46.4174 51.9358 48.7434 50.1633 49.2532 49.1047C49.6103 48.7713 50.1332 47.8709 50.4287 47.3731C50.7889 46.7666 51.1168 45.9677 51.3568 45.2427C51.962 43.415 52.0548 42.3746 52.0548 39.9889C52.0548 37.0106 50.2222 33.402 48.1265 31.3065C47.1813 30.3612 45.6736 29.2517 44.4266 28.6783C43.1719 28.1012 41.1012 27.3782 39.3448 27.3782C38.8343 27.3782 38.323 27.3739 37.8129 27.3746C37.1614 27.3755 37.0009 27.4837 36.3463 27.4837C36.3231 27.5013 36.2839 27.4919 36.2704 27.527C36.2305 27.6317 32.0216 28.4637 31.3651 29.5125C30.4696 29.9959 29.5984 30.7599 28.8402 31.4778C28.3916 31.9025 27.1363 33.4427 26.8667 34.219C26.1692 34.9924 25.2747 37.7998 25.1822 39.1901V39.1901ZM39.3925 37.7597C39.4133 37.7393 39.4441 37.6789 39.4536 37.6974C39.4629 37.7156 39.5004 37.6498 39.513 37.6353L39.8743 37.1283C40.0071 36.9208 40.1334 36.7296 40.2896 36.4911C40.5119 36.1517 40.9065 35.4599 41.1915 35.1853L44.8928 37.5777C44.7136 38.0274 44.4556 38.2938 44.1921 38.7095C43.9732 39.0549 43.7483 39.4068 43.4819 39.7992C42.9813 40.537 42.5012 41.2478 41.9836 42.0262C41.6175 42.6775 41.145 43.2733 40.733 43.8977C40.2249 44.6675 39.9828 45.0853 38.8717 45.3319L38.363 45.3082L38.417 45.3643C37.5129 45.3012 36.4083 44.5883 35.7887 44.2754C34.8938 43.8235 33.951 43.3687 33.0788 42.9155C33.2438 42.3118 33.7979 41.5943 33.8614 41.0716C34.1702 40.8296 34.2711 40.4598 34.5058 39.9847C34.6894 39.6133 34.8638 39.2132 35.0712 38.8755L37.7828 40.206C38.3149 39.4396 38.9124 38.5658 39.3925 37.7595V37.7597Z" fill="url(#paint1_linear_14118_55922)"/>
<path fill-rule="evenodd" clip-rule="evenodd" d="M18.3047 43.1363L20.5538 43.1267L20.5546 35.8157C20.9233 35.4525 21.1861 35.3887 21.4874 35.0958C23.9063 32.7451 22.7935 28.0847 19.2544 27.502C19.1727 27.6016 18.3199 27.9845 18.1624 28.0779C17.1352 28.6864 16.3054 29.8675 16.1074 31.1925C15.6268 34.4093 18.2281 35.5246 18.3047 35.9213V43.1364V43.1363Z" fill="url(#paint2_linear_14118_55922)"/>
<path fill-rule="evenodd" clip-rule="evenodd" d="M39.3924 37.7598C38.9123 38.566 38.3148 39.4398 37.7827 40.2062L35.0711 38.8758C34.8637 39.2135 34.6893 39.6135 34.5057 39.985C34.271 40.46 34.1701 40.8298 33.8613 41.0719C33.7978 41.5946 33.2437 42.3121 33.0787 42.9157C33.9509 43.369 34.8937 43.8237 35.7885 44.2757C36.5172 44.6436 37.9162 45.5646 38.8716 45.3321C39.9827 45.0856 40.2247 44.6678 40.7329 43.8979C41.1449 43.2736 41.6174 42.6778 41.9835 42.0265C42.5011 41.248 42.9812 40.5372 43.4818 39.7995C43.7482 39.407 43.9731 39.0552 44.192 38.7098C44.4555 38.2941 44.7135 38.0277 44.8927 37.578L41.1914 35.1855C40.9064 35.4601 40.5118 36.1519 40.2895 36.4913C40.1333 36.7298 40.007 36.9211 39.8742 37.1286L39.5128 37.6355C39.5003 37.6501 39.4627 37.7158 39.4535 37.6976C39.444 37.6791 39.4131 37.7396 39.3924 37.7599V37.7598Z" fill="#FEFFFF"/>
<path fill-rule="evenodd" clip-rule="evenodd" d="M18.3047 43.1363V35.9212C18.2282 35.5245 15.6269 34.4092 16.1075 31.1924C16.3055 29.8674 17.1353 28.6863 18.1624 28.0778C18.32 27.9844 19.1727 27.6015 19.2545 27.5018C17.0174 26.5584 12.4584 29.3396 14.1534 33.6404C14.3285 34.0848 14.6851 34.6144 14.9342 34.8638C15.3873 35.3176 15.986 35.7039 16.0383 35.9211V43.0583C16.6163 43.2695 17.6582 43.1574 18.3047 43.1361V43.1363Z" fill="#4EDAA4"/>
<defs>
<linearGradient id="paint0_linear_14118_55922" x1="18.3069" y1="0.37793" x2="18.3069" y2="20.6331" gradientUnits="userSpaceOnUse">
<stop stop-color="#0D458A"/>
<stop offset="1" stop-color="#3AA64C"/>
</linearGradient>
<linearGradient id="paint1_linear_14118_55922" x1="38.5684" y1="27.3745" x2="38.5684" y2="54.3782" gradientUnits="userSpaceOnUse">
<stop stop-color="#0D458A"/>
<stop offset="1" stop-color="#3AA64C"/>
</linearGradient>
<linearGradient id="paint2_linear_14118_55922" x1="19.4133" y1="27.502" x2="19.4133" y2="43.1364" gradientUnits="userSpaceOnUse">
<stop stop-color="#0D458A"/>
<stop offset="1" stop-color="#3AA64C"/>
</linearGradient>
</defs>
</svg>
