<svg width="19" height="19" viewBox="0 0 19 19" fill="none" xmlns="http://www.w3.org/2000/svg">
<path d="M14.0469 5.87598H16.2969C16.4958 5.87598 16.6866 5.95499 16.8272 6.09565C16.9679 6.2363 17.0469 6.42706 17.0469 6.62598V15.626C17.0469 15.8249 16.9679 16.0157 16.8272 16.1563C16.6866 16.297 16.4958 16.376 16.2969 16.376H2.79688C2.59796 16.376 2.4072 16.297 2.26654 16.1563C2.12589 16.0157 2.04688 15.8249 2.04688 15.626V3.62598C2.04688 3.42706 2.12589 3.2363 2.26654 3.09565C2.4072 2.95499 2.59796 2.87598 2.79688 2.87598H14.0469V5.87598ZM3.54688 7.37598V14.876H15.5469V7.37598H3.54688ZM3.54688 4.37598V5.87598H12.5469V4.37598H3.54688ZM11.7969 10.376H14.0469V11.876H11.7969V10.376Z" fill="#3AA64C"/>
</svg>
