<svg width="19" height="19" viewBox="0 0 19 19" fill="none" xmlns="http://www.w3.org/2000/svg">
<path d="M2.04004 8.204L4.04004 6.204L9.54004 11.704L13.04 8.204L16.04 11.204V2.104H2.04004V8.204ZM2.04004 11.033V16.104H5.14004L8.12604 13.119L4.04004 9.033L2.04004 11.033ZM7.96904 16.104H16.04V14.033L13.04 11.033L7.96904 16.104ZM1.04004 0.104004H17.04C17.3053 0.104004 17.5596 0.209361 17.7471 0.396897C17.9347 0.584433 18.04 0.838787 18.04 1.104V17.104C18.04 17.3692 17.9347 17.6236 17.7471 17.8111C17.5596 17.9986 17.3053 18.104 17.04 18.104H1.04004C0.774823 18.104 0.520469 17.9986 0.332932 17.8111C0.145396 17.6236 0.0400391 17.3692 0.0400391 17.104V1.104C0.0400391 0.838787 0.145396 0.584433 0.332932 0.396897C0.520469 0.209361 0.774823 0.104004 1.04004 0.104004ZM12.54 7.104C12.1422 7.104 11.7607 6.94597 11.4794 6.66466C11.1981 6.38336 11.04 6.00183 11.04 5.604C11.04 5.20618 11.1981 4.82465 11.4794 4.54334C11.7607 4.26204 12.1422 4.104 12.54 4.104C12.9379 4.104 13.3194 4.26204 13.6007 4.54334C13.882 4.82465 14.04 5.20618 14.04 5.604C14.04 6.00183 13.882 6.38336 13.6007 6.66466C13.3194 6.94597 12.9379 7.104 12.54 7.104Z" fill="black"/>
</svg>
