<svg width="36" height="35" viewBox="0 0 36 35" fill="none" xmlns="http://www.w3.org/2000/svg">
<path fill-rule="evenodd" clip-rule="evenodd" d="M2.92685 18.897C2.88382 20.7186 4.17897 23.8414 5.2537 25.4133C5.63828 25.9758 6.20562 26.6089 6.52458 27.1088C6.76882 26.916 7.54426 25.6268 8.50154 24.6632C10.8224 22.327 14.1886 20.7501 17.8893 20.7286C20.6666 20.7125 22.9877 21.5294 24.8736 22.6374C26.2898 23.4695 27.4786 24.5457 28.4296 25.7811C28.7749 26.2298 29.0167 26.6808 29.355 27.0835C29.8483 26.7385 30.5345 25.6588 30.8992 25.0618C31.376 24.2813 31.6412 23.5502 32.0818 22.7388C32.2903 21.6135 32.7274 20.6559 32.9016 19.3039C33.3576 15.7668 32.4845 12.0531 30.5206 9.29481C29.2611 7.52599 28.0578 6.33177 26.2278 5.13368C20.8729 1.62773 13.2912 1.97976 8.6147 5.84663L7.52237 6.81722C7.16251 7.17089 6.76584 7.49437 6.44006 7.89939C3.47581 11.5851 2.88473 14.0395 2.92685 18.8971V18.897Z" fill="white"/>
<path fill-rule="evenodd" clip-rule="evenodd" d="M2.92671 18.897C2.8846 14.0394 3.47568 11.585 6.43993 7.89928C6.76571 7.49426 7.16238 7.17078 7.52224 6.81711L8.61457 5.84652C13.2911 1.97965 20.8728 1.62762 26.2277 5.13357C28.0576 6.33167 29.261 7.52595 30.5204 9.2947C32.4845 12.053 33.3576 15.7666 32.9015 19.3038C32.7272 20.6558 32.2902 21.6134 32.0817 22.7387C31.641 23.5501 31.3759 24.2812 30.899 25.0617C30.5344 25.6586 29.8483 26.7385 29.3549 27.0834C29.0166 26.6807 28.7749 26.2297 28.4295 25.781C27.4785 24.5456 26.2897 23.4694 24.8735 22.6373C22.9876 21.5293 20.6665 20.7124 17.8891 20.7285C14.1884 20.75 10.8223 22.3268 8.50141 24.6631C7.54413 25.6267 6.76869 26.9159 6.52445 27.1087C6.20549 26.6088 5.63815 25.9758 5.25357 25.4132C4.17884 23.8412 2.88369 20.7186 2.92671 18.8969V18.897ZM34.8785 22.5363C35.0419 22.4436 35.0751 22.0845 35.1497 21.7841C36.9698 14.4604 34.159 7.56123 28.0606 3.24845C22.6114 -0.605197 14.4321 -0.827551 8.90674 2.57429C7.95888 3.15779 7.70767 3.28806 6.76349 4.04287C4.94104 5.4998 3.07088 7.65921 2.02104 9.79053C1.31964 11.2143 -0.0850058 15.0483 0.381805 16.228C0.194759 16.3045 0.147136 16.0786 0.166277 17.0382C0.200271 18.7441 0.260604 19.9443 0.694875 21.6202L1.17753 23.1838C2.80398 27.8518 6.60776 31.743 11.2795 33.568C16.4599 35.5917 21.5602 35.1802 26.4364 32.709C29.9784 30.9139 31.7661 28.6469 33.6733 25.5303C34.0637 24.8924 34.7472 23.3488 34.8786 22.5363H34.8785Z" fill="url(#paint0_linear_14118_56158)"/>
<path fill-rule="evenodd" clip-rule="evenodd" d="M12.7511 13.5878C13.0116 16.0172 15.1098 18.074 17.7847 18.1492C19.2602 18.1907 20.653 17.5696 21.3801 16.8863C22.0337 16.2722 23.1368 15.0569 23.0543 13.7548C23.4883 13.2135 23.3483 10.3356 22.1942 8.76728C20.2297 6.09768 16.1011 5.86179 13.8274 8.59604C13.3927 9.11878 13.0086 9.81514 12.8137 10.6635C12.6683 11.2962 12.5956 13.1248 12.7512 13.5878L12.7511 13.5878Z" fill="#3AA64C"/>
<defs>
<linearGradient id="paint0_linear_14118_56158" x1="17.9296" y1="0.180176" x2="17.9296" y2="34.8576" gradientUnits="userSpaceOnUse">
<stop stop-color="#3AA64C"/>
<stop offset="1" stop-color="#0D458A"/>
</linearGradient>
</defs>
</svg>
