<svg width="11" height="10" viewBox="0 0 11 10" fill="none" xmlns="http://www.w3.org/2000/svg">
<path d="M5.49163 9.35338C2.95697 9.35338 0.902344 7.29876 0.902344 4.76409C0.902344 2.22943 2.95697 0.174805 5.49163 0.174805C8.0263 0.174805 10.0809 2.22943 10.0809 4.76409C10.0809 7.29876 8.0263 9.35338 5.49163 9.35338ZM5.49163 8.43553C6.46536 8.43553 7.3992 8.04872 8.08773 7.36019C8.77626 6.67166 9.16307 5.73782 9.16307 4.76409C9.16307 3.79037 8.77626 2.85653 8.08773 2.168C7.3992 1.47947 6.46536 1.09266 5.49163 1.09266C4.51791 1.09266 3.58407 1.47947 2.89554 2.168C2.20701 2.85653 1.8202 3.79037 1.8202 4.76409C1.8202 5.73782 2.20701 6.67166 2.89554 7.36019C3.58407 8.04872 4.51791 8.43553 5.49163 8.43553ZM5.0327 6.14088H5.95056V7.05874H5.0327V6.14088ZM5.95056 5.38594V5.68195H5.0327V4.99356C5.0327 4.87184 5.08106 4.75511 5.16712 4.66905C5.25319 4.58298 5.36992 4.53463 5.49163 4.53463C5.62201 4.53462 5.74969 4.49759 5.85984 4.42785C5.96999 4.35811 6.05807 4.25852 6.11384 4.14068C6.1696 4.02283 6.19075 3.89158 6.17483 3.76218C6.15891 3.63278 6.10658 3.51057 6.02391 3.40975C5.94125 3.30894 5.83166 3.23367 5.70789 3.19271C5.58412 3.15174 5.45126 3.14677 5.32478 3.17836C5.19829 3.20995 5.08338 3.27681 4.99341 3.37116C4.90343 3.46551 4.8421 3.58347 4.81655 3.71131L3.91613 3.53095C3.97195 3.25196 4.10085 2.9928 4.28966 2.77995C4.47847 2.56711 4.72041 2.40822 4.99075 2.31953C5.2611 2.23083 5.55014 2.21552 5.82834 2.27515C6.10654 2.33477 6.36392 2.46721 6.57416 2.65891C6.78441 2.85061 6.93998 3.0947 7.02497 3.36623C7.10996 3.63775 7.12132 3.92698 7.0579 4.20434C6.99447 4.4817 6.85853 4.73725 6.66398 4.94485C6.46942 5.15245 6.22323 5.30467 5.95056 5.38594Z" fill="#EAAC0C"/>
</svg>
