<svg width="50" height="47" viewBox="0 0 50 47" fill="none" xmlns="http://www.w3.org/2000/svg">
<g clip-path="url(#clip0_14118_61527)">
<path fill-rule="evenodd" clip-rule="evenodd" d="M24.3348 29.8373C24.0644 29.6309 24.179 28.9154 24.179 28.5497C23.5594 28.5497 22.533 28.6972 22.0476 28.4719C20.9734 28.3671 20.7989 27.1247 21.5493 26.6082C22.6794 25.8301 27.0738 27.2753 27.402 25.6186C27.8324 23.4459 24.0776 24.9421 22.4465 23.7759C20.8554 22.6381 20.6145 20.4946 21.9551 19.0836C22.2852 18.7362 22.4081 18.612 22.9182 18.3661C23.662 18.0076 24.1671 18.2156 24.2638 17.9042C24.2638 17.2318 24.1557 16.5008 24.7353 16.1493C25.4146 15.7375 26.1319 16.0884 26.3112 16.7396C26.5835 16.9447 26.4681 17.6611 26.4681 18.0245C26.9164 18.0245 28.3992 17.9064 28.6503 18.1181C29.7299 18.2554 29.8228 19.5481 29.0383 20.0038C27.8257 20.7083 23.5659 19.3182 23.2443 20.9544C22.813 23.1483 26.5049 21.5842 28.1897 22.8064C29.9207 24.0621 29.9251 26.3061 28.6975 27.4973C28.3585 27.8262 28.2264 27.9643 27.7266 28.206C27.478 28.3262 27.3425 28.3722 27.0627 28.4254C26.6172 28.51 26.5695 28.3953 26.3833 28.6701C26.3833 29.3448 26.4881 30.0693 25.9094 30.4227C25.2309 30.8371 24.519 30.4835 24.3348 29.8373ZM29.8458 14.9392L41.194 14.9326C41.5761 15.0515 41.7264 17.2369 44.3569 17.915L44.3598 28.6591C43.1821 28.948 42.3027 29.6787 41.7677 30.6077C41.436 31.1836 41.5143 31.6414 40.9956 31.6414L29.9396 31.6377C30.4433 31.0889 31.8495 30.6844 33.3255 28.3422C36.2383 23.72 34.7234 17.9781 30.4025 15.3428C30.3126 15.2879 30.2384 15.2496 30.157 15.1936C29.8473 14.9803 30.2868 15.302 30.033 15.1038C29.9134 15.0103 29.9315 15.0239 29.8458 14.939V14.9392ZM17.114 31.6274L9.45307 31.638C9.16409 31.4427 9.08359 30.9724 8.91452 30.6714C8.36369 29.6909 7.51303 28.9595 6.29173 28.6575L6.27488 19.8569L6.27971 17.9151C8.92937 17.237 9.05342 15.0563 9.45307 14.9326L20.8 14.9331L20.3082 15.3084C19.1 16.0511 18.1618 16.9329 17.3474 18.1566C15.0358 21.6298 15.3429 26.1214 18.0404 29.3988C18.9699 30.5281 20.5203 31.2993 20.8543 31.6128L17.114 31.6273V31.6274ZM5.31177 15.9488C4.78841 16.1947 4.45317 15.993 4.23737 16.672C4.07286 17.1897 4.16888 28.1284 4.16488 28.9644C4.15563 30.8799 4.70736 30.2943 5.97333 30.7326C6.99996 31.088 7.12146 31.7113 7.37206 32.8672C7.6208 34.0145 8.94462 33.7258 10.1475 33.7258L35.2426 33.6926C37.58 33.6926 40.2184 33.8039 42.5171 33.6676C43.7195 33.4073 42.9011 32.0179 44.1124 31.0574C45.2726 30.1374 46.4893 31.2239 46.4854 29.063C46.4802 26.1917 46.4825 23.3202 46.4825 20.4488C46.4825 19.6363 46.6409 16.9241 46.2797 16.4083C45.7495 15.6511 44.2566 16.28 43.524 14.8221C43.2762 14.329 43.3727 13.5449 43.0173 13.1687C42.6147 12.7425 41.89 12.8492 41.1941 12.85L10.8418 12.8501C9.12639 12.8501 7.61962 12.5318 7.36978 13.7073C7.18801 14.5626 6.94674 15.9661 5.31177 15.9488Z" fill="#3AA64C"/>
<path fill-rule="evenodd" clip-rule="evenodd" d="M5.31241 15.9489C6.94738 15.9662 7.18866 14.5627 7.37043 13.7074C7.62027 12.5318 9.12697 12.8502 10.8424 12.8502L41.1947 12.8501C41.8907 12.8493 42.6153 12.7426 43.0179 13.1687C43.3734 13.545 43.2768 14.3291 43.5247 14.8222C44.2574 16.28 45.7502 15.6511 46.2803 16.4084C46.6414 16.9242 46.4831 19.6364 46.4831 20.4489C46.4831 23.3203 46.4809 26.1918 46.486 29.0631C46.4899 31.224 45.2732 30.1375 44.113 31.0575C42.9017 32.018 43.7202 33.4074 42.5177 33.6677C41.8742 34.0142 25.0442 33.7036 22.5923 33.7994C25.848 35.0586 31.8312 34.7801 35.64 34.7801C36.775 34.7801 48.934 34.8705 49.725 34.731V9.68286H4.18092C4.02918 11.5168 4.51118 14.1852 4.93389 15.8956L5.31241 15.9489V15.9489Z" fill="#7CEA8E"/>
<path fill-rule="evenodd" clip-rule="evenodd" d="M49.7247 34.7309C48.9336 34.8704 36.7746 34.78 35.6396 34.78C31.8308 34.78 25.8476 35.0585 22.5919 33.7993C25.0438 33.7036 41.8738 34.0142 42.5173 33.6677C40.2187 33.804 37.5803 33.6927 35.2429 33.6927L10.1478 33.7258C8.94488 33.7258 7.62105 34.0146 7.37232 32.8673C7.12165 31.7113 7.00022 31.0881 5.97359 30.7326C4.70762 30.2943 4.15588 30.8799 4.16513 28.9644C4.16921 28.1284 4.07311 17.1897 4.23762 16.6721C4.45343 15.993 4.78873 16.1948 5.31202 15.9489L4.9335 15.8956C4.51079 14.1852 4.02879 11.5168 4.18053 9.68286H0.724609H0.923018V36.8914H49.7247V34.7309Z" fill="#5FD072"/>
<path fill-rule="evenodd" clip-rule="evenodd" d="M41.116 23.6787C40.4975 24.9358 38.6527 24.1775 39.1778 22.8673C39.6737 21.6298 41.7142 22.4631 41.116 23.6787ZM29.8457 14.9393C29.9314 15.0242 29.9133 15.0105 30.0329 15.104C30.2867 15.3023 29.8472 14.9805 30.1569 15.1939C30.2382 15.2499 30.3125 15.2882 30.4024 15.3431C34.7233 17.9784 36.2382 23.7202 33.3254 28.3425C31.8494 30.6847 30.4432 31.0892 29.9395 31.638L40.9955 31.6417C41.5142 31.6417 41.4359 31.1839 41.7676 30.608C42.3026 29.679 43.1821 28.9482 44.3597 28.6594L44.3568 17.9153C41.7262 17.2371 41.5759 15.0517 41.1938 14.9329L29.8457 14.9395V14.9393Z" fill="#7CEA8E"/>
<path fill-rule="evenodd" clip-rule="evenodd" d="M10.2829 22.2907C11.5941 21.9463 12.1287 23.9553 10.7685 24.2909C9.47229 24.6107 8.82391 22.6739 10.2829 22.2907ZM6.27546 19.8571C6.99957 20.8017 7.57719 23.1002 10.7871 26.569C13.9023 29.9352 16.8 31.2951 17.1145 31.6276L20.8548 31.613C20.5209 31.2994 18.9704 30.5283 18.0409 29.3991C15.3434 26.1216 15.0363 21.63 17.3479 18.1568C18.1623 16.9332 19.1005 16.0514 20.3087 15.3087L20.8005 14.9333L9.45358 14.9329C9.05393 15.0566 8.92988 17.2372 6.28022 17.9153L6.27539 19.8571L6.27546 19.8571Z" fill="#7CEA8E"/>
<path fill-rule="evenodd" clip-rule="evenodd" d="M12.6271 40.9041C12.6271 41.3864 12.6918 41.6981 13.1536 41.9505C13.6849 42.241 22.1275 42.0785 22.9429 42.0785C26.7451 42.0785 30.5475 42.0785 34.3497 42.0785C33.5351 43.2788 31.6716 44.1496 31.6716 45.3083C31.6716 45.8661 32.1936 46.2871 32.7627 46.2871C33.5189 46.2871 36.0625 43.4715 36.7054 42.8371C37.0058 42.5407 37.3261 42.2648 37.5955 41.9535C37.9113 41.5886 38.1546 41.2283 38.0098 40.7273C37.8414 40.1449 37.5742 40.0464 36.8302 40.0224C36.186 40.0017 35.7933 39.9253 35.044 39.9253H13.9165C13.2639 39.9253 12.627 40.2684 12.627 40.904L12.6271 40.9041Z" fill="#173E6F"/>
<path fill-rule="evenodd" clip-rule="evenodd" d="M15.6025 6.64881H36.7301C38.345 6.64881 38.2692 4.99061 37.5023 4.61446C36.9448 4.34097 28.5358 4.49559 27.7038 4.49559C23.9015 4.49559 20.0992 4.49559 16.2969 4.49559C17.1114 3.29528 18.975 2.42453 18.975 1.26583C18.975 0.70808 18.453 0.287109 17.8839 0.287109C17.1812 0.287109 16.2611 1.44784 15.8256 1.87754L13.0511 4.62073C12.7319 4.99115 12.4734 5.31342 12.636 5.84611C12.8143 6.43036 13.0613 6.52736 13.8163 6.55168C14.4605 6.57245 14.8531 6.64881 15.6025 6.64881Z" fill="#173E6F"/>
<path fill-rule="evenodd" clip-rule="evenodd" d="M22.0472 28.472C22.6067 28.4453 23.7929 28.358 24.2649 28.54L24.3344 29.8374C24.5187 30.4837 25.2306 30.8373 25.9091 30.4229C26.4877 30.0694 26.3829 29.3449 26.3829 28.6702C26.5692 28.3955 26.6168 28.5102 27.0623 28.4255C27.3421 28.3724 27.4776 28.3263 27.7262 28.2061C28.226 27.9644 28.3582 27.8263 28.6971 27.4974C29.9247 26.3062 29.9203 24.0622 28.1894 22.8065C26.5046 21.5843 22.8127 23.1484 23.244 20.9545C23.5656 19.3184 27.8254 20.7084 29.038 20.0039C29.8224 19.5481 29.7296 18.2555 28.65 18.1182C28.058 18.118 26.8786 18.2262 26.3815 18.0345L26.3109 16.7397C26.1316 16.0885 25.4142 15.7375 24.735 16.1494C24.1554 16.5009 24.2635 17.2319 24.2635 17.9042C24.1668 18.2157 23.6616 18.0076 22.9179 18.3662C22.4077 18.6121 22.2848 18.7363 21.9547 19.0837C20.6142 20.4946 20.8551 22.6382 22.4462 23.776C24.0772 24.9423 27.8321 23.446 27.4016 25.6187C27.0734 27.2753 22.6791 25.8303 21.5489 26.6083C20.7986 27.1248 20.9731 28.3673 22.0472 28.472Z" fill="#3AA64C"/>
<path fill-rule="evenodd" clip-rule="evenodd" d="M17.1145 31.6274C16.7999 31.2951 13.9022 29.9351 10.7871 26.5688C7.57712 23.1001 6.99944 20.8015 6.27539 19.8569L6.29223 28.6575C7.51354 28.9594 8.3642 29.6909 8.91503 30.6715C9.0841 30.9725 9.1646 31.4428 9.45358 31.6381L17.1145 31.6274H17.1145Z" fill="#6BDB7E"/>
<path fill-rule="evenodd" clip-rule="evenodd" d="M41.1171 23.6787C41.7152 22.4632 39.6747 21.6299 39.1788 22.8673C38.6537 24.1775 40.4985 24.9357 41.1171 23.6787Z" fill="#3AA64C"/>
<path fill-rule="evenodd" clip-rule="evenodd" d="M10.2819 22.2905C8.82291 22.6738 9.47129 24.6105 10.7675 24.2907C12.1276 23.9551 11.5931 21.9461 10.2819 22.2905Z" fill="#3AA64C"/>
<path fill-rule="evenodd" clip-rule="evenodd" d="M24.3341 29.8374L24.2646 28.5399C23.7925 28.3579 22.6063 28.4452 22.0469 28.472C22.5323 28.6974 23.5588 28.5498 24.1783 28.5498C24.1783 28.9155 24.0637 29.6311 24.3341 29.8374Z" fill="#99C966"/>
<path fill-rule="evenodd" clip-rule="evenodd" d="M28.6497 18.1179C28.3985 17.9063 26.9158 18.0244 26.4674 18.0244C26.4674 17.6609 26.5829 16.9445 26.3105 16.7395L26.3812 18.0343C26.8783 18.226 28.0577 18.1178 28.6497 18.118V18.1179Z" fill="#99C966"/>
</g>
<defs>
<clipPath id="clip0_14118_61527">
<rect width="49" height="46" fill="white" transform="translate(0.724609 0.287109)"/>
</clipPath>
</defs>
</svg>
