<svg width="52" height="51" viewBox="0 0 52 51" fill="none" xmlns="http://www.w3.org/2000/svg">
<g clip-path="url(#clip0_14118_61509)">
<path fill-rule="evenodd" clip-rule="evenodd" d="M13.7933 35.7349C14.5387 35.3537 15.192 35.9237 14.8663 36.6827C14.7336 36.9918 11.2015 39.2603 10.939 39.3677C10.2692 39.6417 9.59016 39.1221 9.86769 38.4256C10.0205 38.0419 13.2544 36.0104 13.7933 35.7349ZM24.9015 19.5865C30.2633 18.8482 34.6293 23.0758 35.1758 27.5857C35.8251 32.9448 31.7744 37.1817 27.0013 37.7444C21.4936 38.3936 17.2063 34.396 16.6304 29.7226C16.2845 26.9159 17.4447 24.3159 18.7767 22.745C20.3217 20.9229 22.4404 19.9254 24.9017 19.5865H24.9015ZM40.9018 17.9463C41.5209 17.6303 42.2351 18.1493 41.9432 18.8774C41.81 19.2097 41.0824 19.5847 40.6995 19.8383C40.2541 20.1335 39.8466 20.4016 39.3777 20.7098C39.0674 20.9138 38.3455 21.4493 38.0439 21.5835C37.2853 21.9211 36.636 21.3528 36.9512 20.6263C37.1045 20.2728 40.5072 18.1476 40.9017 17.9463H40.9018ZM16.9969 20.3668L6.42026 27.2935C6.88721 28.7023 8.26325 30.1505 7.44227 33.3233C7.1013 34.6407 6.25312 36.0899 5.33154 36.8986C5.02066 37.1716 4.49388 37.4286 4.35938 37.8141L9.14224 44.7653C10.3836 44.329 11.2261 43.4132 13.7911 43.536C14.6366 43.5766 15.4739 43.7619 16.1874 44.0354C16.878 44.3001 17.7623 44.9304 18.1196 45.0273C18.684 44.9869 20.7872 43.4248 21.4156 43.0157C22.5526 42.2759 23.54 41.6368 24.6606 40.8829C30.5137 36.9459 36.6488 33.0413 42.6159 29.0931C43.1358 28.749 43.7232 28.3145 44.2893 28.0122L44.3139 27.5985C44.2909 26.4446 44.0195 25.8441 44.2588 24.5037C44.4185 23.6094 44.9431 22.6979 45.026 22.1456C44.8824 21.6078 44.0398 20.5474 43.7279 20.0702C43.0592 19.0474 39.7417 14.3985 39.485 13.8211C38.8342 13.7658 38.1916 13.9635 37.6672 13.7225C35.2993 13.6007 32.9558 11.9135 32.2046 10.584C31.6254 10.6654 28.9792 12.5554 28.2922 12.9871C26.9716 13.817 25.7914 14.64 24.5165 15.468C23.0699 16.4076 18.0692 19.8178 16.9971 20.367L16.9969 20.3668Z" fill="#3AA64C"/>
<path fill-rule="evenodd" clip-rule="evenodd" d="M28.3095 33.5932C27.627 33.7906 25.7942 34.6108 25.2895 33.7954C24.4546 32.4464 26.7181 32.7163 27.3158 32.2827C27.1329 31.7021 25.5924 29.7024 25.1905 29.0385C23.3628 29.1113 22.4281 29.1657 21.6488 27.9395C20.546 26.2039 21.5663 25.0762 21.939 24.3652C21.7284 23.9399 21.103 23.2333 21.8181 22.7942C22.5102 22.3692 22.8749 23.0021 23.1918 23.4053C23.9972 23.3975 25.2233 22.7952 25.6834 23.5557C25.9078 23.9268 25.7432 24.3636 25.4748 24.5454C25.1612 24.7576 24.6416 24.675 24.2289 24.7496C24.2359 25.1395 25.5507 26.8092 25.8079 27.3151C27.8407 27.0009 29.0206 27.0297 29.8829 28.4342C30.8223 29.9644 30.5515 31.5094 29.5293 32.6209C29.751 33.0982 30.4302 33.7743 29.7573 34.276C29.0271 34.8203 28.5412 33.9968 28.3091 33.5932H28.3095ZM24.9014 19.5865C22.4399 19.9255 20.3214 20.923 18.7764 22.7451C17.4444 24.316 16.2843 26.916 16.6301 29.7227C17.206 34.3961 21.4933 38.3937 27.0011 37.7445C31.7741 37.1818 35.8248 32.9449 35.1755 27.5858C34.6292 23.0759 30.2632 18.8483 24.9012 19.5865H24.9014Z" fill="#29795D"/>
<path fill-rule="evenodd" clip-rule="evenodd" d="M16.9965 20.367C18.0685 19.8178 23.0692 16.4076 24.5158 15.468C25.7907 14.64 26.971 13.8168 28.2915 12.9871C28.9785 12.5552 31.6246 10.6654 32.2039 10.584C32.3366 10.2143 34.5474 8.92461 35.002 8.61343C35.719 8.12257 37.2299 6.85065 38.2952 7.0648C39.3051 7.26793 40.0457 8.73694 40.6108 9.56511C41.027 10.1754 42.4262 12.0036 42.5652 12.6206C42.9519 12.6338 43.4433 13.6046 43.857 14.1984L47.4268 19.5059C47.4173 19.499 47.4986 19.3913 47.4103 19.5368C47.4039 19.5473 47.3755 19.5946 47.3688 19.6058C47.3592 19.6216 47.3307 19.671 47.3095 19.7023C47.7498 19.8285 47.4246 19.5944 47.7514 19.923C47.9099 19.6849 48.0911 19.5136 48.2893 19.2529L50.9433 15.8895C51.283 15.4845 51.6756 15.1374 51.734 14.4728V14.1216C51.6558 13.2494 50.8738 12.7084 50.0958 12.1969L35.4434 0.965524C35.0698 0.633192 34.7256 0.351332 34.1241 0.287354H33.597C32.4526 0.438058 31.5729 2.08941 30.6201 3.23196L26.7774 8.03282C26.55 8.35929 26.4616 8.38719 26.2239 8.68345L20.251 16.1682C20.0523 16.4177 19.9278 16.6184 19.728 16.8485C19.4792 17.1353 19.3673 17.2494 19.1293 17.5629C18.7495 18.0632 17.0976 19.9689 16.9961 20.367H16.9965Z" fill="#173E6F"/>
<path fill-rule="evenodd" clip-rule="evenodd" d="M18.1195 45.0272C18.3595 45.4336 18.668 45.5578 18.9557 45.8742C19.1446 46.0819 19.5545 46.6345 19.7626 46.7619C19.9076 46.7469 19.8719 46.9334 19.8737 46.7077L29.7798 40.2656C30.8776 39.5366 32.0785 38.8437 33.1486 38.0315C33.3571 38.0265 33.2245 38.0656 33.451 37.8977L45.3777 30.005C45.2567 29.5535 44.9994 29.2577 44.7843 28.795C44.6072 28.4139 44.5327 27.9039 44.3135 27.5984L44.2888 28.0121C43.7229 28.3144 43.1354 28.7489 42.6155 29.093C36.6486 33.0414 30.5134 36.9458 24.6602 40.8828C23.5394 41.6367 22.552 42.2757 21.4152 43.0156C20.7867 43.4247 18.6836 44.9867 18.1191 45.0272H18.1195Z" fill="#60CB71"/>
<path fill-rule="evenodd" clip-rule="evenodd" d="M26.8547 28.6348C29.0769 28.3643 29.1888 30.5877 28.6122 31.2643L27.2553 29.3819C27.0092 29.0283 26.9591 29.0165 26.8547 28.6346V28.6348ZM22.8343 25.7622L23.2278 26.1766C23.3683 26.3801 23.4162 26.4636 23.5333 26.6323C23.7513 26.9461 23.9937 27.2044 24.1262 27.6165C22.9478 27.622 22.4911 26.8535 22.8343 25.7624V25.7622ZM21.9384 24.3651C21.5657 25.0762 20.5452 26.2038 21.6482 27.9394C22.4275 29.1656 23.3622 29.1113 25.1899 29.0384C25.5918 29.7024 27.1322 31.702 27.3152 32.2826C26.7175 32.7163 24.454 32.4463 25.2889 33.7954C25.7936 34.6106 27.6262 33.7906 28.3089 33.5931C28.5409 33.9967 29.0271 34.8203 29.7571 34.2759C30.43 33.7742 29.7507 33.098 29.529 32.6208C30.5512 31.5094 30.822 29.9645 29.8827 28.4342C29.0204 27.0297 27.8405 27.0009 25.8077 27.3151C25.5505 26.8091 24.2357 25.1395 24.2286 24.7495C24.6412 24.6749 25.1609 24.7575 25.4745 24.5453C25.7432 24.3635 25.9078 23.9265 25.6832 23.5556C25.2231 22.7952 23.9968 23.3975 23.1916 23.4053C22.8745 23.002 22.5098 22.3692 21.8179 22.7941C21.1028 23.2332 21.7282 23.94 21.9388 24.3651H21.9384Z" fill="#60CB71"/>
<path fill-rule="evenodd" clip-rule="evenodd" d="M9.14258 44.7655C9.22324 45.0487 9.42482 45.2285 9.60845 45.4921L11.0677 47.6407C11.7092 48.584 12.5066 50.0957 13.3713 50.2643C13.4168 50.2732 13.4614 50.2807 13.5054 50.2872H14.2175C14.6547 50.2174 14.9998 50.0221 15.2924 49.8088C15.5661 49.6094 15.736 49.4802 16.0001 49.3094C16.2793 49.1291 16.5198 49.0162 16.8225 48.8143C17.1171 48.6179 17.2313 48.5069 17.5268 48.3117L18.9882 47.3586C19.3141 47.1496 19.5124 47.0649 19.7629 46.762C19.5548 46.6344 19.145 46.0821 18.9561 45.8743C18.6684 45.558 18.3599 45.4338 18.1199 45.0273C17.7626 44.9306 16.8784 44.3001 16.1877 44.0355C15.4742 43.7622 14.6369 43.5766 13.7915 43.5361C11.2265 43.4135 10.3839 44.3291 9.14258 44.7654V44.7655Z" fill="#29795D"/>
<path fill-rule="evenodd" clip-rule="evenodd" d="M45.0253 22.1453C44.9424 22.6977 44.4178 23.6092 44.2581 24.5035C44.0189 25.844 44.2902 26.4443 44.3132 27.5983C44.5324 27.9038 44.6069 28.4138 44.784 28.7948C44.9992 29.2576 45.2564 29.5533 45.3775 30.0049L49.6765 27.2288C52.3655 25.476 50.9527 24.589 48.2608 20.6116C48.0667 20.3246 47.9187 20.1613 47.7512 19.9226C47.4244 19.594 47.7496 19.8281 47.3093 19.7019C47.1407 19.963 46.4133 20.4497 46.106 20.7984C45.8803 21.0549 45.233 22.0046 45.0253 22.1452V22.1453Z" fill="#29795D"/>
<path fill-rule="evenodd" clip-rule="evenodd" d="M4.35945 37.8142C4.49396 37.4288 5.02055 37.1718 5.33162 36.8988C6.2532 36.09 7.10138 34.6409 7.44235 33.3235C8.26351 30.1507 6.88729 28.7025 6.42034 27.2937L1.95089 30.2216C1.16816 30.7267 0.811053 31.2081 0.734375 31.7034V32.1346C0.849483 32.9352 1.56351 33.7966 2.30401 34.8657C2.50232 35.152 2.62613 35.2707 2.81647 35.5563C3.01623 35.8561 3.09708 36.0541 3.32493 36.3594C3.52923 36.6333 3.66373 36.7879 3.82724 37.06C3.99383 37.3372 4.12344 37.6134 4.35945 37.8144V37.8142Z" fill="#29795D"/>
<path fill-rule="evenodd" clip-rule="evenodd" d="M32.2051 10.5838C32.9563 11.9133 35.2998 13.6006 37.6677 13.7223C38.6634 13.7459 39.5161 13.75 40.4323 13.4989C41.2426 13.2768 42.0956 12.7408 42.5664 12.6204C42.4274 12.0036 41.0281 10.1752 40.6119 9.56494C40.0469 8.73678 39.3064 7.26777 38.2964 7.06463C37.231 6.85031 35.7203 8.12241 35.0032 8.61327C34.5486 8.92445 32.3378 10.2141 32.2051 10.5838Z" fill="#29795D"/>
<path fill-rule="evenodd" clip-rule="evenodd" d="M19.875 46.7079C20.5925 46.8341 21.3438 47.6369 21.9125 48.0721C23.836 49.5445 24.415 49.1718 25.8637 47.2652L33.1499 38.0317C32.0799 38.8439 30.8789 39.5368 29.7812 40.2658L19.875 46.7079Z" fill="#57AD7B"/>
<path fill-rule="evenodd" clip-rule="evenodd" d="M37.6662 13.7222C38.1906 13.9632 38.8332 13.7654 39.484 13.8208C39.7407 14.3983 43.058 19.0472 43.7268 20.0699C44.0388 20.5473 44.8816 21.6075 45.0249 22.1453C45.2327 22.0046 45.88 21.0548 46.1057 20.7986C46.4129 20.4497 47.1404 19.9629 47.309 19.7021C47.3302 19.6708 47.3586 19.6214 47.3682 19.6056C47.3751 19.5944 47.4034 19.5471 47.4097 19.5366C47.498 19.3911 47.4168 19.4986 47.4262 19.5057L43.8565 14.1981C43.443 13.6042 42.9515 12.6335 42.5647 12.6204C42.0939 12.7407 41.2409 13.2767 40.4306 13.4988C39.5144 13.7499 38.6617 13.746 37.666 13.7222H37.6662Z" fill="#60CB71"/>
<path fill-rule="evenodd" clip-rule="evenodd" d="M13.794 35.7351C13.2551 36.0108 10.0212 38.0421 9.86841 38.4258C9.59088 39.1223 10.2699 39.6419 10.9397 39.3679C11.2022 39.2605 14.7343 36.992 14.867 36.6829C15.1927 35.9237 14.5396 35.3539 13.794 35.7351Z" fill="#29795D"/>
<path fill-rule="evenodd" clip-rule="evenodd" d="M40.9011 17.9465C40.5066 18.1479 37.104 20.273 36.9506 20.6265C36.6354 21.353 37.2847 21.9213 38.0433 21.5837C38.345 21.4495 39.0668 20.9139 39.3771 20.71C39.8459 20.4019 40.2534 20.1337 40.699 19.8385C41.0818 19.5849 41.8094 19.2097 41.9427 18.8776C42.2345 18.1495 41.5203 17.6305 40.9013 17.9465H40.9011Z" fill="#29795D"/>
<path fill-rule="evenodd" clip-rule="evenodd" d="M26.8555 28.6348C26.9599 29.0167 27.0099 29.0285 27.2561 29.3821L28.6129 31.2645C29.1895 30.5878 29.0777 28.3645 26.8555 28.635V28.6348Z" fill="#2B7B5E"/>
<path fill-rule="evenodd" clip-rule="evenodd" d="M22.8359 25.7621C22.4926 26.8533 22.9494 27.622 24.1278 27.6163C23.9953 27.2043 23.7529 26.9459 23.5349 26.6321C23.4178 26.4634 23.3699 26.3801 23.2294 26.1764L22.8359 25.762V25.7621Z" fill="#2B7B5E"/>
</g>
<defs>
<clipPath id="clip0_14118_61509">
<rect width="51" height="50" fill="white" transform="translate(0.734375 0.287109)"/>
</clipPath>
</defs>
</svg>
