<svg width="16" height="16" viewBox="0 0 16 16" fill="none" xmlns="http://www.w3.org/2000/svg">
<path d="M11.4959 10.7304L14.1728 13.4066L13.2884 14.291L10.6122 11.6141C9.6164 12.4124 8.37781 12.8465 7.10156 12.8447C3.99656 12.8447 1.47656 10.3247 1.47656 7.21973C1.47656 4.11473 3.99656 1.59473 7.10156 1.59473C10.2066 1.59473 12.7266 4.11473 12.7266 7.21973C12.7284 8.49598 12.2942 9.73456 11.4959 10.7304ZM10.2422 10.2666C11.0354 9.45091 11.4784 8.35749 11.4766 7.21973C11.4766 4.80223 9.51844 2.84473 7.10156 2.84473C4.68406 2.84473 2.72656 4.80223 2.72656 7.21973C2.72656 9.6366 4.68406 11.5947 7.10156 11.5947C8.23933 11.5965 9.33274 11.1535 10.1484 10.3604L10.2422 10.2666V10.2666Z" fill="#828282"/>
</svg>
