<svg width="14" height="14" viewBox="0 0 14 14" fill="none" xmlns="http://www.w3.org/2000/svg">
<path d="M10.4412 9.58533L13.1181 12.2616L12.2338 13.146L9.5575 10.4691C8.56171 11.2673 7.32313 11.7015 6.04688 11.6997C2.94187 11.6997 0.421875 9.17971 0.421875 6.07471C0.421875 2.96971 2.94187 0.449707 6.04688 0.449707C9.15187 0.449707 11.6719 2.96971 11.6719 6.07471C11.6737 7.35096 11.2395 8.58954 10.4412 9.58533ZM9.1875 9.12158C9.9807 8.30589 10.4237 7.21248 10.4219 6.07471C10.4219 3.65721 8.46375 1.69971 6.04688 1.69971C3.62937 1.69971 1.67188 3.65721 1.67188 6.07471C1.67188 8.49158 3.62937 10.4497 6.04688 10.4497C7.18464 10.4515 8.27805 10.0085 9.09375 9.21533L9.1875 9.12158Z" fill="#828282"/>
</svg>
