<svg width="11" height="14" viewBox="0 0 11 14" fill="none" xmlns="http://www.w3.org/2000/svg">
<path d="M5.41992 0.583252L10.2132 1.64842C10.4798 1.70792 10.6699 1.94417 10.6699 2.21775V8.0435C10.6699 9.21367 10.0848 10.3068 9.11125 10.9555L5.41992 13.4166L1.72859 10.9555C0.754422 10.3063 0.169922 9.21367 0.169922 8.04409V2.21775C0.169922 1.94417 0.360089 1.70792 0.626672 1.64842L5.41992 0.583252ZM5.41992 1.7785L1.33659 2.68559V8.0435C1.33659 8.82342 1.72626 9.552 2.37551 9.98484L5.41992 12.0148L8.46434 9.98484C9.11359 9.552 9.50325 8.824 9.50325 8.04409V2.68559L5.41992 1.77909V1.7785ZM8.01692 4.79609L8.84234 5.62092L5.13001 9.33325L2.65492 6.85817L3.47975 6.03334L5.12942 7.683L8.01692 4.7955V4.79609Z" fill="#173963"/>
</svg>
