<svg width="32" height="32" viewBox="0 0 32 32" fill="none" xmlns="http://www.w3.org/2000/svg">
<g clip-path="url(#clip0_14118_68033)">
<path fill-rule="evenodd" clip-rule="evenodd" d="M19.859 17.0112C22.0265 16.7179 23.785 18.3438 24.0369 20.1857C24.3398 22.4005 22.7078 24.2074 20.8158 24.4308C18.5873 24.694 16.8445 23.0837 16.6194 21.1791C16.3565 18.9551 17.9668 17.2672 19.859 17.0112V17.0112ZM15.5043 0.589844H15.9063C16.3972 0.734028 16.7805 1.3782 17.1336 1.8201C17.3255 2.06025 17.3577 1.9907 17.4347 2.27921C18.2421 2.06364 19.6516 -0.220276 20.5125 1.98887C20.6826 2.42532 20.8809 2.77268 20.9824 3.20837C21.4294 3.17118 22.4812 2.53264 22.8407 2.53264C24.3987 2.53264 23.8677 4.1387 24.1271 4.88509C24.2188 5.14877 24.4786 5.03706 24.9992 4.95822C25.026 4.95414 25.0455 4.95023 25.0724 4.94602C25.6717 4.85232 26.2806 4.70528 26.6842 5.10879C27.4579 5.8825 26.2991 7.5395 26.9785 7.68058L28.4943 7.85994C30.1459 8.19555 28.637 10.1808 28.5846 10.8106C29.0164 10.9112 29.4732 11.1508 29.8651 11.3039C30.3278 11.4846 30.6528 11.6203 30.7348 12.2043C30.8457 12.9936 29.698 13.6681 29.5137 14.3582C29.8063 14.4364 29.7832 14.5226 30.0208 14.6959C30.8883 15.3286 31.2031 15.3883 31.2031 16.2166C31.2031 16.822 29.6119 17.7952 29.5137 17.8215C29.606 18.1669 30.0104 18.5804 30.2383 18.8707C30.9545 19.7828 31.0257 20.4232 29.8041 20.8993C29.3676 21.0693 29.0203 21.2676 28.5846 21.3691C28.6092 21.6652 28.8152 22.0273 28.9224 22.2983C29.5224 23.8145 29.5009 24.175 27.6816 24.4362C26.6836 24.5795 26.6842 24.3645 26.8009 25.0857C26.9131 25.7796 27.1111 26.644 26.6842 27.0709C26.3251 27.43 25.9222 27.3345 25.3749 27.2847C23.8596 27.1468 24.2336 26.7645 24.0384 28.1417C23.9966 28.4364 23.9887 28.6073 23.933 28.8811C23.5974 30.5326 21.6122 29.0237 20.9824 28.9713C20.8818 29.4032 20.6422 29.8599 20.4891 30.2519C19.6706 32.3474 18.1863 30.1012 17.4347 29.9005C17.3618 30.1738 17.2663 30.1896 17.0965 30.4069C16.6879 30.9298 16.3798 31.5899 15.8298 31.5899C15.0979 31.5899 15.0886 31.4508 14.635 30.8419C14.4535 30.5982 14.0387 30.152 13.9715 29.9005C13.1641 30.1161 11.7546 32.4 10.8937 30.1908C10.7236 29.7544 10.5254 29.407 10.4239 28.9713C9.76717 29.026 7.77121 30.5774 7.46169 28.8081C7.15922 27.0793 7.52475 27.0554 6.70731 27.1876C4.45066 27.5527 4.26546 27.2227 4.61802 25.009C4.73481 24.2758 4.5817 24.6041 2.91424 24.3174C1.25958 24.033 2.77241 21.9608 2.82163 21.3691C2.38981 21.2685 1.93304 21.0289 1.54112 20.8758C-0.554463 20.0573 1.69181 18.573 1.89248 17.8215C1.61917 17.7485 1.60338 17.653 1.38605 17.4832C0.863132 17.0747 0.203125 16.7665 0.203125 16.2166C0.203125 15.4846 0.342165 15.4753 0.95109 15.0217C1.19476 14.8402 1.64095 14.4254 1.89249 14.3583C1.67692 13.5508 -0.606995 12.1413 1.60215 11.2804C2.0386 11.1104 2.38596 10.9121 2.82165 10.8106C2.77029 10.1931 1.21328 8.10403 2.98968 7.85325C4.83138 7.59329 4.7211 7.8095 4.60537 7.09406C4.24029 4.83741 4.57028 4.65221 6.784 5.00477C7.58244 5.13195 7.15708 4.85424 7.47322 3.29865C7.80883 1.6471 9.79405 3.15599 10.4238 3.20838C10.5245 2.77656 10.7641 2.31978 10.9171 1.92787C11.7357 -0.167719 13.22 2.07855 13.9715 2.27922C14.0333 2.04778 14.4851 1.5401 14.6711 1.28948C14.9797 0.873747 15.2551 0.662158 15.5043 0.589857V0.589844ZM10.2456 7.81745C12.548 7.31449 14.3252 8.86625 14.7252 10.6487C15.2401 12.943 13.6349 14.6962 11.9239 15.1028C9.68136 15.6357 7.84871 14.0637 7.43957 12.364C6.88619 10.0652 8.47734 8.20371 10.2456 7.81745ZM21.4574 9.1425C22.3814 8.64368 23.3241 9.78363 22.3705 10.7629C21.7698 11.3798 21.2052 11.9245 20.595 12.535C19.4602 13.6703 10.3665 22.8725 10.0005 23.0627C9.08423 23.539 8.04703 22.4267 9.03702 21.4182L14.318 16.1407C14.8521 15.6043 20.7628 9.51751 21.4574 9.14252V9.1425Z" fill="url(#paint0_linear_14118_68033)"/>
<path fill-rule="evenodd" clip-rule="evenodd" d="M21.4574 9.14267C20.7627 9.51767 14.8521 15.6045 14.318 16.1408L9.037 21.4183C8.04701 22.4269 9.08422 23.5391 10.0005 23.0629C10.3664 22.8726 19.4602 13.6704 20.595 12.5351C21.2052 11.9247 21.7697 11.3799 22.3705 10.763C23.3241 9.78379 22.3814 8.64385 21.4574 9.14266V9.14267Z" fill="white"/>
<path fill-rule="evenodd" clip-rule="evenodd" d="M12.8617 11.9933C12.6155 12.8229 11.7139 13.5587 10.5864 13.2626C9.74765 13.0422 8.95382 12.0782 9.28089 10.9277C9.9388 8.61336 13.5737 9.59482 12.8617 11.9933ZM10.2459 7.81767C8.47764 8.20393 6.8865 10.0654 7.43987 12.3642C7.84901 14.0639 9.68168 15.6359 11.9242 15.103C13.6352 14.6965 15.2404 12.9433 14.7255 10.649C14.3255 8.86648 12.5483 7.31471 10.2459 7.81767Z" fill="white"/>
<path fill-rule="evenodd" clip-rule="evenodd" d="M19.927 18.918C22.2618 18.3022 23.1446 21.9629 20.7966 22.5301C18.4727 23.0914 17.3965 19.5854 19.927 18.918ZM19.8596 17.011C17.9675 17.267 16.3571 18.9549 16.62 21.1789C16.8452 23.0835 18.588 24.6937 20.8165 24.4306C22.7085 24.2071 24.3404 22.4003 24.0376 20.1855C23.7857 18.3435 22.0271 16.7177 19.8596 17.011V17.011Z" fill="white"/>
<path fill-rule="evenodd" clip-rule="evenodd" d="M12.8612 11.9936C13.5732 9.59504 9.93831 8.61357 9.28041 10.9279C8.95334 12.0784 9.74716 13.0424 10.5859 13.2628C11.7135 13.559 12.615 12.8231 12.8612 11.9936Z" fill="url(#paint1_linear_14118_68033)"/>
<path fill-rule="evenodd" clip-rule="evenodd" d="M19.9272 18.9182C17.3967 19.5855 18.4729 23.0916 20.7968 22.5303C23.1448 21.963 22.262 18.3024 19.9272 18.9182Z" fill="url(#paint2_linear_14118_68033)"/>
</g>
<defs>
<linearGradient id="paint0_linear_14118_68033" x1="15.7031" y1="0.589844" x2="15.7031" y2="31.5899" gradientUnits="userSpaceOnUse">
<stop stop-color="#3AA64C"/>
<stop offset="1" stop-color="#0D458A"/>
</linearGradient>
<linearGradient id="paint1_linear_14118_68033" x1="11.0791" y1="9.6123" x2="11.0791" y2="13.3296" gradientUnits="userSpaceOnUse">
<stop stop-color="#3AA64C"/>
<stop offset="1" stop-color="#0D458A"/>
</linearGradient>
<linearGradient id="paint2_linear_14118_68033" x1="20.3244" y1="18.8486" x2="20.3244" y2="22.5909" gradientUnits="userSpaceOnUse">
<stop stop-color="#3AA64C"/>
<stop offset="1" stop-color="#0D458A"/>
</linearGradient>
<clipPath id="clip0_14118_68033">
<rect width="31" height="31" fill="white" transform="translate(0.203125 0.589844)"/>
</clipPath>
</defs>
</svg>
