<svg width="42" height="43" viewBox="0 0 42 43" fill="none" xmlns="http://www.w3.org/2000/svg">
<g clip-path="url(#clip0_14118_73494)">
<path fill-rule="evenodd" clip-rule="evenodd" d="M10.7079 39.6936C2.23997 39.6936 3.13167 40.9206 3.13167 33.4105C3.13167 28.6981 3.13167 23.9858 3.13167 19.2735C3.33922 19.4158 3.46426 19.5471 3.70108 19.7376L6.76911 22.2508C7.25291 22.6399 7.63538 23.0338 8.1244 23.2527L8.4094 23.6017C8.58955 23.7563 8.63216 23.7803 8.81444 23.9263L16.4253 30.1654C17.0754 30.6788 17.6691 31.144 18.5792 30.4834C18.9284 30.23 21.419 27.678 21.6422 27.3367L19.6218 25.2168C18.8491 25.8066 18.0885 26.8363 17.5514 27.1272C17.118 26.83 16.8186 26.5562 16.403 26.2088L11.7457 22.3908C11.3301 22.0426 10.9846 21.7558 10.5541 21.4119L8.78287 19.9787C8.57263 19.7819 8.439 19.6305 8.1428 19.546C7.99896 19.2635 7.85757 19.1962 7.54281 18.9447C7.30835 18.7575 7.13556 18.6117 6.91558 18.4357C6.65593 18.228 5.84601 17.6088 5.68843 17.3884H13.2562V14.2469C11.8295 14.2469 5.09105 14.1652 4.28211 14.273C3.53368 14.3727 3.16234 14.4659 2.55097 14.8041C2.14511 15.0287 1.73173 15.2847 1.42817 15.6441C0.565832 16.6653 0.158909 17.4489 0.165533 19.273C0.188103 25.4446 0.196772 31.6382 0.165124 37.8093C0.151222 40.5199 1.84777 42.6092 4.35759 42.7316C7.24874 42.8725 10.5262 42.7303 13.4606 42.7303L31.2348 42.7018C31.5368 42.6141 31.2552 42.7689 31.4597 42.5866C32.7639 42.7801 34.2297 41.3893 34.8713 39.9407C35.4878 38.5488 35.2436 36.0688 35.2436 34.1435C35.2436 30.0246 35.2436 25.9056 35.2436 21.7867H32.2778L32.2817 37.7078C32.2885 40.0198 30.5954 39.6935 29.0534 39.6935H17.6531H10.7079V39.6936ZM26.9604 3.8798H33.1728C33.9653 3.8798 34.7579 3.8808 35.5505 3.8798C36.5498 3.87846 37.0229 3.78559 37.5767 4.31824C38.1401 4.86028 38.1115 5.23349 38.1074 6.28808C38.1015 7.81628 38.2162 15.521 38.0244 16.152C37.7929 16.9137 37.4402 17.0865 36.6971 17.2839L28.4936 17.2834C27.9893 17.3271 27.5371 17.7066 27.1892 18.0422L25.5585 19.5139C25.3436 19.6989 25.2475 19.8455 25.0321 20.0221C24.4691 20.4835 24.2498 20.8511 23.8919 20.949C23.8774 20.2837 23.7097 17.207 22.5625 17.4928C22.3938 17.0801 22.648 17.4028 22.2508 17.2938C22.2278 17.2875 21.8921 17.2716 21.8525 17.2718C19.5164 17.2848 17.7451 17.7717 17.7521 15.4029C17.7554 14.3049 17.6507 5.62027 17.8131 4.98563C18.0891 3.90726 18.9317 3.87678 20.2102 3.87971C22.46 3.88507 24.7105 3.87988 26.9604 3.87988V3.8798ZM35.2431 9.84875L35.2436 6.81194H20.6194V9.84875H27.164H35.2431ZM20.6194 14.3516H35.2436V14.3511V11.3148H20.6194V14.3517V14.3516ZM20.9256 20.3206C20.727 20.8473 21.0788 22.6367 21.175 23.3121C21.3296 24.399 21.4554 25.2569 22.4017 25.5168C23.2826 25.7587 24.0101 25.0644 24.6329 24.4302C24.9407 24.1168 25.1739 23.9708 25.5015 23.6442C25.7132 23.4332 25.746 23.4372 25.9525 23.2683C26.1489 23.1079 26.2366 22.9895 26.4213 22.8058L28.6724 20.8175C29.354 20.155 29.1957 20.3203 30.7439 20.3207L36.9861 20.3268C37.4907 20.2564 37.167 20.3847 37.3914 20.1571C38.5213 20.389 40.3434 18.8621 40.8829 17.0892C41.3076 15.6936 41.073 12.4208 41.073 10.5818C41.073 7.07437 41.7137 4.01043 39.6176 2.01899C39.2331 1.65364 37.9885 0.790481 37.2891 1.04253C37.2315 0.908048 37.4433 0.848511 36.683 0.828079C33.5354 0.743421 28.7383 0.8429 25.5283 0.8429C23.5514 0.8429 21.5732 0.850269 19.5964 0.842565C18.4102 0.83796 17.9312 0.968925 17.1396 1.36366C16.5853 1.64016 16.5157 1.75421 16.0805 2.16411C14.4611 3.68938 14.7901 5.65469 14.7901 8.17309C14.7901 9.57057 14.6624 16.0664 14.9342 17.1361C15.3011 18.5799 16.5602 19.7302 17.9218 20.1506C18.7625 20.4102 19.8807 20.3204 20.9257 20.3204L20.9256 20.3206Z" fill="url(#paint0_linear_14118_73494)"/>
</g>
<defs>
<linearGradient id="paint0_linear_14118_73494" x1="20.6651" y1="0.793945" x2="20.6651" y2="42.7939" gradientUnits="userSpaceOnUse">
<stop stop-color="#0D458A"/>
<stop offset="1" stop-color="#3AA64C"/>
</linearGradient>
<clipPath id="clip0_14118_73494">
<rect width="41" height="42" fill="white" transform="translate(0.165039 0.793945)"/>
</clipPath>
</defs>
</svg>
