<svg width="19" height="18" viewBox="0 0 19 18" fill="none" xmlns="http://www.w3.org/2000/svg">
<path d="M8.92622 14.8232L5.38065 16.8079C4.93844 17.0554 4.40932 16.671 4.50806 16.174L5.29983 12.1885C5.42057 11.5807 5.21687 10.9539 4.76192 10.5332L1.77829 7.77427C1.4062 7.4302 1.60829 6.80816 2.11155 6.74847L6.14685 6.26988C6.76212 6.19691 7.29531 5.80954 7.55484 5.24693L9.2572 1.55664C9.46947 1.09649 10.1235 1.09649 10.3357 1.55665L12.0381 5.24693C12.2976 5.80954 12.8308 6.19691 13.4461 6.26988L17.4814 6.74847C17.9847 6.80816 18.1867 7.4302 17.8147 7.77427L14.831 10.5332C14.3761 10.9539 14.1724 11.5807 14.2931 12.1885L15.0849 16.174C15.1836 16.671 14.6545 17.0554 14.2123 16.8079L10.6667 14.8232C10.126 14.5206 9.46692 14.5206 8.92622 14.8232Z" stroke="#EAAC0C" stroke-width="1.18778"/>
</svg>
