<svg width="23" height="21" viewBox="0 0 23 21" fill="none" xmlns="http://www.w3.org/2000/svg">
<path fill-rule="evenodd" clip-rule="evenodd" d="M19.5176 2.11035V9.11035H21.6009V1.11035C21.6009 0.845135 21.4912 0.590781 21.2958 0.403245C21.1005 0.215708 20.8355 0.110352 20.5592 0.110352H1.80924C1.53298 0.110352 1.26803 0.215708 1.07268 0.403245C0.877325 0.590781 0.767578 0.845135 0.767578 1.11035V19.6104L5.4082 16.1104H11.1842V14.1104H4.68737L2.85091 15.4954V2.11035H19.5176Z" fill="#0D458A"/>
<path fill-rule="evenodd" clip-rule="evenodd" d="M13.4204 16.1814C13.2178 15.4806 13.2178 14.7401 13.4204 14.0394L12.4048 13.4764L13.4465 11.7444L14.4631 12.3074C14.9934 11.7883 15.6611 11.4181 16.3944 11.2364V10.1104H18.4777V11.2364C19.2225 11.4204 19.8871 11.7964 20.409 12.3074L21.4256 11.7444L22.4673 13.4764L21.4517 14.0394C21.6543 14.7401 21.6543 15.4806 21.4517 16.1814L22.4673 16.7444L21.4256 18.4764L20.409 17.9134C19.8871 18.4234 19.2215 18.8004 18.4777 18.9844V20.1104H16.3944V18.9844C15.6611 18.8026 14.9934 18.4324 14.4631 17.9134L13.4465 18.4764L12.4048 16.7444L13.4204 16.1814ZM17.436 17.1104C17.9886 17.1104 18.5185 16.8996 18.9092 16.5246C19.2999 16.1495 19.5194 15.6408 19.5194 15.1104C19.5194 14.5799 19.2999 14.0712 18.9092 13.6961C18.5185 13.3211 17.9886 13.1104 17.436 13.1104C16.8835 13.1104 16.3536 13.3211 15.9629 13.6961C15.5722 14.0712 15.3527 14.5799 15.3527 15.1104C15.3527 15.6408 15.5722 16.1495 15.9629 16.5246C16.3536 16.8996 16.8835 17.1104 17.436 17.1104Z" fill="#EAAC0C"/>
</svg>
