<svg width="12" height="12" viewBox="0 0 12 12" fill="none" xmlns="http://www.w3.org/2000/svg">
<g clip-path="url(#clip0_14118_64903)">
<path d="M5.62352 10.4568C3.13899 10.4568 1.125 8.44277 1.125 5.95824C1.125 3.4737 3.13899 1.45972 5.62352 1.45972C8.10805 1.45972 10.122 3.4737 10.122 5.95824C10.122 8.44277 8.10805 10.4568 5.62352 10.4568ZM5.62352 9.55705C6.57799 9.55705 7.49336 9.17789 8.16827 8.50298C8.84318 7.82807 9.22234 6.9127 9.22234 5.95824C9.22234 5.00377 8.84318 4.0884 8.16827 3.41349C7.49336 2.73858 6.57799 2.35942 5.62352 2.35942C4.66905 2.35942 3.75368 2.73858 3.07877 3.41349C2.40386 4.0884 2.0247 5.00377 2.0247 5.95824C2.0247 6.9127 2.40386 7.82807 3.07877 8.50298C3.75368 9.17789 4.66905 9.55705 5.62352 9.55705ZM6.07337 5.95824H7.87278V6.85794H5.17367V3.70898H6.07337V5.95824Z" fill="#0D458A"/>
</g>
<defs>
<clipPath id="clip0_14118_64903">
<rect width="10.7964" height="10.7964" fill="white" transform="translate(0.220703 0.560303)"/>
</clipPath>
</defs>
</svg>
