<svg width="13" height="13" viewBox="0 0 13 13" fill="none" xmlns="http://www.w3.org/2000/svg">
<g clip-path="url(#clip0_14118_79015)">
<path d="M6.56641 1.93213C9.32641 1.93213 11.5664 4.17213 11.5664 6.93213C11.5664 9.69213 9.32641 11.9321 6.56641 11.9321C3.80641 11.9321 1.56641 9.69213 1.56641 6.93213C1.56641 4.17213 3.80641 1.93213 6.56641 1.93213ZM6.56641 10.9321C8.77641 10.9321 10.5664 9.14213 10.5664 6.93213C10.5664 4.72213 8.77641 2.93213 6.56641 2.93213C4.35641 2.93213 2.56641 4.72213 2.56641 6.93213C2.56641 9.14213 4.35641 10.9321 6.56641 10.9321ZM8.33441 4.45713L9.04141 5.16413L6.56641 7.63913L5.85941 6.93213L8.33441 4.45713Z" fill="#5C5C5C"/>
</g>
<defs>
<clipPath id="clip0_14118_79015">
<rect width="12" height="12" fill="white" transform="translate(0.566406 0.932129)"/>
</clipPath>
</defs>
</svg>
