<svg width="21" height="17" viewBox="0 0 21 17" fill="none" xmlns="http://www.w3.org/2000/svg">
<path d="M20.2266 2.23118C19.4749 2.55727 18.68 2.77284 17.8666 2.87118C18.7247 2.3585 19.3678 1.55196 19.6766 0.601179C18.8701 1.08124 17.9873 1.41948 17.0666 1.60118C16.4511 0.933751 15.6315 0.489475 14.7364 0.33803C13.8412 0.186585 12.9211 0.336537 12.1204 0.764368C11.3196 1.1922 10.6835 1.87371 10.3118 2.70202C9.94011 3.53032 9.85385 4.45857 10.0666 5.34118C8.43599 5.2587 6.841 4.83413 5.38522 4.09504C3.92943 3.35595 2.64541 2.31887 1.61656 1.05118C1.2557 1.68135 1.06608 2.395 1.06656 3.12118C1.06528 3.79556 1.23078 4.4598 1.54832 5.05474C1.86586 5.64969 2.32558 6.15689 2.88656 6.53118C2.23454 6.51344 1.59645 6.33848 1.02656 6.02118V6.07118C1.03145 7.01607 1.36256 7.93027 1.96388 8.65914C2.5652 9.38802 3.39982 9.88682 4.32656 10.0712C3.96982 10.1797 3.59944 10.237 3.22656 10.2412C2.96845 10.2382 2.71098 10.2148 2.45656 10.1712C2.72047 10.984 3.23119 11.6943 3.91764 12.2033C4.60409 12.7124 5.43214 12.9947 6.28656 13.0112C4.84377 14.1464 3.06245 14.766 1.22656 14.7712C0.892298 14.7723 0.558298 14.7522 0.226562 14.7112C2.10099 15.9214 4.28538 16.5639 6.51656 16.5612C8.05625 16.5772 9.5837 16.2862 11.0097 15.7053C12.4357 15.1243 13.7316 14.2651 14.8218 13.1777C15.9119 12.0903 16.7745 10.7966 17.3591 9.37208C17.9437 7.9476 18.2386 6.42091 18.2266 4.88118C18.2266 4.71118 18.2266 4.53118 18.2266 4.35118C19.0113 3.76599 19.688 3.0486 20.2266 2.23118Z" fill="black"/>
</svg>
