<svg width="25" height="25" viewBox="0 0 25 25" fill="none" xmlns="http://www.w3.org/2000/svg">
<path d="M22.9465 5.76628C22.183 6.10397 21.3734 6.32575 20.5445 6.42428C21.4182 5.90171 22.0722 5.07929 22.3845 4.11028C21.5645 4.59828 20.6655 4.94028 19.7285 5.12528C19.0991 4.45186 18.2648 4.00524 17.3554 3.85486C16.446 3.70448 15.5124 3.85877 14.6997 4.29373C13.8871 4.72869 13.2409 5.41996 12.8616 6.26007C12.4823 7.10018 12.3912 8.04206 12.6025 8.93928C10.9396 8.85593 9.31281 8.4238 7.82776 7.67094C6.34272 6.91808 5.0326 5.86133 3.98248 4.56928C3.61077 5.20773 3.41543 5.9335 3.41648 6.67228C3.41648 8.12228 4.15448 9.40328 5.27648 10.1533C4.61249 10.1324 3.96311 9.95306 3.38248 9.63028V9.68228C3.38268 10.648 3.71685 11.5839 4.32832 12.3313C4.9398 13.0788 5.79096 13.5918 6.73748 13.7833C6.12109 13.9503 5.47478 13.9749 4.84748 13.8553C5.11434 14.6865 5.63448 15.4135 6.33507 15.9344C7.03565 16.4553 7.8816 16.7441 8.75448 16.7603C7.88696 17.4416 6.89365 17.9453 5.83136 18.2424C4.76906 18.5396 3.6586 18.6245 2.56348 18.4923C4.47517 19.7217 6.70057 20.3744 8.97348 20.3723C16.6665 20.3723 20.8735 13.9993 20.8735 8.47228C20.8735 8.29228 20.8685 8.11028 20.8605 7.93228C21.6793 7.34045 22.3861 6.6073 22.9475 5.76728L22.9465 5.76628Z" fill="#173963"/>
</svg>
