<svg width="34" height="34" viewBox="0 0 34 34" fill="none" xmlns="http://www.w3.org/2000/svg">
<g clip-path="url(#clip0_14118_68042)">
<path fill-rule="evenodd" clip-rule="evenodd" d="M17.3205 27.5642C17.189 26.9424 17.0125 26.4817 16.9251 25.7832C16.8339 25.0537 16.8847 24.4572 16.9361 23.7716C16.9926 22.9219 17.5393 21.2063 17.9655 20.7337C18.1302 20.2593 18.8974 19.318 19.1715 19.0585C19.6349 18.6198 20.1673 18.1529 20.7145 17.8575C21.1157 17.2165 23.6878 16.7081 23.7122 16.6441C23.7204 16.6226 23.7444 16.6284 23.7586 16.6177C23.7366 15.6782 23.9109 13.9237 23.6355 13.2564C23.2137 12.2346 22.3331 12.4346 20.9832 12.4273L18.2117 12.4268H7.2547L5.85586 12.4313C5.85586 16.8558 5.86674 21.2815 5.85549 25.7058C5.85271 26.8019 6.14467 27.5187 7.25682 27.5551C10.4326 27.6592 14.1095 27.4072 17.3205 27.5642Z" fill="#0D458A"/>
<path fill-rule="evenodd" clip-rule="evenodd" d="M18.9719 30.3454C18.8342 30.125 18.6661 29.9565 18.5006 29.7344C18.3438 29.524 18.2105 29.3253 18.0599 29.0796C17.7487 28.5719 17.6028 28.078 17.321 27.5634C14.1101 27.4064 10.4331 27.6583 7.25733 27.5542C6.14518 27.5178 5.85322 26.801 5.856 25.7049C5.86726 21.2806 5.85638 16.8549 5.85638 12.4305L4.48374 12.4272C3.72999 12.4279 2.82218 12.3308 2.35661 12.6206C1.77302 12.9838 1.71106 13.4233 1.71223 14.3609L1.71185 28.6056C1.70911 29.0784 1.70139 29.2729 1.88244 29.5951C2.41848 30.5492 3.45206 30.3454 4.67716 30.3454C9.4421 30.3454 14.207 30.3454 18.9719 30.3454H18.9719Z" fill="#0D458A"/>
<path fill-rule="evenodd" clip-rule="evenodd" d="M4.48304 12.4277L5.85567 12.4309L7.25451 12.4264C7.25451 11.1808 7.25484 9.93511 7.25447 8.6895C7.25409 7.15085 7.55469 6.06133 8.32181 5.05175C8.46184 4.86742 8.60439 4.67603 8.75205 4.51521C11.706 1.29776 18.215 2.71757 18.2115 8.62502C18.2108 9.89214 18.2115 11.1593 18.2115 12.4263L20.983 12.4268C20.983 8.04865 21.5399 6.1781 18.9479 2.8612C18.7436 2.59972 18.5714 2.40805 18.3214 2.19868C18.0676 1.9862 17.8721 1.82915 17.604 1.62705C17.3176 1.41121 17.1335 1.30956 16.8216 1.12029C15.7499 0.469807 14.4962 0.11743 13.2161 0.0527344H12.3509C10.738 0.133333 9.13881 0.664557 7.86189 1.62705C5.91871 3.09171 4.89803 4.86617 4.52714 7.31575C4.35116 8.47789 4.48291 11.0417 4.48291 12.4276L4.48304 12.4277Z" fill="url(#paint0_linear_14118_68042)"/>
<path fill-rule="evenodd" clip-rule="evenodd" d="M16.9363 23.7714C16.8849 24.457 16.8341 25.0536 16.9254 25.7831C17.0127 26.4815 17.1892 26.9423 17.3207 27.564C17.6024 28.0787 17.7484 28.5725 18.0596 29.0803C18.2102 29.3259 18.3435 29.5246 18.5003 29.735C18.6658 29.9571 18.8339 30.1256 18.9715 30.346C19.6714 31.2118 21.0028 32.0256 22.0156 32.472C22.626 32.7409 23.2831 32.8856 24.0655 33.0001C24.2298 33.0242 24.5063 33.0435 24.8171 33.053H25.6213C25.9807 33.0408 26.2999 33.0099 26.462 32.9526C27.5797 32.7609 28.4512 32.4323 29.2453 31.9573C29.9134 31.5604 31.3348 30.4772 31.6463 29.8304C31.8646 29.6266 32.1841 29.0763 32.3647 28.7722C32.5848 28.4015 32.7852 27.9133 32.9319 27.4702C33.3017 26.3533 33.3584 25.7175 33.3584 24.2596C33.3584 22.4395 32.2385 20.2343 30.9578 18.9536C30.3802 18.376 29.4588 17.6979 28.6968 17.3475C27.93 16.9949 26.6646 16.553 25.5912 16.553C25.2793 16.553 24.9668 16.5504 24.6551 16.5508C24.2569 16.5514 24.1588 16.6175 23.7588 16.6175C23.7446 16.6283 23.7206 16.6225 23.7124 16.644C23.688 16.708 21.1159 17.2164 20.7147 17.8573C20.1675 18.1528 19.6351 18.6196 19.1717 19.0584C18.8976 19.3179 18.1305 20.2591 17.9657 20.7336C17.5395 21.2061 16.9928 22.9218 16.9363 23.7714V23.7714ZM25.6204 22.8973C25.6331 22.8848 25.6519 22.8479 25.6577 22.8592C25.6634 22.8703 25.6863 22.8301 25.694 22.8212L25.9148 22.5114C25.996 22.3846 26.0731 22.2678 26.1686 22.122C26.3044 21.9146 26.5456 21.4918 26.7197 21.324L28.9817 22.7861C28.8721 23.0609 28.7145 23.2237 28.5535 23.4777C28.4197 23.6888 28.2822 23.9038 28.1195 24.1437C27.8135 24.5945 27.5201 25.0289 27.2038 25.5046C26.9801 25.9026 26.6913 26.2667 26.4395 26.6483C26.129 27.1187 25.9811 27.3741 25.3021 27.5247L24.9913 27.5103L25.0242 27.5446C24.4717 27.506 23.7967 27.0703 23.418 26.8791C22.8712 26.603 22.295 26.325 21.762 26.048C21.8628 25.6791 22.2014 25.2407 22.2403 24.9212C22.429 24.7733 22.4906 24.5473 22.6341 24.257C22.7463 24.03 22.8528 23.7856 22.9796 23.5792L24.6367 24.3922C24.9618 23.9239 25.327 23.3899 25.6204 22.8972V22.8973Z" fill="url(#paint1_linear_14118_68042)"/>
<path fill-rule="evenodd" clip-rule="evenodd" d="M12.7344 26.1823L14.1089 26.1764L14.1094 21.7086C14.3347 21.4866 14.4953 21.4476 14.6794 21.2686C16.1576 19.8321 15.4776 16.984 13.3148 16.6279C13.2649 16.6888 12.7437 16.9228 12.6475 16.9799C12.0198 17.3518 11.5127 18.0735 11.3917 18.8833C11.0979 20.8491 12.6876 21.5306 12.7344 21.7731V26.1823V26.1823Z" fill="url(#paint2_linear_14118_68042)"/>
<path fill-rule="evenodd" clip-rule="evenodd" d="M25.6201 22.8974C25.3267 23.3901 24.9615 23.924 24.6364 24.3924L22.9793 23.5794C22.8525 23.7858 22.746 24.0302 22.6338 24.2572C22.4903 24.5475 22.4287 24.7735 22.24 24.9214C22.2011 25.2409 21.8625 25.6793 21.7617 26.0482C22.2947 26.3252 22.8709 26.6031 23.4177 26.8793C23.863 27.1041 24.718 27.667 25.3018 27.5249C25.9808 27.3743 26.1287 27.1189 26.4392 26.6485C26.6911 26.2669 26.9798 25.9028 27.2035 25.5048C27.5198 25.0291 27.8132 24.5947 28.1192 24.1439C28.2819 23.904 28.4194 23.689 28.5532 23.4779C28.7142 23.2239 28.8718 23.0611 28.9814 22.7863L26.7195 21.3242C26.5453 21.492 26.3041 21.9148 26.1683 22.1222C26.0728 22.2679 25.9957 22.3848 25.9145 22.5116L25.6937 22.8214C25.686 22.8303 25.663 22.8705 25.6574 22.8594C25.6516 22.8481 25.6327 22.885 25.6201 22.8975V22.8974Z" fill="#FEFFFF"/>
<path fill-rule="evenodd" clip-rule="evenodd" d="M12.7335 26.1824V21.7732C12.6867 21.5308 11.097 20.8492 11.3907 18.8834C11.5117 18.0737 12.0188 17.3519 12.6465 16.98C12.7428 16.923 13.2639 16.6889 13.3139 16.6281C11.9468 16.0515 9.16072 17.7511 10.1965 20.3794C10.3036 20.651 10.5215 20.9746 10.6737 21.127C10.9506 21.4044 11.3165 21.6404 11.3484 21.7731V26.1348C11.7016 26.2639 12.3384 26.1953 12.7335 26.1823V26.1824Z" fill="#4EDAA4"/>
</g>
<defs>
<linearGradient id="paint0_linear_14118_68042" x1="12.7344" y1="0.0527344" x2="12.7344" y2="12.4309" gradientUnits="userSpaceOnUse">
<stop stop-color="#0D458A"/>
<stop offset="1" stop-color="#3AA64C"/>
</linearGradient>
<linearGradient id="paint1_linear_14118_68042" x1="25.1167" y1="16.5508" x2="25.1167" y2="33.053" gradientUnits="userSpaceOnUse">
<stop stop-color="#0D458A"/>
<stop offset="1" stop-color="#3AA64C"/>
</linearGradient>
<linearGradient id="paint2_linear_14118_68042" x1="13.4119" y1="16.6279" x2="13.4119" y2="26.1823" gradientUnits="userSpaceOnUse">
<stop stop-color="#0D458A"/>
<stop offset="1" stop-color="#3AA64C"/>
</linearGradient>
<clipPath id="clip0_14118_68042">
<rect width="33" height="33" fill="white" transform="translate(0.359375 0.0527344)"/>
</clipPath>
</defs>
</svg>
