<svg width="436" height="274" viewBox="0 0 436 274" fill="none" xmlns="http://www.w3.org/2000/svg">
<g filter="url(#filter0_b_14118_61402)">
<rect x="401.598" y="24.1731" width="229.452" height="367.569" rx="22.2769" transform="rotate(90 401.598 24.1731)" fill="url(#paint0_radial_14118_61402)"/>
<rect x="402.572" y="23.1985" width="231.401" height="369.518" rx="23.2515" transform="rotate(90 402.572 23.1985)" stroke="url(#paint1_radial_14118_61402)" stroke-width="1.94923"/>
<rect x="402.572" y="23.1985" width="231.401" height="369.518" rx="23.2515" transform="rotate(90 402.572 23.1985)" stroke="url(#paint2_linear_14118_61402)" stroke-width="1.94923"/>
</g>
<rect x="64.1035" y="103.256" width="44.5538" height="38.9845" rx="8.35383" stroke="#E5B332" stroke-opacity="0.5" stroke-width="1.67077"/>
<path d="M81.0894 103.256L81.0894 142.241M64.6602 110.775H81.3678M64.6602 121.913H81.3678M64.6602 133.051H81.3678M91.9493 121.913H108.657M91.9493 133.051H108.657M92.5063 142.241C92.5063 142.241 92.5062 140.836 92.5063 125.666C92.5064 110.496 92.5064 110.496 108.657 110.496" stroke="#E6B332" stroke-opacity="0.3" stroke-width="1.67077"/>
<circle cx="348.244" cy="63.7817" r="11.912" fill="#EB001B"/>
<circle cx="361.267" cy="63.7817" r="11.912" fill="#F79E1B"/>
<path d="M66.4092 205.639C65.8225 205.639 65.3287 205.483 64.9278 205.171C64.5305 204.859 64.2557 204.44 64.1035 203.913L65.2563 203.64C65.3083 203.888 65.4401 204.102 65.6518 204.28C65.8671 204.455 66.1066 204.542 66.3702 204.542C66.5447 204.542 66.7266 204.497 66.916 204.408C67.1053 204.319 67.2464 204.174 67.3392 203.974C67.4024 203.84 67.4395 203.688 67.4506 203.517C67.4618 203.343 67.4673 203.14 67.4673 202.91V197.458H68.648V202.91C68.648 203.148 68.6461 203.359 68.6424 203.545C68.6424 203.731 68.6239 203.905 68.5867 204.069C68.5533 204.232 68.4865 204.401 68.3862 204.575C68.1746 204.943 67.8962 205.212 67.5509 205.383C67.2056 205.554 66.825 205.639 66.4092 205.639ZM72.9339 205.645C72.3324 205.645 71.8107 205.509 71.3689 205.238C70.9271 204.967 70.5855 204.594 70.3442 204.119C70.1066 203.64 69.9877 203.088 69.9877 202.465C69.9877 201.837 70.1103 201.286 70.3553 200.811C70.6004 200.332 70.9438 199.96 71.3856 199.697C71.8274 199.429 72.3435 199.296 72.9339 199.296C73.5353 199.296 74.057 199.431 74.4988 199.702C74.9406 199.973 75.2822 200.346 75.5235 200.822C75.7649 201.297 75.8855 201.845 75.8855 202.465C75.8855 203.092 75.763 203.645 75.518 204.124C75.2766 204.599 74.9351 204.973 74.4932 205.244C74.0514 205.511 73.5316 205.645 72.9339 205.645ZM72.9339 204.547C73.5093 204.547 73.9382 204.354 74.2204 203.968C74.5062 203.578 74.6492 203.077 74.6492 202.465C74.6492 201.837 74.5044 201.336 74.2148 200.961C73.9289 200.582 73.5019 200.393 72.9339 200.393C72.544 200.393 72.2229 200.482 71.9704 200.66C71.7179 200.835 71.5304 201.078 71.4079 201.39C71.2854 201.698 71.2241 202.056 71.2241 202.465C71.2241 203.096 71.3689 203.601 71.6585 203.979C71.9481 204.358 72.3732 204.547 72.9339 204.547ZM81.3309 205.478V202.52C81.3309 202.286 81.3104 202.047 81.2696 201.802C81.2325 201.553 81.1582 201.323 81.0468 201.111C80.9392 200.9 80.7851 200.729 80.5846 200.599C80.3878 200.469 80.1298 200.404 79.8105 200.404C79.6025 200.404 79.4058 200.439 79.2201 200.51C79.0345 200.577 78.8711 200.686 78.73 200.838C78.5927 200.991 78.4831 201.191 78.4014 201.44C78.3235 201.689 78.2845 201.991 78.2845 202.348L77.5605 202.075C77.5605 201.529 77.6626 201.048 77.8668 200.632C78.071 200.213 78.3643 199.886 78.7467 199.652C79.1292 199.418 79.5914 199.301 80.1335 199.301C80.5493 199.301 80.8983 199.368 81.1805 199.502C81.4627 199.635 81.691 199.812 81.8655 200.031C82.0437 200.246 82.1792 200.482 82.2721 200.738C82.3649 200.994 82.428 201.245 82.4614 201.49C82.4948 201.735 82.5115 201.95 82.5115 202.136V205.478H81.3309ZM77.1038 205.478V197.458H78.1453V201.785H78.2845V205.478H77.1038ZM88.1836 205.478V202.52C88.1836 202.286 88.1632 202.047 88.1223 201.802C88.0852 201.553 88.011 201.323 87.8996 201.111C87.7919 200.9 87.6378 200.729 87.4373 200.599C87.2406 200.469 86.9825 200.404 86.6632 200.404C86.4553 200.404 86.2585 200.439 86.0729 200.51C85.8872 200.577 85.7239 200.686 85.5828 200.838C85.4454 200.991 85.3359 201.191 85.2542 201.44C85.1762 201.689 85.1372 201.991 85.1372 202.348L84.4132 202.075C84.4132 201.529 84.5153 201.048 84.7196 200.632C84.9238 200.213 85.2171 199.886 85.5995 199.652C85.9819 199.418 86.4442 199.301 86.9862 199.301C87.4021 199.301 87.7511 199.368 88.0332 199.502C88.3154 199.635 88.5437 199.812 88.7183 200.031C88.8965 200.246 89.032 200.482 89.1248 200.738C89.2176 200.994 89.2807 201.245 89.3142 201.49C89.3476 201.735 89.3643 201.95 89.3643 202.136V205.478H88.1836ZM83.9566 205.478V199.463H84.998V201.2H85.1372V205.478H83.9566ZM93.0448 205.478V197.458H95.5565C95.6307 197.458 95.7681 197.46 95.9686 197.463C96.1728 197.467 96.3677 197.482 96.5534 197.508C97.1808 197.586 97.708 197.811 98.135 198.182C98.5657 198.553 98.8906 199.025 99.1096 199.596C99.3287 200.165 99.4382 200.788 99.4382 201.468C99.4382 202.151 99.3287 202.778 99.1096 203.35C98.8906 203.918 98.5657 204.388 98.135 204.759C97.708 205.127 97.1808 205.349 96.5534 205.427C96.3677 205.453 96.1728 205.468 95.9686 205.472C95.7681 205.476 95.6307 205.478 95.5565 205.478H93.0448ZM94.2366 204.369H95.5565C95.6827 204.369 95.8331 204.366 96.0076 204.358C96.1821 204.351 96.3362 204.336 96.4698 204.314C96.8782 204.236 97.2087 204.059 97.4611 203.784C97.7173 203.506 97.9048 203.164 98.0236 202.76C98.1424 202.355 98.2018 201.924 98.2018 201.468C98.2018 200.996 98.1406 200.56 98.0181 200.159C97.8955 199.754 97.7062 199.416 97.45 199.145C97.1975 198.871 96.8708 198.696 96.4698 198.622C96.3362 198.596 96.1802 198.581 96.002 198.577C95.8275 198.57 95.679 198.566 95.5565 198.566H94.2366V204.369ZM103.347 205.645C102.746 205.645 102.224 205.509 101.782 205.238C101.34 204.967 100.999 204.594 100.757 204.119C100.52 203.64 100.401 203.088 100.401 202.465C100.401 201.837 100.523 201.286 100.768 200.811C101.014 200.332 101.357 199.96 101.799 199.697C102.241 199.429 102.757 199.296 103.347 199.296C103.948 199.296 104.47 199.431 104.912 199.702C105.354 199.973 105.695 200.346 105.937 200.822C106.178 201.297 106.299 201.845 106.299 202.465C106.299 203.092 106.176 203.645 105.931 204.124C105.69 204.599 105.348 204.973 104.906 205.244C104.465 205.511 103.945 205.645 103.347 205.645ZM103.347 204.547C103.923 204.547 104.351 204.354 104.634 203.968C104.919 203.578 105.062 203.077 105.062 202.465C105.062 201.837 104.918 201.336 104.628 200.961C104.342 200.582 103.915 200.393 103.347 200.393C102.957 200.393 102.636 200.482 102.384 200.66C102.131 200.835 101.944 201.078 101.821 201.39C101.699 201.698 101.637 202.056 101.637 202.465C101.637 203.096 101.782 203.601 102.072 203.979C102.361 204.358 102.786 204.547 103.347 204.547ZM110.19 205.645C109.592 205.645 109.067 205.515 108.614 205.255C108.165 204.991 107.814 204.625 107.562 204.158C107.313 203.686 107.188 203.14 107.188 202.52C107.188 201.863 107.311 201.293 107.556 200.811C107.805 200.328 108.15 199.955 108.592 199.691C109.034 199.428 109.548 199.296 110.135 199.296C110.747 199.296 111.269 199.439 111.699 199.725C112.13 200.007 112.451 200.41 112.663 200.933C112.878 201.457 112.964 202.078 112.919 202.799H111.755V202.375C111.748 201.677 111.614 201.161 111.354 200.827C111.098 200.493 110.706 200.326 110.179 200.326C109.596 200.326 109.158 200.51 108.865 200.877C108.571 201.245 108.425 201.776 108.425 202.47C108.425 203.131 108.571 203.643 108.865 204.007C109.158 204.367 109.581 204.547 110.135 204.547C110.498 204.547 110.812 204.466 111.076 204.302C111.343 204.135 111.551 203.898 111.699 203.59L112.841 203.952C112.607 204.49 112.253 204.908 111.777 205.205C111.302 205.498 110.773 205.645 110.19 205.645ZM108.046 202.799V201.891H112.34V202.799H108.046Z" fill="#DCDCDC"/>
<path d="M278.467 205.478V198.739L276.957 199.658V198.36L278.467 197.458H279.653V205.478H278.467ZM281.545 205.472L281.551 204.436L285.042 201.306C285.325 201.057 285.516 200.82 285.616 200.593C285.72 200.367 285.772 200.14 285.772 199.914C285.772 199.628 285.709 199.372 285.583 199.145C285.456 198.915 285.282 198.733 285.059 198.6C284.836 198.466 284.58 198.399 284.291 198.399C283.994 198.399 283.728 198.47 283.494 198.611C283.264 198.748 283.084 198.932 282.954 199.162C282.824 199.392 282.761 199.641 282.765 199.908H281.573C281.573 199.389 281.69 198.934 281.924 198.544C282.161 198.15 282.486 197.844 282.898 197.625C283.31 197.402 283.782 197.291 284.313 197.291C284.818 197.291 285.271 197.406 285.672 197.636C286.073 197.863 286.388 198.174 286.619 198.572C286.852 198.969 286.969 199.422 286.969 199.931C286.969 200.298 286.921 200.61 286.825 200.866C286.728 201.122 286.583 201.36 286.39 201.579C286.197 201.798 285.956 202.036 285.666 202.292L282.971 204.698L282.843 204.364H286.969V205.472H281.545ZM290.332 197.458H291.507L289.369 205.478H288.194L290.332 197.458ZM292.738 205.472L292.743 204.436L296.235 201.306C296.517 201.057 296.709 200.82 296.809 200.593C296.913 200.367 296.965 200.14 296.965 199.914C296.965 199.628 296.902 199.372 296.776 199.145C296.649 198.915 296.475 198.733 296.252 198.6C296.029 198.466 295.773 198.399 295.483 198.399C295.186 198.399 294.921 198.47 294.687 198.611C294.457 198.748 294.277 198.932 294.147 199.162C294.017 199.392 293.954 199.641 293.958 199.908H292.766C292.766 199.389 292.883 198.934 293.117 198.544C293.354 198.15 293.679 197.844 294.091 197.625C294.503 197.402 294.975 197.291 295.506 197.291C296.011 197.291 296.464 197.406 296.865 197.636C297.266 197.863 297.581 198.174 297.811 198.572C298.045 198.969 298.162 199.422 298.162 199.931C298.162 200.298 298.114 200.61 298.017 200.866C297.921 201.122 297.776 201.36 297.583 201.579C297.39 201.798 297.149 202.036 296.859 202.292L294.164 204.698L294.035 204.364H298.162V205.472H292.738ZM301.876 205.645C301.464 205.645 301.08 205.561 300.723 205.394C300.37 205.223 300.068 204.989 299.815 204.692C299.563 204.392 299.383 204.046 299.275 203.656L300.395 203.356C300.458 203.593 300.565 203.799 300.718 203.974C300.874 204.148 301.055 204.284 301.263 204.38C301.471 204.473 301.687 204.52 301.909 204.52C302.203 204.52 302.468 204.449 302.706 204.308C302.947 204.167 303.136 203.978 303.274 203.74C303.415 203.502 303.485 203.241 303.485 202.955C303.485 202.661 303.413 202.396 303.268 202.158C303.127 201.921 302.936 201.733 302.695 201.596C302.457 201.455 302.195 201.384 301.909 201.384C301.583 201.384 301.306 201.449 301.08 201.579C300.853 201.709 300.677 201.859 300.551 202.03L299.537 201.674L299.782 197.458H304.109V198.555H300.378L300.851 198.115L300.656 201.273L300.428 200.978C300.64 200.766 300.892 200.604 301.185 200.493C301.479 200.382 301.77 200.326 302.06 200.326C302.557 200.326 303.001 200.441 303.391 200.671C303.784 200.901 304.094 201.215 304.321 201.613C304.547 202.006 304.661 202.453 304.661 202.955C304.661 203.452 304.532 203.905 304.276 204.314C304.02 204.718 303.68 205.041 303.257 205.283C302.834 205.524 302.373 205.645 301.876 205.645Z" fill="#DCDCDC"/>
<path d="M67.5876 233.641V222.859L65.1728 224.329V222.253L67.5876 220.809H69.4856V233.641H67.5876ZM75.1863 233.632L75.1952 231.974L80.7822 226.966C81.2337 226.568 81.5396 226.188 81.7 225.826C81.8664 225.464 81.9495 225.101 81.9495 224.739C81.9495 224.281 81.8485 223.871 81.6466 223.509C81.4446 223.141 81.1654 222.85 80.8089 222.636C80.4525 222.422 80.0426 222.315 79.5793 222.315C79.104 222.315 78.6793 222.428 78.305 222.654C77.9367 222.873 77.6486 223.168 77.4407 223.536C77.2328 223.904 77.1318 224.302 77.1377 224.73H75.2308C75.2308 223.898 75.4179 223.17 75.7922 222.547C76.1724 221.917 76.6922 221.427 77.3516 221.076C78.011 220.72 78.7654 220.542 79.6149 220.542C80.4228 220.542 81.1476 220.726 81.7891 221.094C82.4307 221.457 82.9356 221.956 83.304 222.591C83.6782 223.227 83.8653 223.952 83.8653 224.766C83.8653 225.354 83.7881 225.853 83.6337 226.263C83.4792 226.672 83.2475 227.053 82.9386 227.403C82.6297 227.754 82.2436 228.134 81.7802 228.544L77.4674 232.393L77.2625 231.858H83.8653V233.632H75.1863ZM92.2666 233.881C91.631 233.881 91.034 233.762 90.4756 233.525C89.9172 233.281 89.433 232.937 89.0231 232.491C88.6192 232.046 88.3251 231.52 88.141 230.914L89.9409 230.415C90.1132 230.967 90.4132 231.392 90.8409 231.689C91.2686 231.98 91.7439 232.123 92.2666 232.117C92.7359 232.111 93.1488 232.001 93.5052 231.787C93.8617 231.573 94.1409 231.285 94.3429 230.923C94.5448 230.555 94.6458 230.133 94.6458 229.658C94.6458 228.945 94.423 228.357 93.9775 227.893C93.5379 227.43 92.9617 227.198 92.2488 227.198C92.0468 227.198 91.8389 227.228 91.6251 227.287C91.4172 227.347 91.2211 227.424 91.037 227.519L90.1637 226.049L94.6904 222.048L94.8864 222.582H88.6489V220.809H96.3656V222.582L92.6053 226.2L92.5874 225.594C93.3953 225.594 94.0963 225.775 94.6904 226.138C95.2844 226.494 95.7418 226.981 96.0626 227.599C96.3894 228.211 96.5527 228.897 96.5527 229.658C96.5527 230.477 96.3597 231.205 95.9735 231.841C95.5933 232.476 95.0795 232.975 94.432 233.338C93.7904 233.7 93.0686 233.881 92.2666 233.881ZM106.983 233.641V231.404H101.191V229.64L105.361 220.809H107.491L103.321 229.64H106.983V226.165H108.872V229.64H110.146V231.404H108.872V233.641H106.983ZM132.876 233.641V231.404H127.084V229.64L131.255 220.809H133.384L129.214 229.64H132.876V226.165H134.766V229.64H136.04V231.404H134.766V233.641H132.876ZM144.657 233.908C143.998 233.908 143.383 233.774 142.813 233.507C142.248 233.234 141.764 232.859 141.36 232.384C140.956 231.903 140.668 231.351 140.496 230.727L142.287 230.246C142.388 230.626 142.56 230.956 142.804 231.235C143.053 231.514 143.344 231.731 143.677 231.885C144.01 232.034 144.354 232.108 144.711 232.108C145.18 232.108 145.605 231.995 145.985 231.769C146.371 231.544 146.674 231.241 146.894 230.86C147.119 230.48 147.232 230.061 147.232 229.604C147.232 229.135 147.117 228.71 146.885 228.33C146.659 227.95 146.353 227.65 145.967 227.43C145.587 227.204 145.168 227.091 144.711 227.091C144.188 227.091 143.745 227.195 143.383 227.403C143.021 227.611 142.738 227.852 142.536 228.125L140.915 227.555L141.307 220.809H148.23V222.565H142.26L143.018 221.861L142.706 226.913L142.34 226.441C142.679 226.102 143.083 225.844 143.552 225.666C144.022 225.487 144.488 225.398 144.951 225.398C145.747 225.398 146.457 225.582 147.081 225.951C147.711 226.319 148.207 226.821 148.569 227.457C148.931 228.086 149.113 228.802 149.113 229.604C149.113 230.4 148.908 231.125 148.498 231.778C148.088 232.426 147.544 232.943 146.867 233.329C146.19 233.715 145.453 233.908 144.657 233.908ZM158.326 233.908C157.495 233.908 156.746 233.712 156.081 233.32C155.416 232.922 154.887 232.378 154.495 231.689C154.109 231 153.916 230.216 153.916 229.337V225.247C153.916 224.314 154.109 223.494 154.495 222.787C154.887 222.08 155.427 221.531 156.117 221.139C156.812 220.747 157.611 220.551 158.513 220.551C159.191 220.551 159.826 220.678 160.42 220.934C161.014 221.189 161.528 221.57 161.962 222.074L160.599 223.349C160.355 223.034 160.049 222.784 159.681 222.6C159.318 222.41 158.929 222.315 158.513 222.315C157.979 222.315 157.51 222.443 157.106 222.698C156.702 222.948 156.384 223.277 156.152 223.687C155.926 224.097 155.814 224.537 155.814 225.006V227.359L155.448 226.949C155.817 226.467 156.274 226.087 156.82 225.808C157.367 225.529 157.952 225.389 158.576 225.389C159.372 225.389 160.082 225.576 160.706 225.951C161.335 226.319 161.828 226.821 162.185 227.457C162.547 228.092 162.728 228.808 162.728 229.604C162.728 230.406 162.526 231.134 162.122 231.787C161.724 232.435 161.19 232.952 160.518 233.338C159.853 233.718 159.122 233.908 158.326 233.908ZM158.326 232.117C158.79 232.117 159.212 232.004 159.592 231.778C159.972 231.553 160.275 231.25 160.501 230.869C160.726 230.489 160.839 230.067 160.839 229.604C160.839 229.141 160.726 228.719 160.501 228.339C160.281 227.959 159.981 227.656 159.601 227.43C159.22 227.204 158.799 227.091 158.335 227.091C157.872 227.091 157.447 227.204 157.061 227.43C156.681 227.656 156.378 227.959 156.152 228.339C155.926 228.719 155.814 229.141 155.814 229.604C155.814 230.061 155.926 230.48 156.152 230.86C156.378 231.241 156.681 231.547 157.061 231.778C157.441 232.004 157.863 232.117 158.326 232.117ZM168.326 233.641L172.835 222.582H167.123V220.809H174.84V222.582L170.34 233.641H168.326ZM196.249 233.908C195.412 233.908 194.669 233.742 194.021 233.409C193.38 233.07 192.875 232.601 192.507 232.001C192.144 231.401 191.963 230.706 191.963 229.916C191.963 229.179 192.135 228.505 192.48 227.893C192.824 227.281 193.338 226.8 194.021 226.45L193.986 227.091C193.439 226.753 193.018 226.331 192.72 225.826C192.429 225.315 192.284 224.745 192.284 224.115C192.284 223.384 192.453 222.752 192.792 222.217C193.13 221.682 193.597 221.27 194.191 220.978C194.791 220.687 195.477 220.542 196.249 220.542C197.021 220.542 197.705 220.687 198.299 220.978C198.893 221.27 199.359 221.682 199.698 222.217C200.036 222.752 200.206 223.384 200.206 224.115C200.206 224.745 200.066 225.312 199.787 225.817C199.508 226.322 199.08 226.747 198.504 227.091L198.477 226.467C199.154 226.8 199.668 227.275 200.018 227.893C200.369 228.505 200.544 229.179 200.544 229.916C200.544 230.706 200.36 231.401 199.992 232.001C199.623 232.601 199.115 233.07 198.468 233.409C197.82 233.742 197.081 233.908 196.249 233.908ZM196.249 232.135C196.938 232.135 197.497 231.948 197.924 231.573C198.352 231.193 198.566 230.641 198.566 229.916C198.566 229.191 198.352 228.639 197.924 228.259C197.503 227.872 196.944 227.679 196.249 227.679C195.554 227.679 194.993 227.872 194.565 228.259C194.143 228.639 193.932 229.191 193.932 229.916C193.932 230.641 194.146 231.193 194.574 231.573C195.002 231.948 195.56 232.135 196.249 232.135ZM196.249 225.897C196.837 225.897 197.312 225.752 197.675 225.461C198.043 225.164 198.227 224.715 198.227 224.115C198.227 223.515 198.043 223.067 197.675 222.77C197.312 222.467 196.837 222.315 196.249 222.315C195.661 222.315 195.183 222.467 194.815 222.77C194.446 223.067 194.262 223.515 194.262 224.115C194.262 224.715 194.446 225.164 194.815 225.461C195.183 225.752 195.661 225.897 196.249 225.897ZM209.706 220.551C210.531 220.551 211.277 220.75 211.942 221.148C212.607 221.54 213.136 222.08 213.528 222.77C213.92 223.459 214.116 224.246 214.116 225.131V229.212C214.116 230.151 213.92 230.973 213.528 231.68C213.142 232.381 212.601 232.928 211.906 233.32C211.217 233.712 210.421 233.908 209.518 233.908C208.841 233.908 208.206 233.78 207.611 233.525C207.017 233.269 206.501 232.889 206.061 232.384L207.433 231.11C207.677 231.425 207.983 231.677 208.351 231.867C208.719 232.057 209.108 232.153 209.518 232.153C210.047 232.153 210.513 232.025 210.917 231.769C211.327 231.514 211.645 231.181 211.871 230.771C212.097 230.361 212.209 229.922 212.209 229.453V227.1L212.584 227.51C212.215 227.991 211.758 228.371 211.211 228.651C210.665 228.93 210.08 229.069 209.456 229.069C208.654 229.069 207.941 228.885 207.317 228.517C206.694 228.149 206.201 227.647 205.838 227.011C205.476 226.375 205.295 225.657 205.295 224.855C205.295 224.053 205.497 223.328 205.901 222.68C206.305 222.033 206.839 221.516 207.505 221.13C208.17 220.744 208.904 220.551 209.706 220.551ZM209.706 222.351C209.242 222.351 208.817 222.464 208.431 222.689C208.051 222.909 207.748 223.209 207.522 223.589C207.297 223.969 207.184 224.391 207.184 224.855C207.184 225.318 207.297 225.743 207.522 226.129C207.748 226.509 208.051 226.812 208.431 227.038C208.811 227.263 209.233 227.376 209.697 227.376C210.16 227.376 210.582 227.263 210.962 227.038C211.342 226.812 211.645 226.509 211.871 226.129C212.097 225.743 212.209 225.318 212.209 224.855C212.209 224.397 212.097 223.978 211.871 223.598C211.651 223.218 211.351 222.915 210.971 222.689C210.591 222.464 210.169 222.351 209.706 222.351ZM221.514 233.641V222.859L219.099 224.329V222.253L221.514 220.809H223.412V233.641H221.514ZM233.942 233.908C233.069 233.908 232.297 233.718 231.625 233.338C230.954 232.952 230.425 232.423 230.039 231.752C229.659 231.08 229.469 230.308 229.469 229.435V225.015C229.469 224.142 229.659 223.369 230.039 222.698C230.425 222.027 230.954 221.501 231.625 221.121C232.297 220.735 233.069 220.542 233.942 220.542C234.815 220.542 235.588 220.735 236.259 221.121C236.93 221.501 237.456 222.027 237.836 222.698C238.222 223.369 238.415 224.142 238.415 225.015V229.435C238.415 230.308 238.222 231.08 237.836 231.752C237.456 232.423 236.93 232.952 236.259 233.338C235.588 233.718 234.815 233.908 233.942 233.908ZM233.942 232.126C234.417 232.126 234.848 232.013 235.234 231.787C235.626 231.556 235.938 231.247 236.17 230.86C236.402 230.468 236.517 230.032 236.517 229.551V224.881C236.517 224.406 236.402 223.975 236.17 223.589C235.938 223.197 235.626 222.888 235.234 222.663C234.848 222.431 234.417 222.315 233.942 222.315C233.467 222.315 233.033 222.431 232.641 222.663C232.255 222.888 231.946 223.197 231.714 223.589C231.483 223.975 231.367 224.406 231.367 224.881V229.551C231.367 230.032 231.483 230.468 231.714 230.86C231.946 231.247 232.255 231.556 232.641 231.787C233.033 232.013 233.467 232.126 233.942 232.126ZM260.229 220.551C261.055 220.551 261.8 220.75 262.465 221.148C263.131 221.54 263.659 222.08 264.051 222.77C264.444 223.459 264.64 224.246 264.64 225.131V229.212C264.64 230.151 264.444 230.973 264.051 231.68C263.665 232.381 263.125 232.928 262.43 233.32C261.741 233.712 260.945 233.908 260.042 233.908C259.364 233.908 258.729 233.78 258.135 233.525C257.541 233.269 257.024 232.889 256.584 232.384L257.957 231.11C258.2 231.425 258.506 231.677 258.874 231.867C259.243 232.057 259.632 232.153 260.042 232.153C260.57 232.153 261.037 232.025 261.441 231.769C261.851 231.514 262.168 231.181 262.394 230.771C262.62 230.361 262.733 229.922 262.733 229.453V227.1L263.107 227.51C262.739 227.991 262.281 228.371 261.735 228.651C261.188 228.93 260.603 229.069 259.979 229.069C259.177 229.069 258.464 228.885 257.841 228.517C257.217 228.149 256.724 227.647 256.362 227.011C255.999 226.375 255.818 225.657 255.818 224.855C255.818 224.053 256.02 223.328 256.424 222.68C256.828 222.033 257.362 221.516 258.028 221.13C258.693 220.744 259.427 220.551 260.229 220.551ZM260.229 222.351C259.765 222.351 259.341 222.464 258.955 222.689C258.574 222.909 258.271 223.209 258.046 223.589C257.82 223.969 257.707 224.391 257.707 224.855C257.707 225.318 257.82 225.743 258.046 226.129C258.271 226.509 258.574 226.812 258.955 227.038C259.335 227.263 259.757 227.376 260.22 227.376C260.683 227.376 261.105 227.263 261.485 227.038C261.865 226.812 262.168 226.509 262.394 226.129C262.62 225.743 262.733 225.318 262.733 224.855C262.733 224.397 262.62 223.978 262.394 223.598C262.174 223.218 261.874 222.915 261.494 222.689C261.114 222.464 260.692 222.351 260.229 222.351ZM273.908 233.908C273.071 233.908 272.328 233.742 271.681 233.409C271.039 233.07 270.534 232.601 270.166 232.001C269.804 231.401 269.622 230.706 269.622 229.916C269.622 229.179 269.795 228.505 270.139 227.893C270.484 227.281 270.998 226.8 271.681 226.45L271.645 227.091C271.099 226.753 270.677 226.331 270.38 225.826C270.089 225.315 269.943 224.745 269.943 224.115C269.943 223.384 270.112 222.752 270.451 222.217C270.79 221.682 271.256 221.27 271.85 220.978C272.45 220.687 273.136 220.542 273.908 220.542C274.681 220.542 275.364 220.687 275.958 220.978C276.552 221.27 277.018 221.682 277.357 222.217C277.696 222.752 277.865 223.384 277.865 224.115C277.865 224.745 277.725 225.312 277.446 225.817C277.167 226.322 276.739 226.747 276.163 227.091L276.136 226.467C276.813 226.8 277.327 227.275 277.678 227.893C278.028 228.505 278.203 229.179 278.203 229.916C278.203 230.706 278.019 231.401 277.651 232.001C277.283 232.601 276.775 233.07 276.127 233.409C275.48 233.742 274.74 233.908 273.908 233.908ZM273.908 232.135C274.598 232.135 275.156 231.948 275.584 231.573C276.011 231.193 276.225 230.641 276.225 229.916C276.225 229.191 276.011 228.639 275.584 228.259C275.162 227.872 274.603 227.679 273.908 227.679C273.213 227.679 272.652 227.872 272.224 228.259C271.803 228.639 271.592 229.191 271.592 229.916C271.592 230.641 271.806 231.193 272.233 231.573C272.661 231.948 273.219 232.135 273.908 232.135ZM273.908 225.897C274.497 225.897 274.972 225.752 275.334 225.461C275.702 225.164 275.887 224.715 275.887 224.115C275.887 223.515 275.702 223.067 275.334 222.77C274.972 222.467 274.497 222.315 273.908 222.315C273.32 222.315 272.842 222.467 272.474 222.77C272.106 223.067 271.921 223.515 271.921 224.115C271.921 224.715 272.106 225.164 272.474 225.461C272.842 225.752 273.32 225.897 273.908 225.897ZM283.863 233.641L288.372 222.582H282.66V220.809H290.377V222.582L285.877 233.641H283.863ZM299.607 233.908C298.775 233.908 298.027 233.712 297.362 233.32C296.696 232.922 296.168 232.378 295.775 231.689C295.389 231 295.196 230.216 295.196 229.337V225.247C295.196 224.314 295.389 223.494 295.775 222.787C296.168 222.08 296.708 221.531 297.397 221.139C298.092 220.747 298.891 220.551 299.794 220.551C300.471 220.551 301.107 220.678 301.701 220.934C302.295 221.189 302.809 221.57 303.243 222.074L301.879 223.349C301.636 223.034 301.33 222.784 300.961 222.6C300.599 222.41 300.21 222.315 299.794 222.315C299.26 222.315 298.79 222.443 298.386 222.698C297.982 222.948 297.665 223.277 297.433 223.687C297.207 224.097 297.094 224.537 297.094 225.006V227.359L296.729 226.949C297.097 226.467 297.555 226.087 298.101 225.808C298.648 225.529 299.233 225.389 299.857 225.389C300.653 225.389 301.362 225.576 301.986 225.951C302.616 226.319 303.109 226.821 303.465 227.457C303.828 228.092 304.009 228.808 304.009 229.604C304.009 230.406 303.807 231.134 303.403 231.787C303.005 232.435 302.47 232.952 301.799 233.338C301.134 233.718 300.403 233.908 299.607 233.908ZM299.607 232.117C300.07 232.117 300.492 232.004 300.872 231.778C301.253 231.553 301.556 231.25 301.781 230.869C302.007 230.489 302.12 230.067 302.12 229.604C302.12 229.141 302.007 228.719 301.781 228.339C301.561 227.959 301.261 227.656 300.881 227.43C300.501 227.204 300.079 227.091 299.616 227.091C299.153 227.091 298.728 227.204 298.342 227.43C297.962 227.656 297.659 227.959 297.433 228.339C297.207 228.719 297.094 229.141 297.094 229.604C297.094 230.061 297.207 230.48 297.433 230.86C297.659 231.241 297.962 231.547 298.342 231.778C298.722 232.004 299.144 232.117 299.607 232.117Z" fill="#DCDCDC"/>
<g filter="url(#filter1_b_14118_61402)">
<rect x="432.807" y="2.69214" width="268.413" height="429.982" rx="26.0595" transform="rotate(90 432.807 2.69214)" fill="url(#paint3_radial_14118_61402)"/>
<rect x="433.947" y="1.55203" width="270.693" height="432.262" rx="27.1996" transform="rotate(90 433.947 1.55203)" stroke="url(#paint4_radial_14118_61402)" stroke-width="2.28021"/>
<rect x="433.947" y="1.55203" width="270.693" height="432.262" rx="27.1996" transform="rotate(90 433.947 1.55203)" stroke="url(#paint5_linear_14118_61402)" stroke-width="2.28021"/>
</g>
<rect x="38.0039" y="95.2034" width="52.1191" height="45.6042" rx="9.77232" stroke="#E5B332" stroke-opacity="0.5" stroke-width="1.95446"/>
<path d="M57.8732 95.2034L57.8732 140.808M38.6543 103.998H58.1989M38.6543 117.028H58.1989M38.6543 130.058H58.1989M70.5772 117.028H90.1219M70.5772 130.058H90.1219M71.2288 140.808C71.2288 140.808 71.2286 139.164 71.2288 121.419C71.2289 103.673 71.2289 103.673 90.1219 103.673" stroke="#E6B332" stroke-opacity="0.3" stroke-width="1.95446"/>
<circle cx="370.392" cy="49.0263" r="13.9347" fill="#EB001B"/>
<circle cx="385.626" cy="49.0263" r="13.9347" fill="#F79E1B"/>
<path d="M42.7533 214.94C42.1235 214.94 41.5437 214.831 41.0138 214.614C40.4839 214.393 40.0235 214.071 39.6326 213.65C39.2417 213.229 38.9377 212.716 38.7205 212.113C38.5034 211.509 38.3948 210.823 38.3948 210.054C38.3948 209.042 38.5794 208.173 38.9486 207.448C39.3177 206.718 39.8302 206.158 40.4861 205.767C41.1419 205.372 41.8976 205.174 42.7533 205.174C43.8564 205.174 44.736 205.431 45.3918 205.943C46.052 206.456 46.5015 207.163 46.7404 208.067L45.3592 208.314C45.1681 207.754 44.8597 207.307 44.4341 206.972C44.0085 206.638 43.4742 206.469 42.8314 206.464C42.1669 206.46 41.6132 206.608 41.1701 206.907C40.7315 207.207 40.4014 207.628 40.1799 208.171C39.9584 208.71 39.8454 209.337 39.8411 210.054C39.8368 210.771 39.9453 211.398 40.1668 211.937C40.3884 212.471 40.7206 212.888 41.1636 213.188C41.611 213.487 42.1669 213.639 42.8314 213.644C43.3657 213.652 43.8239 213.555 44.2061 213.35C44.5926 213.142 44.8988 212.838 45.1247 212.438C45.3505 212.039 45.496 211.548 45.5612 210.966H43.737V209.871H47.0075C47.0162 209.95 47.0227 210.054 47.027 210.184C47.0314 210.31 47.0335 210.391 47.0335 210.425C47.0335 211.294 46.8663 212.069 46.5319 212.751C46.1975 213.433 45.711 213.969 45.0726 214.36C44.4341 214.747 43.661 214.94 42.7533 214.94ZM51.4527 214.94C50.7534 214.94 50.1388 214.788 49.6089 214.484C49.0834 214.176 48.673 213.748 48.3776 213.201C48.0866 212.649 47.9411 212.011 47.9411 211.285C47.9411 210.516 48.0845 209.85 48.3711 209.285C48.6621 208.721 49.066 208.284 49.5829 207.976C50.0997 207.667 50.7013 207.513 51.3875 207.513C52.1041 207.513 52.7144 207.68 53.2182 208.015C53.722 208.345 54.0977 208.816 54.3453 209.428C54.5972 210.041 54.6971 210.768 54.645 211.611H53.2833V211.116C53.2747 210.299 53.1183 209.696 52.8143 209.305C52.5146 208.914 52.0564 208.718 51.4396 208.718C50.7577 208.718 50.2452 208.933 49.9021 209.363C49.559 209.793 49.3874 210.414 49.3874 211.227C49.3874 212 49.559 212.599 49.9021 213.025C50.2452 213.446 50.7404 213.657 51.3875 213.657C51.8132 213.657 52.1802 213.561 52.4885 213.37C52.8012 213.175 53.0445 212.897 53.2182 212.536L54.5537 212.96C54.2801 213.589 53.8653 214.078 53.3094 214.425C52.7535 214.769 52.1346 214.94 51.4527 214.94ZM48.9444 211.611V210.549H53.9674V211.611H48.9444ZM59.1621 214.94C58.4585 214.94 57.8483 214.782 57.3314 214.464C56.8146 214.147 56.415 213.711 56.1327 213.155C55.8547 212.595 55.7157 211.95 55.7157 211.22C55.7157 210.486 55.8591 209.841 56.1457 209.285C56.4324 208.725 56.8341 208.291 57.351 207.982C57.8678 207.669 58.4715 207.513 59.1621 207.513C59.8657 207.513 60.4759 207.672 60.9928 207.989C61.5096 208.306 61.9092 208.742 62.1915 209.298C62.4738 209.854 62.615 210.495 62.615 211.22C62.615 211.954 62.4717 212.601 62.185 213.162C61.9027 213.717 61.5031 214.154 60.9863 214.471C60.4694 214.784 59.8614 214.94 59.1621 214.94ZM59.1621 213.657C59.8353 213.657 60.337 213.431 60.667 212.979C61.0015 212.523 61.1687 211.937 61.1687 211.22C61.1687 210.486 60.9993 209.9 60.6605 209.461C60.3261 209.018 59.8266 208.797 59.1621 208.797C58.7061 208.797 58.3304 208.901 58.035 209.109C57.7397 209.313 57.5204 209.598 57.377 209.963C57.2337 210.323 57.162 210.742 57.162 211.22C57.162 211.958 57.3314 212.549 57.6702 212.992C58.009 213.435 58.5063 213.657 59.1621 213.657ZM64.0466 214.745V207.709H65.2584V209.415L65.089 209.194C65.1759 208.968 65.2888 208.762 65.4278 208.575C65.5668 208.384 65.7275 208.228 65.9099 208.106C66.088 207.976 66.2856 207.876 66.5028 207.806C66.7243 207.732 66.9501 207.689 67.1803 207.676C67.4105 207.659 67.632 207.669 67.8448 207.709V208.985C67.6146 208.925 67.3584 208.907 67.0761 208.933C66.7981 208.959 66.5418 209.048 66.3073 209.2C66.0858 209.344 65.9099 209.518 65.7796 209.722C65.6536 209.926 65.5624 210.154 65.506 210.406C65.4495 210.653 65.4213 210.916 65.4213 211.194V214.745H64.0466ZM71.7301 218.067C71.3523 218.067 70.9853 218.009 70.6291 217.891C70.2773 217.774 69.9559 217.6 69.6649 217.37C69.3739 217.144 69.1329 216.864 68.9418 216.53L70.1991 215.891C70.3511 216.191 70.5683 216.41 70.8506 216.549C71.1329 216.688 71.4304 216.758 71.7432 216.758C72.1297 216.758 72.4598 216.688 72.7334 216.549C73.0071 216.415 73.2134 216.21 73.3523 215.937C73.4957 215.663 73.5652 215.324 73.5608 214.921V212.953H73.7237V207.709H74.9289V214.934C74.9289 215.12 74.9224 215.298 74.9094 215.468C74.8964 215.637 74.8725 215.807 74.8377 215.976C74.7378 216.449 74.5467 216.84 74.2644 217.149C73.9865 217.457 73.6303 217.687 73.196 217.839C72.766 217.991 72.2774 218.067 71.7301 218.067ZM71.6259 214.94C70.9701 214.94 70.4033 214.777 69.9255 214.451C69.4521 214.126 69.0851 213.683 68.8245 213.122C68.5682 212.558 68.4401 211.924 68.4401 211.22C68.4401 210.512 68.5704 209.88 68.831 209.324C69.0916 208.764 69.4608 208.323 69.9385 208.002C70.4206 207.676 70.9918 207.513 71.652 207.513C72.3165 207.513 72.8746 207.676 73.3263 208.002C73.7823 208.323 74.1254 208.764 74.3556 209.324C74.5902 209.885 74.7074 210.516 74.7074 211.22C74.7074 211.924 74.5902 212.556 74.3556 213.116C74.1211 213.676 73.7758 214.121 73.3198 214.451C72.8637 214.777 72.2991 214.94 71.6259 214.94ZM71.8148 213.709C72.2622 213.709 72.627 213.602 72.9093 213.39C73.1916 213.177 73.3979 212.884 73.5282 212.51C73.6585 212.137 73.7237 211.707 73.7237 211.22C73.7237 210.734 73.6564 210.304 73.5217 209.93C73.3914 209.557 73.1873 209.266 72.9093 209.057C72.6357 208.849 72.2861 208.744 71.8604 208.744C71.4087 208.744 71.0374 208.855 70.7464 209.077C70.4554 209.298 70.2382 209.596 70.0949 209.969C69.9559 210.343 69.8864 210.76 69.8864 211.22C69.8864 211.685 69.9559 212.106 70.0949 212.484C70.2382 212.857 70.451 213.155 70.7334 213.377C71.02 213.598 71.3805 213.709 71.8148 213.709ZM79.8789 214.94C79.1797 214.94 78.5651 214.788 78.0352 214.484C77.5097 214.176 77.0992 213.748 76.8039 213.201C76.5129 212.649 76.3674 212.011 76.3674 211.285C76.3674 210.516 76.5107 209.85 76.7974 209.285C77.0884 208.721 77.4923 208.284 78.0092 207.976C78.526 207.667 79.1275 207.513 79.8138 207.513C80.5304 207.513 81.1406 207.68 81.6445 208.015C82.1483 208.345 82.524 208.816 82.7715 209.428C83.0234 210.041 83.1233 210.768 83.0712 211.611H81.7096V211.116C81.7009 210.299 81.5446 209.696 81.2405 209.305C80.9409 208.914 80.4826 208.718 79.8659 208.718C79.184 208.718 78.6715 208.933 78.3284 209.363C77.9853 209.793 77.8137 210.414 77.8137 211.227C77.8137 212 77.9853 212.599 78.3284 213.025C78.6715 213.446 79.1666 213.657 79.8138 213.657C80.2394 213.657 80.6064 213.561 80.9148 213.37C81.2275 213.175 81.4707 212.897 81.6445 212.536L82.98 212.96C82.7064 213.589 82.2916 214.078 81.7357 214.425C81.1797 214.769 80.5608 214.94 79.8789 214.94ZM77.3707 211.611V210.549H82.3937V211.611H77.3707ZM89.4021 214.745V210.868L86.2293 205.363H87.8189L90.0926 209.305L92.3663 205.363H93.956L90.7832 210.868V214.745H89.4021ZM96.9423 214.94C96.2431 214.94 95.6285 214.788 95.0986 214.484C94.5731 214.176 94.1626 213.748 93.8673 213.201C93.5763 212.649 93.4308 212.011 93.4308 211.285C93.4308 210.516 93.5741 209.85 93.8608 209.285C94.1518 208.721 94.5557 208.284 95.0726 207.976C95.5894 207.667 96.1909 207.513 96.8772 207.513C97.5938 207.513 98.204 207.68 98.7079 208.015C99.2117 208.345 99.5874 208.816 99.8349 209.428C100.087 210.041 100.187 210.768 100.135 211.611H98.773V211.116C98.7643 210.299 98.608 209.696 98.3039 209.305C98.0042 208.914 97.546 208.718 96.9293 208.718C96.2474 208.718 95.7349 208.933 95.3918 209.363C95.0487 209.793 94.8771 210.414 94.8771 211.227C94.8771 212 95.0487 212.599 95.3918 213.025C95.7349 213.446 96.23 213.657 96.8772 213.657C97.3028 213.657 97.6698 213.561 97.9782 213.37C98.2909 213.175 98.5341 212.897 98.7079 212.536L100.043 212.96C99.7698 213.589 99.355 214.078 98.7991 214.425C98.2431 214.769 97.6242 214.94 96.9423 214.94ZM94.4341 211.611V210.549H99.4571V211.611H94.4341ZM101.59 214.745L101.596 205.363H102.977V211.096L105.74 207.709H107.473L104.554 211.227L107.772 214.745H105.922L102.977 211.357V214.745H101.59ZM108.56 206.555V205.233H109.921V206.555H108.56ZM108.56 214.745V207.709H109.921V214.745H108.56ZM116.816 214.745V211.285C116.816 211.012 116.792 210.731 116.744 210.445C116.701 210.154 116.614 209.885 116.484 209.637C116.358 209.389 116.177 209.19 115.943 209.038C115.713 208.886 115.411 208.81 115.037 208.81C114.794 208.81 114.564 208.851 114.347 208.933C114.13 209.012 113.938 209.14 113.773 209.318C113.613 209.496 113.485 209.73 113.389 210.021C113.298 210.312 113.252 210.666 113.252 211.083L112.405 210.764C112.405 210.126 112.525 209.563 112.764 209.077C113.002 208.586 113.346 208.204 113.793 207.93C114.24 207.656 114.781 207.52 115.415 207.52C115.902 207.52 116.31 207.598 116.64 207.754C116.97 207.911 117.237 208.117 117.441 208.373C117.65 208.625 117.808 208.901 117.917 209.2C118.025 209.5 118.099 209.793 118.138 210.08C118.177 210.367 118.197 210.619 118.197 210.836V214.745H116.816ZM111.871 214.745V207.709H113.089V209.741H113.252V214.745H111.871ZM120.024 206.555V205.233H121.386V206.555H120.024ZM120.024 214.745V207.709H121.386V214.745H120.024Z" fill="#DCDCDC"/>
<path d="M288.768 214.745V206.862L287.002 207.937V206.419L288.768 205.363H290.156V214.745H288.768ZM292.369 214.738L292.376 213.526L296.46 209.865C296.791 209.574 297.014 209.296 297.132 209.031C297.253 208.766 297.314 208.501 297.314 208.236C297.314 207.902 297.24 207.602 297.092 207.337C296.945 207.068 296.741 206.855 296.48 206.699C296.219 206.542 295.92 206.464 295.581 206.464C295.234 206.464 294.923 206.547 294.649 206.712C294.38 206.872 294.169 207.087 294.017 207.357C293.865 207.626 293.792 207.917 293.796 208.23H292.402C292.402 207.622 292.539 207.09 292.812 206.634C293.09 206.173 293.47 205.815 293.952 205.559C294.434 205.298 294.986 205.168 295.607 205.168C296.198 205.168 296.728 205.302 297.197 205.572C297.666 205.837 298.035 206.201 298.304 206.666C298.578 207.131 298.715 207.661 298.715 208.256C298.715 208.686 298.658 209.051 298.545 209.35C298.432 209.65 298.263 209.928 298.037 210.184C297.811 210.44 297.529 210.718 297.19 211.018L294.037 213.833L293.887 213.442H298.715V214.738H292.369ZM302.648 205.363H304.023L301.521 214.745H300.147L302.648 205.363ZM305.463 214.738L305.469 213.526L309.554 209.865C309.884 209.574 310.108 209.296 310.225 209.031C310.347 208.766 310.407 208.501 310.407 208.236C310.407 207.902 310.333 207.602 310.186 207.337C310.038 207.068 309.834 206.855 309.573 206.699C309.313 206.542 309.013 206.464 308.674 206.464C308.327 206.464 308.016 206.547 307.743 206.712C307.473 206.872 307.263 207.087 307.111 207.357C306.959 207.626 306.885 207.917 306.889 208.23H305.495C305.495 207.622 305.632 207.09 305.906 206.634C306.183 206.173 306.564 205.815 307.046 205.559C307.528 205.298 308.079 205.168 308.7 205.168C309.291 205.168 309.821 205.302 310.29 205.572C310.759 205.837 311.128 206.201 311.398 206.666C311.671 207.131 311.808 207.661 311.808 208.256C311.808 208.686 311.752 209.051 311.639 209.35C311.526 209.65 311.356 209.928 311.13 210.184C310.905 210.44 310.622 210.718 310.284 211.018L307.13 213.833L306.98 213.442H311.808V214.738H305.463ZM316.152 214.94C315.67 214.94 315.221 214.842 314.804 214.647C314.391 214.447 314.037 214.173 313.742 213.826C313.446 213.474 313.236 213.07 313.11 212.614L314.419 212.262C314.493 212.54 314.619 212.781 314.797 212.986C314.98 213.19 315.192 213.348 315.436 213.461C315.679 213.57 315.931 213.624 316.191 213.624C316.535 213.624 316.845 213.542 317.123 213.377C317.405 213.211 317.627 212.99 317.788 212.712C317.953 212.434 318.035 212.128 318.035 211.793C318.035 211.45 317.95 211.14 317.781 210.862C317.616 210.584 317.392 210.364 317.11 210.204C316.832 210.039 316.526 209.956 316.191 209.956C315.809 209.956 315.486 210.032 315.221 210.184C314.956 210.336 314.749 210.512 314.602 210.712L313.416 210.295L313.703 205.363H318.765V206.647H314.4L314.954 206.132L314.726 209.826L314.458 209.481C314.706 209.233 315.001 209.044 315.344 208.914C315.688 208.784 316.029 208.718 316.367 208.718C316.949 208.718 317.468 208.853 317.924 209.122C318.385 209.392 318.747 209.759 319.012 210.223C319.277 210.684 319.41 211.207 319.41 211.793C319.41 212.375 319.26 212.905 318.96 213.383C318.661 213.856 318.263 214.234 317.768 214.517C317.273 214.799 316.734 214.94 316.152 214.94Z" fill="#DCDCDC"/>
<path d="M42.0796 247.501V234.888L39.2548 236.608V234.179L42.0796 232.491H44.2999V247.501H42.0796ZM50.9685 247.491L50.9789 245.552L57.5147 239.694C58.0428 239.228 58.4007 238.783 58.5883 238.359C58.7829 237.935 58.8802 237.511 58.8802 237.088C58.8802 236.552 58.7621 236.073 58.5258 235.649C58.2895 235.218 57.9629 234.878 57.5459 234.628C57.129 234.377 56.6495 234.252 56.1075 234.252C55.5515 234.252 55.0547 234.384 54.6169 234.648C54.186 234.906 53.849 235.25 53.6057 235.68C53.3625 236.111 53.2444 236.577 53.2513 237.077H51.0206C51.0206 236.104 51.2395 235.253 51.6773 234.523C52.1221 233.787 52.7301 233.213 53.5015 232.803C54.2729 232.386 55.1554 232.178 56.1492 232.178C57.0943 232.178 57.9421 232.393 58.6926 232.824C59.4431 233.248 60.0338 233.832 60.4646 234.575C60.9024 235.319 61.1213 236.167 61.1213 237.119C61.1213 237.807 61.031 238.391 60.8503 238.87C60.6696 239.35 60.3986 239.794 60.0372 240.204C59.6759 240.614 59.2242 241.059 58.6821 241.539L53.637 246.042L53.3973 245.416H61.1213V247.491H50.9685ZM70.9492 247.782C70.2056 247.782 69.5072 247.643 68.854 247.365C68.2008 247.081 67.6344 246.677 67.1549 246.156C66.6824 245.635 66.3384 245.02 66.123 244.311L68.2286 243.728C68.4301 244.374 68.781 244.871 69.2814 245.218C69.7817 245.559 70.3377 245.725 70.9492 245.719C71.4982 245.712 71.9811 245.583 72.3981 245.333C72.815 245.083 73.1417 244.746 73.3779 244.322C73.6142 243.891 73.7323 243.397 73.7323 242.842C73.7323 242.008 73.4717 241.32 72.9506 240.778C72.4363 240.236 71.7622 239.965 70.9283 239.965C70.6921 239.965 70.4488 239.999 70.1987 240.069C69.9554 240.138 69.7261 240.229 69.5107 240.34L68.4892 238.62L73.7845 233.94L74.0138 234.565H66.7171V232.491H75.7441V234.565L71.3453 238.797L71.3244 238.088C72.2695 238.088 73.0895 238.3 73.7845 238.724C74.4794 239.141 75.0145 239.711 75.3897 240.434C75.7719 241.149 75.963 241.952 75.963 242.842C75.963 243.801 75.7372 244.652 75.2855 245.395C74.8407 246.139 74.2396 246.723 73.4822 247.147C72.7317 247.57 71.8873 247.782 70.9492 247.782ZM88.1644 247.501V244.885H81.389V242.821L86.2673 232.491H88.7586L83.8802 242.821H88.1644V238.755H90.3743V242.821H91.8649V244.885H90.3743V247.501H88.1644ZM118.455 247.501V244.885H111.679V242.821L116.557 232.491H119.049L114.17 242.821H118.455V238.755H120.664V242.821H122.155V244.885H120.664V247.501H118.455ZM132.236 247.814C131.464 247.814 130.745 247.657 130.078 247.345C129.418 247.025 128.851 246.587 128.379 246.031C127.906 245.468 127.569 244.822 127.368 244.092L129.463 243.53C129.581 243.974 129.783 244.36 130.068 244.687C130.359 245.013 130.7 245.267 131.089 245.447C131.478 245.621 131.881 245.708 132.298 245.708C132.847 245.708 133.344 245.576 133.789 245.312C134.241 245.048 134.595 244.693 134.852 244.249C135.116 243.804 135.248 243.314 135.248 242.779C135.248 242.23 135.113 241.733 134.842 241.288C134.578 240.844 134.22 240.493 133.768 240.236C133.323 239.972 132.833 239.839 132.298 239.839C131.687 239.839 131.169 239.961 130.745 240.204C130.321 240.448 129.991 240.729 129.755 241.049L127.858 240.382L128.316 232.491H136.416V234.544H129.432L130.318 233.721L129.953 239.631L129.525 239.079C129.922 238.682 130.394 238.38 130.943 238.172C131.492 237.963 132.038 237.859 132.58 237.859C133.511 237.859 134.341 238.074 135.071 238.505C135.808 238.936 136.388 239.523 136.812 240.267C137.236 241.003 137.448 241.841 137.448 242.779C137.448 243.71 137.208 244.558 136.728 245.322C136.249 246.08 135.613 246.684 134.821 247.136C134.029 247.588 133.167 247.814 132.236 247.814ZM148.226 247.814C147.253 247.814 146.377 247.584 145.599 247.126C144.821 246.66 144.202 246.024 143.744 245.218C143.292 244.412 143.066 243.495 143.066 242.466V237.682C143.066 236.591 143.292 235.632 143.744 234.805C144.202 233.978 144.835 233.335 145.641 232.876C146.454 232.418 147.389 232.188 148.445 232.188C149.237 232.188 149.981 232.338 150.676 232.637C151.37 232.935 151.972 233.38 152.479 233.971L150.884 235.461C150.599 235.093 150.241 234.801 149.81 234.586C149.386 234.363 148.931 234.252 148.445 234.252C147.819 234.252 147.27 234.402 146.798 234.701C146.325 234.992 145.954 235.378 145.683 235.858C145.418 236.337 145.286 236.851 145.286 237.4V240.152L144.859 239.673C145.29 239.11 145.825 238.665 146.464 238.338C147.104 238.012 147.788 237.849 148.518 237.849C149.449 237.849 150.279 238.067 151.009 238.505C151.746 238.936 152.323 239.523 152.739 240.267C153.163 241.01 153.375 241.848 153.375 242.779C153.375 243.717 153.139 244.568 152.667 245.333C152.201 246.09 151.575 246.695 150.79 247.147C150.012 247.591 149.157 247.814 148.226 247.814ZM148.226 245.719C148.768 245.719 149.261 245.586 149.706 245.322C150.151 245.058 150.505 244.704 150.769 244.259C151.033 243.814 151.165 243.321 151.165 242.779C151.165 242.237 151.033 241.744 150.769 241.299C150.512 240.854 150.161 240.5 149.717 240.236C149.272 239.972 148.778 239.839 148.236 239.839C147.694 239.839 147.197 239.972 146.746 240.236C146.301 240.5 145.947 240.854 145.683 241.299C145.418 241.744 145.286 242.237 145.286 242.779C145.286 243.314 145.418 243.804 145.683 244.249C145.947 244.693 146.301 245.051 146.746 245.322C147.191 245.586 147.684 245.719 148.226 245.719ZM159.923 247.501L165.198 234.565H158.516V232.491H167.543V234.565L162.279 247.501H159.923ZM192.588 247.814C191.608 247.814 190.74 247.619 189.982 247.23C189.232 246.834 188.641 246.285 188.21 245.583C187.786 244.881 187.574 244.068 187.574 243.144C187.574 242.282 187.776 241.493 188.179 240.778C188.582 240.062 189.183 239.499 189.982 239.089L189.94 239.839C189.301 239.443 188.808 238.95 188.46 238.359C188.12 237.762 187.949 237.095 187.949 236.358C187.949 235.503 188.148 234.763 188.544 234.138C188.94 233.512 189.485 233.029 190.18 232.689C190.882 232.348 191.685 232.178 192.588 232.178C193.491 232.178 194.291 232.348 194.986 232.689C195.68 233.029 196.226 233.512 196.622 234.138C197.018 234.763 197.216 235.503 197.216 236.358C197.216 237.095 197.053 237.758 196.726 238.349C196.4 238.94 195.899 239.436 195.225 239.839L195.194 239.11C195.986 239.499 196.587 240.055 196.997 240.778C197.407 241.493 197.612 242.282 197.612 243.144C197.612 244.068 197.397 244.881 196.966 245.583C196.535 246.285 195.941 246.834 195.184 247.23C194.426 247.619 193.561 247.814 192.588 247.814ZM192.588 245.739C193.394 245.739 194.047 245.52 194.548 245.083C195.048 244.638 195.298 243.992 195.298 243.144C195.298 242.296 195.048 241.65 194.548 241.205C194.054 240.753 193.401 240.527 192.588 240.527C191.775 240.527 191.118 240.753 190.618 241.205C190.125 241.65 189.878 242.296 189.878 243.144C189.878 243.992 190.128 244.638 190.628 245.083C191.129 245.52 191.782 245.739 192.588 245.739ZM192.588 238.443C193.276 238.443 193.832 238.272 194.256 237.932C194.687 237.584 194.902 237.06 194.902 236.358C194.902 235.656 194.687 235.131 194.256 234.784C193.832 234.43 193.276 234.252 192.588 234.252C191.9 234.252 191.341 234.43 190.91 234.784C190.479 235.131 190.264 235.656 190.264 236.358C190.264 237.06 190.479 237.584 190.91 237.932C191.341 238.272 191.9 238.443 192.588 238.443ZM208.329 232.188C209.295 232.188 210.167 232.421 210.946 232.887C211.724 233.345 212.343 233.978 212.801 234.784C213.26 235.59 213.489 236.511 213.489 237.546V242.32C213.489 243.418 213.26 244.381 212.801 245.208C212.349 246.028 211.717 246.667 210.904 247.126C210.098 247.584 209.167 247.814 208.11 247.814C207.318 247.814 206.575 247.664 205.88 247.365C205.185 247.067 204.58 246.622 204.066 246.031L205.671 244.541C205.956 244.909 206.314 245.204 206.745 245.427C207.176 245.649 207.631 245.76 208.11 245.76C208.729 245.76 209.274 245.611 209.747 245.312C210.226 245.013 210.598 244.624 210.862 244.145C211.126 243.665 211.258 243.151 211.258 242.602V239.85L211.696 240.329C211.265 240.892 210.73 241.337 210.091 241.664C209.452 241.99 208.767 242.154 208.037 242.154C207.099 242.154 206.265 241.938 205.536 241.507C204.806 241.076 204.229 240.489 203.805 239.746C203.381 239.002 203.17 238.161 203.17 237.223C203.17 236.285 203.406 235.437 203.878 234.68C204.351 233.922 204.976 233.318 205.755 232.866C206.533 232.414 207.391 232.188 208.329 232.188ZM208.329 234.294C207.787 234.294 207.29 234.426 206.839 234.69C206.394 234.947 206.04 235.298 205.775 235.743C205.511 236.188 205.379 236.681 205.379 237.223C205.379 237.765 205.511 238.262 205.775 238.714C206.04 239.158 206.394 239.513 206.839 239.777C207.283 240.041 207.777 240.173 208.319 240.173C208.861 240.173 209.354 240.041 209.799 239.777C210.244 239.513 210.598 239.158 210.862 238.714C211.126 238.262 211.258 237.765 211.258 237.223C211.258 236.688 211.126 236.198 210.862 235.753C210.605 235.309 210.254 234.954 209.81 234.69C209.365 234.426 208.871 234.294 208.329 234.294ZM222.143 247.501V234.888L219.318 236.608V234.179L222.143 232.491H224.363V247.501H222.143ZM236.681 247.814C235.66 247.814 234.757 247.591 233.971 247.147C233.186 246.695 232.568 246.076 232.116 245.291C231.671 244.506 231.449 243.602 231.449 242.581V237.411C231.449 236.389 231.671 235.486 232.116 234.701C232.568 233.915 233.186 233.3 233.971 232.856C234.757 232.404 235.66 232.178 236.681 232.178C237.703 232.178 238.606 232.404 239.392 232.856C240.177 233.3 240.792 233.915 241.237 234.701C241.688 235.486 241.914 236.389 241.914 237.411V242.581C241.914 243.602 241.688 244.506 241.237 245.291C240.792 246.076 240.177 246.695 239.392 247.147C238.606 247.591 237.703 247.814 236.681 247.814ZM236.681 245.729C237.237 245.729 237.741 245.597 238.193 245.333C238.652 245.062 239.016 244.7 239.287 244.249C239.558 243.79 239.694 243.279 239.694 242.716V237.254C239.694 236.698 239.558 236.195 239.287 235.743C239.016 235.284 238.652 234.923 238.193 234.659C237.741 234.388 237.237 234.252 236.681 234.252C236.126 234.252 235.618 234.388 235.16 234.659C234.708 234.923 234.347 235.284 234.075 235.743C233.804 236.195 233.669 236.698 233.669 237.254V242.716C233.669 243.279 233.804 243.79 234.075 244.249C234.347 244.7 234.708 245.062 235.16 245.333C235.618 245.597 236.126 245.729 236.681 245.729ZM267.432 232.188C268.397 232.188 269.27 232.421 270.048 232.887C270.826 233.345 271.445 233.978 271.903 234.784C272.362 235.59 272.591 236.511 272.591 237.546V242.32C272.591 243.418 272.362 244.381 271.903 245.208C271.452 246.028 270.819 246.667 270.006 247.126C269.2 247.584 268.269 247.814 267.213 247.814C266.42 247.814 265.677 247.664 264.982 247.365C264.287 247.067 263.682 246.622 263.168 246.031L264.773 244.541C265.058 244.909 265.416 245.204 265.847 245.427C266.278 245.649 266.733 245.76 267.213 245.76C267.831 245.76 268.377 245.611 268.849 245.312C269.329 245.013 269.7 244.624 269.965 244.145C270.229 243.665 270.361 243.151 270.361 242.602V239.85L270.798 240.329C270.368 240.892 269.832 241.337 269.193 241.664C268.554 241.99 267.869 242.154 267.14 242.154C266.202 242.154 265.368 241.938 264.638 241.507C263.908 241.076 263.332 240.489 262.908 239.746C262.484 239.002 262.272 238.161 262.272 237.223C262.272 236.285 262.508 235.437 262.981 234.68C263.453 233.922 264.079 233.318 264.857 232.866C265.635 232.414 266.493 232.188 267.432 232.188ZM267.432 234.294C266.889 234.294 266.393 234.426 265.941 234.69C265.496 234.947 265.142 235.298 264.878 235.743C264.614 236.188 264.482 236.681 264.482 237.223C264.482 237.765 264.614 238.262 264.878 238.714C265.142 239.158 265.496 239.513 265.941 239.777C266.386 240.041 266.879 240.173 267.421 240.173C267.963 240.173 268.457 240.041 268.901 239.777C269.346 239.513 269.7 239.158 269.965 238.714C270.229 238.262 270.361 237.765 270.361 237.223C270.361 236.688 270.229 236.198 269.965 235.753C269.707 235.309 269.356 234.954 268.912 234.69C268.467 234.426 267.974 234.294 267.432 234.294ZM283.434 247.814C282.454 247.814 281.586 247.619 280.828 247.23C280.078 246.834 279.487 246.285 279.056 245.583C278.632 244.881 278.42 244.068 278.42 243.144C278.42 242.282 278.622 241.493 279.025 240.778C279.428 240.062 280.029 239.499 280.828 239.089L280.786 239.839C280.147 239.443 279.654 238.95 279.306 238.359C278.966 237.762 278.795 237.095 278.795 236.358C278.795 235.503 278.993 234.763 279.39 234.138C279.786 233.512 280.331 233.029 281.026 232.689C281.728 232.348 282.531 232.178 283.434 232.178C284.337 232.178 285.137 232.348 285.832 232.689C286.526 233.029 287.072 233.512 287.468 234.138C287.864 234.763 288.062 235.503 288.062 236.358C288.062 237.095 287.899 237.758 287.572 238.349C287.246 238.94 286.745 239.436 286.071 239.839L286.04 239.11C286.832 239.499 287.433 240.055 287.843 240.778C288.253 241.493 288.458 242.282 288.458 243.144C288.458 244.068 288.243 244.881 287.812 245.583C287.381 246.285 286.787 246.834 286.03 247.23C285.272 247.619 284.407 247.814 283.434 247.814ZM283.434 245.739C284.24 245.739 284.893 245.52 285.394 245.083C285.894 244.638 286.144 243.992 286.144 243.144C286.144 242.296 285.894 241.65 285.394 241.205C284.9 240.753 284.247 240.527 283.434 240.527C282.621 240.527 281.964 240.753 281.464 241.205C280.971 241.65 280.724 242.296 280.724 243.144C280.724 243.992 280.974 244.638 281.474 245.083C281.975 245.52 282.628 245.739 283.434 245.739ZM283.434 238.443C284.122 238.443 284.678 238.272 285.102 237.932C285.533 237.584 285.748 237.06 285.748 236.358C285.748 235.656 285.533 235.131 285.102 234.784C284.678 234.43 284.122 234.252 283.434 234.252C282.746 234.252 282.187 234.43 281.756 234.784C281.325 235.131 281.11 235.656 281.11 236.358C281.11 237.06 281.325 237.584 281.756 237.932C282.187 238.272 282.746 238.443 283.434 238.443ZM295.079 247.501L300.353 234.565H293.672V232.491H302.699V234.565L297.435 247.501H295.079ZM313.496 247.814C312.523 247.814 311.648 247.584 310.87 247.126C310.091 246.66 309.473 246.024 309.014 245.218C308.562 244.412 308.337 243.495 308.337 242.466V237.682C308.337 236.591 308.562 235.632 309.014 234.805C309.473 233.978 310.105 233.335 310.911 232.876C311.724 232.418 312.659 232.188 313.715 232.188C314.507 232.188 315.251 232.338 315.946 232.637C316.641 232.935 317.242 233.38 317.749 233.971L316.154 235.461C315.869 235.093 315.512 234.801 315.081 234.586C314.657 234.363 314.202 234.252 313.715 234.252C313.09 234.252 312.541 234.402 312.068 234.701C311.596 234.992 311.224 235.378 310.953 235.858C310.689 236.337 310.557 236.851 310.557 237.4V240.152L310.129 239.673C310.56 239.11 311.095 238.665 311.735 238.338C312.374 238.012 313.059 237.849 313.788 237.849C314.719 237.849 315.55 238.067 316.279 238.505C317.016 238.936 317.593 239.523 318.01 240.267C318.434 241.01 318.646 241.848 318.646 242.779C318.646 243.717 318.409 244.568 317.937 245.333C317.471 246.09 316.846 246.695 316.061 247.147C315.282 247.591 314.428 247.814 313.496 247.814ZM313.496 245.719C314.038 245.719 314.532 245.586 314.976 245.322C315.421 245.058 315.776 244.704 316.04 244.259C316.304 243.814 316.436 243.321 316.436 242.779C316.436 242.237 316.304 241.744 316.04 241.299C315.783 240.854 315.432 240.5 314.987 240.236C314.542 239.972 314.049 239.839 313.507 239.839C312.965 239.839 312.468 239.972 312.016 240.236C311.571 240.5 311.217 240.854 310.953 241.299C310.689 241.744 310.557 242.237 310.557 242.779C310.557 243.314 310.689 243.804 310.953 244.249C311.217 244.693 311.571 245.051 312.016 245.322C312.461 245.586 312.954 245.719 313.496 245.719Z" fill="#DCDCDC"/>
<defs>
<filter id="filter0_b_14118_61402" x="8.68935" y="-1.16685" width="418.248" height="280.132" filterUnits="userSpaceOnUse" color-interpolation-filters="sRGB">
<feFlood flood-opacity="0" result="BackgroundImageFix"/>
<feGaussianBlur in="BackgroundImage" stdDeviation="11.6954"/>
<feComposite in2="SourceAlpha" operator="in" result="effect1_backgroundBlur_14118_61402"/>
<feBlend mode="normal" in="SourceGraphic" in2="effect1_backgroundBlur_14118_61402" result="shape"/>
</filter>
<filter id="filter1_b_14118_61402" x="-26.8176" y="-26.9506" width="489.266" height="327.699" filterUnits="userSpaceOnUse" color-interpolation-filters="sRGB">
<feFlood flood-opacity="0" result="BackgroundImageFix"/>
<feGaussianBlur in="BackgroundImage" stdDeviation="13.6813"/>
<feComposite in2="SourceAlpha" operator="in" result="effect1_backgroundBlur_14118_61402"/>
<feBlend mode="normal" in="SourceGraphic" in2="effect1_backgroundBlur_14118_61402" result="shape"/>
</filter>
<radialGradient id="paint0_radial_14118_61402" cx="0" cy="0" r="1" gradientUnits="userSpaceOnUse" gradientTransform="translate(401.598 24.1731) rotate(58.0258) scale(433.307 270.488)">
<stop stop-color="white" stop-opacity="0.4"/>
<stop offset="1" stop-color="white" stop-opacity="0"/>
</radialGradient>
<radialGradient id="paint1_radial_14118_61402" cx="0" cy="0" r="1" gradientUnits="userSpaceOnUse" gradientTransform="translate(516.324 207.957) rotate(58.0258) scale(216.653 5.48075)">
<stop stop-color="#02C9F5"/>
<stop offset="1" stop-color="#029EF5" stop-opacity="0.58"/>
</radialGradient>
<linearGradient id="paint2_linear_14118_61402" x1="401.598" y1="24.1731" x2="631.05" y2="391.742" gradientUnits="userSpaceOnUse">
<stop stop-color="white"/>
<stop offset="1" stop-color="white" stop-opacity="0"/>
</linearGradient>
<radialGradient id="paint3_radial_14118_61402" cx="0" cy="0" r="1" gradientUnits="userSpaceOnUse" gradientTransform="translate(432.807 2.69214) rotate(58.0258) scale(506.883 316.418)">
<stop stop-color="white" stop-opacity="0.4"/>
<stop offset="1" stop-color="white" stop-opacity="0"/>
</radialGradient>
<radialGradient id="paint4_radial_14118_61402" cx="0" cy="0" r="1" gradientUnits="userSpaceOnUse" gradientTransform="translate(567.013 217.683) rotate(58.0258) scale(253.441 6.41139)">
<stop stop-color="#02C9F5"/>
<stop offset="1" stop-color="#029EF5" stop-opacity="0.58"/>
</radialGradient>
<linearGradient id="paint5_linear_14118_61402" x1="432.807" y1="2.69214" x2="701.22" y2="432.674" gradientUnits="userSpaceOnUse">
<stop stop-color="white"/>
<stop offset="1" stop-color="white" stop-opacity="0"/>
</linearGradient>
</defs>
</svg>
