<svg width="19" height="19" viewBox="0 0 19 19" fill="none" xmlns="http://www.w3.org/2000/svg">
<path d="M5.36914 4.74512V2.49512C5.36914 2.2962 5.44816 2.10544 5.58881 1.96479C5.72946 1.82413 5.92023 1.74512 6.11914 1.74512H12.1191C12.3181 1.74512 12.5088 1.82413 12.6495 1.96479C12.7901 2.10544 12.8691 2.2962 12.8691 2.49512V4.74512H15.8691C16.0681 4.74512 16.2588 4.82414 16.3995 4.96479C16.5401 5.10544 16.6191 5.2962 16.6191 5.49512V15.9951C16.6191 16.194 16.5401 16.3848 16.3995 16.5254C16.2588 16.6661 16.0681 16.7451 15.8691 16.7451H2.36914C2.17023 16.7451 1.97946 16.6661 1.83881 16.5254C1.69816 16.3848 1.61914 16.194 1.61914 15.9951V5.49512C1.61914 5.2962 1.69816 5.10544 1.83881 4.96479C1.97946 4.82414 2.17023 4.74512 2.36914 4.74512H5.36914ZM3.11914 12.9951V15.2451H15.1191V12.9951H3.11914ZM3.11914 11.4951H15.1191V6.24512H3.11914V11.4951ZM6.86914 3.24512V4.74512H11.3691V3.24512H6.86914ZM8.36914 9.24512H9.86914V10.7451H8.36914V9.24512Z" fill="#525252"/>
</svg>
