<svg width="22" height="22" viewBox="0 0 22 22" fill="none" xmlns="http://www.w3.org/2000/svg">
<g clip-path="url(#clip0_14118_81049)">
<path d="M4.11914 19.3486C4.11914 17.4921 4.85664 15.7116 6.16939 14.3989C7.48215 13.0861 9.26263 12.3486 11.1191 12.3486C12.9757 12.3486 14.7561 13.0861 16.0689 14.3989C17.3816 15.7116 18.1191 17.4921 18.1191 19.3486H16.3691C16.3691 17.9562 15.816 16.6209 14.8315 15.6363C13.8469 14.6518 12.5115 14.0986 11.1191 14.0986C9.72675 14.0986 8.3914 14.6518 7.40683 15.6363C6.42226 16.6209 5.86914 17.9562 5.86914 19.3486H4.11914ZM11.1191 11.4736C8.21852 11.4736 5.86914 9.12426 5.86914 6.22363C5.86914 3.32301 8.21852 0.973633 11.1191 0.973633C14.0198 0.973633 16.3691 3.32301 16.3691 6.22363C16.3691 9.12426 14.0198 11.4736 11.1191 11.4736ZM11.1191 9.72363C13.0529 9.72363 14.6191 8.15738 14.6191 6.22363C14.6191 4.28988 13.0529 2.72363 11.1191 2.72363C9.18539 2.72363 7.61914 4.28988 7.61914 6.22363C7.61914 8.15738 9.18539 9.72363 11.1191 9.72363Z" fill="#525252"/>
</g>
<defs>
<clipPath id="clip0_14118_81049">
<rect width="21" height="21" fill="white" transform="translate(0.619141 0.0986328)"/>
</clipPath>
</defs>
</svg>
