<svg width="22" height="22" viewBox="0 0 22 22" fill="none" xmlns="http://www.w3.org/2000/svg">
<path d="M13.7441 2.69532C14.3586 2.69524 14.9623 2.85696 15.4945 3.1642C16.0267 3.47144 16.4686 3.91338 16.7758 4.44558C17.083 4.97777 17.2447 5.58147 17.2446 6.19597C17.2444 6.81047 17.0825 7.41411 16.7751 7.94619L20.7441 7.94532V9.69532H18.9941V18.4453C18.9941 18.6774 18.902 18.8999 18.7379 19.064C18.5738 19.2281 18.3512 19.3203 18.1191 19.3203H4.11914C3.88708 19.3203 3.66452 19.2281 3.50042 19.064C3.33633 18.8999 3.24414 18.6774 3.24414 18.4453V9.69532H1.49414V7.94532L5.46314 7.94619C5.02902 7.19447 4.88974 6.30824 5.07235 5.45959C5.25496 4.61095 5.74642 3.86044 6.45131 3.3538C7.1562 2.84716 8.02421 2.62055 8.8868 2.71796C9.74938 2.81537 10.545 3.22986 11.1191 3.88094C11.4469 3.50765 11.8507 3.20874 12.3034 3.00426C12.7562 2.79978 13.2474 2.69444 13.7441 2.69532ZM10.2441 9.69532H4.99414V17.5703H10.2441V9.69532ZM17.2441 9.69532H11.9941V17.5703H17.2441V9.69532ZM8.49414 4.44532C8.04003 4.44329 7.60291 4.61786 7.27513 4.93215C6.94735 5.24644 6.75458 5.67584 6.73754 6.12964C6.7205 6.58343 6.88053 7.02608 7.18382 7.36407C7.48711 7.70206 7.90991 7.90892 8.36289 7.94094L8.49414 7.94532H10.2441V6.19532C10.2442 5.77712 10.0944 5.37274 9.82203 5.05542C9.54965 4.73809 9.17264 4.5288 8.75927 4.46544L8.62452 4.44969L8.49414 4.44532ZM13.7441 4.44532C13.3026 4.44518 12.8774 4.61192 12.5537 4.91213C12.2299 5.21233 12.0316 5.62381 11.9985 6.06407L11.9941 6.19532V7.94532H13.7441C14.1856 7.94546 14.6109 7.77871 14.9346 7.47851C15.2584 7.1783 15.4567 6.76683 15.4898 6.32657L15.4941 6.19532C15.4941 5.73119 15.3098 5.28607 14.9816 4.95788C14.6534 4.62969 14.2083 4.44532 13.7441 4.44532Z" fill="#525252"/>
</svg>
