<svg width="22" height="22" viewBox="0 0 22 22" fill="none" xmlns="http://www.w3.org/2000/svg">
<path d="M8.21959 3.79317L10.5007 1.51205C10.6648 1.34801 10.8873 1.25586 11.1193 1.25586C11.3514 1.25586 11.5739 1.34801 11.738 1.51205L14.0191 3.79317H17.2443C17.4764 3.79317 17.699 3.88536 17.8631 4.04945C18.0272 4.21355 18.1193 4.43611 18.1193 4.66817V7.89342L20.4005 10.1745C20.5645 10.3386 20.6567 10.5612 20.6567 10.7932C20.6567 11.0252 20.5645 11.2477 20.4005 11.4118L18.1193 13.6929V16.9182C18.1193 17.1502 18.0272 17.3728 17.8631 17.5369C17.699 17.701 17.4764 17.7932 17.2443 17.7932H14.0191L11.738 20.0743C11.5739 20.2383 11.3514 20.3305 11.1193 20.3305C10.8873 20.3305 10.6648 20.2383 10.5007 20.0743L8.21959 17.7932H4.99434C4.76228 17.7932 4.53972 17.701 4.37563 17.5369C4.21153 17.3728 4.11934 17.1502 4.11934 16.9182V13.6929L1.83822 11.4118C1.67418 11.2477 1.58203 11.0252 1.58203 10.7932C1.58203 10.5612 1.67418 10.3386 1.83822 10.1745L4.11934 7.89342V4.66817C4.11934 4.43611 4.21153 4.21355 4.37563 4.04945C4.53972 3.88536 4.76228 3.79317 4.99434 3.79317H8.21959ZM5.86934 5.54317V8.6188L3.69497 10.7932L5.86934 12.9675V16.0432H8.94497L11.1193 18.2175L13.2937 16.0432H16.3693V12.9675L18.5437 10.7932L16.3693 8.6188V5.54317H13.2937L11.1193 3.3688L8.94497 5.54317H5.86934ZM11.1193 14.2932C10.1911 14.2932 9.30085 13.9244 8.64447 13.268C7.98809 12.6117 7.61934 11.7214 7.61934 10.7932C7.61934 9.86491 7.98809 8.97468 8.64447 8.3183C9.30085 7.66192 10.1911 7.29317 11.1193 7.29317C12.0476 7.29317 12.9378 7.66192 13.5942 8.3183C14.2506 8.97468 14.6193 9.86491 14.6193 10.7932C14.6193 11.7214 14.2506 12.6117 13.5942 13.268C12.9378 13.9244 12.0476 14.2932 11.1193 14.2932ZM11.1193 12.5432C11.5835 12.5432 12.0286 12.3588 12.3568 12.0306C12.685 11.7024 12.8693 11.2573 12.8693 10.7932C12.8693 10.329 12.685 9.88392 12.3568 9.55574C12.0286 9.22755 11.5835 9.04317 11.1193 9.04317C10.6552 9.04317 10.2101 9.22755 9.88191 9.55574C9.55372 9.88392 9.36934 10.329 9.36934 10.7932C9.36934 11.2573 9.55372 11.7024 9.88191 12.0306C10.2101 12.3588 10.6552 12.5432 11.1193 12.5432Z" fill="#525252"/>
</svg>
